<svg width="140" height="189" viewBox="0 0 140 189" fill="none" xmlns="http://www.w3.org/2000/svg">
<path d="M135.364 24.2631H95.2778V12.9468C95.2778 5.70706 89.2169 0 81.6748 0H58.3256C50.7827 0 44.7222 5.70706 44.7222 12.9468V24.2631H4.63555C2.1525 24.2631 0 26.2273 0 28.6103V45.6658C0 48.0492 2.1525 50.0193 4.63555 50.0193H9.324C9.31583 50.2105 9.33333 50.4023 9.33333 50.5953V175.295C9.33333 182.797 15.6446 188.879 23.4605 188.879H116.54C124.355 188.879 130.667 182.797 130.667 175.295V50.5953C130.667 50.4019 130.685 50.2105 130.676 50.0193H135.364C137.847 50.0193 140 48.0492 140 45.6662V28.6103C140 26.2273 137.847 24.2631 135.364 24.2631ZM58.3333 13.0648H81.6667V24.2631H58.3333V13.0648Z" fill="#597B91"/>
<path d="M130.691 60.3192H9.30859V50.5953H130.691L130.691 60.3192Z" fill="#2B3B47"/>
</svg>
