<svg width="40" height="72" viewBox="0 0 40 72" fill="none" xmlns="http://www.w3.org/2000/svg">
<path d="M10.1473 0.308554C9.59006 -0.162173 8.76572 -0.0855571 8.30318 0.478641C7.84063 1.04284 7.91589 1.88117 8.47058 2.35128L16.3231 9L18 6.95742L10.1473 0.308554Z" fill="#959CB5"/>
<path d="M32.506 6H6.4942C5.57309 6 4.73543 6.45309 4.23948 7.1711C2.86003 9.16852 1 10.8889 1 10.8889V67.1111C1 67.1111 2.86003 68.8315 4.23948 70.8289C4.73528 71.5468 5.57309 72 6.4942 72H32.506C33.4271 72 34.2647 71.5469 34.7607 70.8289C36.1401 68.8313 38 67.1111 38 67.1111V10.8889C38 10.8889 36.14 9.16852 34.7605 7.1711C34.2647 6.45295 33.4269 6 32.506 6Z" fill="#C7CFE2"/>
<path d="M20.3597 70.8289C19.3561 68.8315 18.0026 67.1111 18.0026 67.1111V10.8889C18.0026 10.8889 19.3559 9.16852 20.3596 7.1711C20.7204 6.45323 21.3299 6 22 6H6.89093C5.90329 6 5.00512 6.45295 4.4735 7.1711C2.99439 9.16852 1 10.8889 1 10.8889V67.1111C1 67.1111 2.99439 68.8315 4.4735 70.8289C5.00495 71.5468 5.90329 72 6.89093 72H22C21.3299 71.9999 20.7204 71.5468 20.3597 70.8289Z" fill="#AFB9D2"/>
<path d="M38.6665 68H1.33334C0.597068 68 0 67.4354 0 66.7391V11.2609C0 10.5646 0.597068 10 1.33334 10H38.6667C39.4029 10 40 10.5646 40 11.2609V66.7391C39.9998 67.4354 39.4031 68 38.6665 68Z" fill="#FFEF5C"/>
<path d="M16.6154 66.7391V11.2609C16.6154 10.5646 17.2354 10 18 10H1.38463C0.620035 10 0 10.5646 0 11.2609V66.7391C0 67.4354 0.620035 68 1.38463 68H18C17.2354 68 16.6154 67.4354 16.6154 66.7391Z" fill="#FFEF5C"/>
<path d="M35.3834 38.7013C35.3834 37.6524 35.249 36.6034 34.984 35.5853C34.8096 34.9209 34.0719 34.5056 33.3438 34.6672C32.6102 34.8235 32.1576 35.4883 32.3295 36.152C32.5464 36.985 32.657 37.843 32.657 38.7015C32.657 42.341 30.722 45.6081 27.6382 47.6292C27.9596 47.0892 27.8175 46.4104 27.2521 46.0452C26.6384 45.6486 25.7877 45.7782 25.3498 46.3333L22.4942 49.9594C22.2212 50.3059 22.1653 50.7551 22.3452 51.1487C22.5249 51.5418 22.9163 51.8232 23.3794 51.8938L28.2292 52.6293C28.3051 52.6407 28.3809 52.6461 28.4556 52.6461C29.1092 52.6461 29.687 52.2186 29.7988 51.6152C29.9228 50.9432 29.4221 50.3065 28.6793 50.1937L28.3814 50.1484C32.6528 47.7412 35.3834 43.4833 35.3834 38.7013Z" fill="white"/>
<path d="M17.6536 49.445C12.6393 48.3722 9.00912 44.6249 8.3847 40.0906C8.6395 40.4562 9.07165 40.6736 9.52893 40.6736C9.73141 40.6736 9.93641 40.6332 10.1293 40.5464C10.8056 40.2457 11.0825 39.5053 10.7509 38.8941L8.57965 34.899C8.37198 34.5167 7.96198 34.2588 7.49339 34.2154C7.02621 34.1696 6.56673 34.351 6.27926 34.6874L3.26523 38.2062C2.80323 38.7446 2.91257 39.5205 3.5062 39.9382C4.10392 40.3578 4.95847 40.2589 5.41921 39.7194L5.59059 39.5194C5.98048 45.4596 10.5671 50.4663 17.0276 51.848C17.1327 51.8709 17.238 51.8811 17.3418 51.8811C17.9595 51.8811 18.5186 51.4984 18.6676 50.9305C18.8411 50.2668 18.3869 49.6018 17.6536 49.445Z" fill="white"/>
<path d="M25.7976 30.4117C25.59 31.067 26.0067 31.7507 26.7309 31.9393L31.4567 33.1708C31.5806 33.2034 31.7071 33.2192 31.8334 33.2192C32.1648 33.2192 32.491 33.1095 32.744 32.9026C33.0942 32.6181 33.258 32.1907 33.1766 31.7711L32.3274 27.3842C32.1956 26.7121 31.4902 26.2623 30.7485 26.3818C30.0069 26.4994 29.5118 27.1395 29.6409 27.8112L29.6954 28.0929C27.0942 26.2291 23.875 25.1931 20.4673 25.1931C15.8452 25.1931 11.56 27.0867 8.70982 30.389C8.24657 30.9261 8.35166 31.702 8.94419 32.1221C9.19443 32.2983 9.48992 32.3838 9.78288 32.3838C10.189 32.3838 10.5895 32.221 10.8586 31.9093C13.1884 29.2104 16.691 27.6622 20.4676 27.6622C22.9397 27.6622 25.2869 28.336 27.2717 29.5509C26.6206 29.4793 25.9847 29.8229 25.7976 30.4117Z" fill="white"/>
<path d="M8.71129 30.3886C8.24804 30.9257 8.35313 31.7016 8.94566 32.1218C9.1959 32.2979 9.49138 32.3834 9.78435 32.3834C10.1904 32.3834 10.591 32.2206 10.8601 31.9089C12.3153 30.2231 14.228 28.9864 16.3795 28.2955V25.7258C13.378 26.4965 10.6937 28.0918 8.71129 30.3886Z" fill="#FFF8C1"/>
<path d="M5.42018 39.7193L5.59157 39.5193C5.96795 45.2565 10.2652 50.1127 16.3791 51.6835V49.0761C12.0394 47.6818 8.95496 44.226 8.38568 40.0905C8.64047 40.4561 9.07262 40.6735 9.5299 40.6735C9.73239 40.6735 9.93739 40.6331 10.1303 40.5463C10.8066 40.2455 11.0835 39.5052 10.7519 38.894L8.58062 34.8989C8.37295 34.5166 7.96296 34.2586 7.49437 34.2153C7.02719 34.1694 6.56771 34.3508 6.28024 34.6873L3.2662 38.2061C2.80421 38.7444 2.91354 39.5204 3.50718 39.9381C4.10489 40.3577 4.9596 40.2589 5.42018 39.7193Z" fill="#FFF8C1"/>
</svg>
