<svg width="209" height="209" viewBox="0 0 209 209" fill="none" xmlns="http://www.w3.org/2000/svg">
<g clip-path="url(#clip0_49_21)">
<path d="M75.0344 93.8999C74.0924 92.9897 72.5348 93.0737 71.5556 94.0871L63.0737 102.865C60.628 105.396 59.5668 108.92 60.2653 112.189L63.9207 129.295L55.054 138.471L72.1102 154.952L80.9769 145.775L98.1983 148.842C101.489 149.428 104.975 148.246 107.42 145.715L115.902 136.936C116.881 135.923 116.911 134.363 115.97 133.453L114.264 131.805L163.917 80.4174L165.623 82.0652C166.565 82.9754 168.122 82.8914 169.101 81.878L172.648 78.2073C176.566 74.153 176.687 67.9148 172.919 64.2741L142.218 34.6092C138.45 30.9685 132.22 31.3038 128.302 35.3582L124.756 39.0286C123.776 40.0422 123.746 41.6018 124.688 42.5118L126.393 44.1598L76.74 95.5479L75.0344 93.8999Z" fill="#66BF00"/>
<path d="M165.826 71.615L162.279 75.2856L109.079 130.344L100.597 139.122C98.1516 141.654 94.6667 142.835 91.3756 142.249L74.1542 139.183L65.2875 148.36L72.1099 154.952L80.9766 145.775L98.1981 148.841C101.489 149.427 104.974 148.245 107.42 145.714L115.902 136.936C116.881 135.923 116.911 134.363 115.969 133.453L114.264 131.805L163.917 80.4172L165.623 82.0652C166.565 82.9754 168.122 82.8914 169.101 81.878L172.648 78.2073C176.566 74.153 176.687 67.9148 172.919 64.2741L166.097 57.682C169.865 61.3225 169.743 67.5607 165.826 71.615Z" fill="#58AB23"/>
<path d="M76.7401 95.5481L114.264 131.805L121.357 124.464L83.8333 88.207L76.7401 95.5481Z" fill="#58AB23"/>
<path d="M119.3 51.5013L156.824 87.7583L163.917 80.4172L126.393 44.1602L119.3 51.5013Z" fill="#58AB23"/>
<path d="M83.5625 102.14L85.2681 103.788C86.2101 104.698 86.1796 106.258 85.2004 107.271L76.3337 116.448C75.3542 117.462 73.7967 117.545 72.8548 116.635L71.1493 114.987C70.2073 114.077 70.2378 112.517 71.217 111.504L80.0837 102.327C81.0629 101.314 82.6205 101.23 83.5625 102.14Z" fill="#B6E462"/>
<path d="M145.629 37.9052L147.335 39.5532C148.277 40.4634 148.246 42.0229 147.267 43.0364L138.4 52.2129C137.421 53.2265 135.863 53.3101 134.921 52.4001L133.216 50.7521C132.274 49.8419 132.304 48.2823 133.284 47.2689L142.15 38.0924C143.129 37.0788 144.687 36.995 145.629 37.9052Z" fill="#B6E462"/>
<path d="M82.1278 86.5586L83.8334 88.2066L121.357 124.464L123.063 126.112C124.005 127.022 125.562 126.938 126.542 125.925L158.462 92.8894C159.441 91.8758 159.471 90.3163 158.529 89.4062L156.824 87.7583L119.3 51.5013L117.595 49.8533C116.653 48.943 115.095 49.0271 114.116 50.0405L82.1958 83.0756C81.2161 84.089 81.1858 85.6484 82.1278 86.5586Z" fill="#E8E6D9"/>
<path d="M155.051 89.5935L123.131 122.629C122.151 123.642 120.594 123.726 119.652 122.816L121.357 124.464L123.063 126.112C124.005 127.022 125.562 126.938 126.542 125.925L158.462 92.8894C159.441 91.8758 159.471 90.3163 158.529 89.4062L156.824 87.7583L155.118 86.1103C156.06 87.0203 156.03 88.5798 155.051 89.5935Z" fill="#DDDAC5"/>
<path d="M88.9504 93.1507L94.0672 98.0949L129.534 61.3891L124.417 56.445L88.9504 93.1507Z" fill="#F4F3EC"/>
<path d="M113.8 70.7387L110.947 79.8233L105.366 83.3103C104.251 84.0074 103.845 85.44 104.461 86.5101C105.076 87.5812 106.479 87.8829 107.595 87.1857L108.889 86.3767L105.344 97.6678C104.806 99.3788 105.229 101.173 106.447 102.349C107.664 103.525 109.471 103.886 111.163 103.291L120.071 100.154L124.91 102.72C126 103.298 127.419 102.843 128.077 101.705C128.735 100.566 128.385 99.1731 127.294 98.5961L126.177 98.0038L137.787 93.9157C139.419 93.341 140.659 92.003 141.105 90.3362C141.552 88.6697 141.117 86.9972 139.942 85.8625L131.521 77.7254L131.638 71.7152C131.662 70.4569 130.633 69.4627 129.376 69.5301C128.103 69.5989 127.05 70.6882 127.025 71.9634L126.998 73.3552L121.775 68.3083C120.601 67.1738 118.915 66.7967 117.265 67.2994C115.613 67.8022 114.318 69.0878 113.8 70.7387ZM118.304 71.717C118.389 71.6914 118.425 71.7261 118.449 71.7497L123.672 76.7966L122.282 76.8712C121.008 76.94 119.956 78.0293 119.931 79.3045C119.907 80.5797 120.919 81.5579 122.193 81.4896L128.195 81.1668L136.617 89.3039C136.641 89.3273 136.677 89.3625 136.654 89.4481C136.632 89.5341 136.58 89.5518 136.547 89.5638L124.951 93.6474L125.715 92.3259C126.364 91.2032 126.009 89.7867 124.932 89.2169C123.842 88.6383 122.424 89.0932 121.765 90.2315L118.471 95.929L109.924 98.9391C109.887 98.9519 109.835 98.9704 109.771 98.9089C109.708 98.8475 109.724 98.7957 109.736 98.7579L113.286 87.4531L113.916 88.5492C114.531 89.6201 115.935 89.9218 117.05 89.2248C118.166 88.528 118.571 87.0951 117.956 86.025L115.225 81.2764L118.192 71.8282C118.202 71.7963 118.218 71.743 118.304 71.717Z" fill="#508913"/>
<path d="M56.8272 136.636L73.8834 153.116C75.7675 154.937 75.7068 158.056 73.748 160.083L66.6547 167.424C64.6959 169.451 61.5809 169.619 59.6969 167.799L42.6407 151.318C40.7567 149.498 40.8173 146.379 42.7761 144.352L49.8694 137.011C51.8282 134.983 54.9432 134.815 56.8272 136.636Z" fill="#E2AE6B"/>
<path d="M59.6969 167.799C61.581 169.619 64.6964 169.451 66.655 167.424L73.7482 160.083C75.7069 158.056 75.7677 154.937 73.8837 153.116L70.4014 149.752L56.2147 164.434L59.6969 167.799Z" fill="#A3682D"/>
<path d="M49.4637 157.911L56.2152 164.435L70.4019 149.752L63.6504 143.229L49.4637 157.911Z" fill="#B9873C"/>
<path d="M42.6405 151.318L46.0519 154.614L60.2386 139.932L56.8273 136.636C54.9432 134.815 51.8278 134.983 49.8692 137.01L42.776 144.351C40.8175 146.379 40.7565 149.498 42.6405 151.318Z" fill="#B9873C"/>
</g>
<defs>
<clipPath id="clip0_49_21">
<rect width="142.305" height="153.123" fill="white" transform="translate(102.337 209) rotate(-135.984)"/>
</clipPath>
</defs>
</svg>
