<svg width="145" height="133" viewBox="0 0 145 133" fill="none" xmlns="http://www.w3.org/2000/svg">
<path fill-rule="evenodd" clip-rule="evenodd" d="M50.6414 116.324C50.4822 113.011 50.3316 109.697 50.1897 106.383C50.1278 104.944 52.3634 104.952 52.4249 106.383L52.4649 107.314C52.6235 110.838 52.785 114.362 52.9492 117.886L52.9784 118.504H51.8605H50.7431C50.7092 117.777 50.6753 117.051 50.6414 116.324Z" fill="#211715"/>
<path d="M49.5073 114.194C43.283 114.278 37.0376 113.891 30.8258 113.543C29.539 113.47 28.2528 113.394 26.9669 113.313C26.6705 113.313 26.3863 113.43 26.1767 113.64C25.9671 113.849 25.8494 114.133 25.8494 114.429C25.8494 114.726 25.9671 115.01 26.1767 115.219C26.3863 115.428 26.6705 115.546 26.9669 115.546C32.917 115.928 38.8783 116.234 44.8392 116.383C46.3949 116.422 47.9511 116.449 49.5073 116.428C50.9443 116.408 50.9485 114.175 49.5073 114.194V114.194Z" fill="#211715"/>
<path d="M75.9505 60.1508L81.0674 65.0949L116.534 28.3892L111.417 23.445L75.9505 60.1508Z" fill="#F4F3EC"/>
<path d="M44.9157 59.5145C44.6573 61.0084 41.4457 64.7362 40.0468 65.253C36.012 66.7417 32.2569 67.6335 31.3275 68.5095C30.9994 68.8152 30.6941 69.1444 30.4139 69.4944C28.8237 71.1227 26.0586 79.6599 23.9669 87.115L27.2074 87.5309C27.6214 87.5663 28.1527 87.5988 28.7697 87.6281C28.9033 89.3848 29.0365 91.1326 29.0365 91.1326C29.3336 99.2498 28.7021 104.723 27.3555 112.286L22.8507 111.619C14.8829 110.136 8.75961 108.656 4.91424 105.415C3.63509 104.337 2.42533 103.099 1.78878 101.554C0.473308 98.3589 1.29658 94.2766 2.67352 90.8074C7.09117 79.6948 14.2185 70.9798 20.0889 59.5834L23.6321 53.5677L44.8454 54.8084L44.9157 59.5145Z" fill="white"/>
<path fill-rule="evenodd" clip-rule="evenodd" d="M124.946 132.02L124.81 132.037L124.81 132L124.942 131.988C124.939 131.953 124.937 131.919 124.937 131.884C124.945 131.59 125.066 131.311 125.274 131.103C125.454 130.923 125.689 130.808 125.941 130.776C125.94 130.942 125.938 131.108 125.937 131.274C125.935 131.478 125.934 131.682 125.932 131.886V131.888V131.89V131.893V131.895L126.045 131.884L125.932 131.898L124.946 132.02ZM143.017 118.504C141.284 109.89 139.399 102.471 137.785 98.3794C136.513 95.3713 134.517 92.7235 131.975 90.6712C129.194 88.4338 126.136 86.5644 122.877 85.1096C120.345 83.95 118.625 83.2424 116.699 82.4498C114.772 81.657 112.638 80.7791 109.28 79.279C108.451 80.7961 106.166 83.7274 102.305 86.1223C97.3296 89.2077 92.6041 89.3514 89.8358 89.3575C85.5447 89.3875 81.3074 88.4029 77.4699 86.4843C74.6542 85.033 72.1792 83.0006 70.209 80.5216C58.1702 82.5446 53.5217 84.4795 48.3072 86.6501L48.158 86.7122C46.5175 87.4295 44.7541 87.8244 42.9641 87.8753C40.3588 87.892 32.7928 87.8218 28.7924 87.6315C28.9223 89.4724 29.0364 91.1351 29.0364 91.1351C29.361 99.9979 28.5777 105.708 26.967 114.43C31.2441 114.706 43.6612 115.395 49.5075 115.311L51.7174 115.441C51.7632 116.424 51.811 117.448 51.8604 118.504H52.9783H123.805H126.046H141.883H143.017ZM143.803 128.875L143.794 128.827C143.967 128.798 144.136 128.756 144.303 128.701L143.902 129.102C143.892 129.404 143.872 129.404 143.841 129.102L143.803 128.875Z" fill="#447F00"/>
<path d="M90.4085 32.2756C90.1877 31.8393 89.9335 31.3917 89.6285 30.9098C86.6949 26.6712 81.9368 21.6398 75.7054 19.3998C75.7054 19.3998 70.926 17.5571 67.7893 18.9895C67.681 19.3908 67.5765 19.8117 67.476 20.2521C66.9437 22.0505 66.5682 23.8916 66.3537 25.7547C65.5323 29.9147 64.404 35.6913 60.2295 37.1241C59.3928 37.3763 58.6637 37.8992 58.1568 38.6105C56.8931 40.5412 58.5294 41.774 59.443 43.1571C60.0136 44.046 60.3575 45.0611 60.4446 46.1136C60.2345 48.1608 60.1829 50.2211 60.2905 52.2763C60.3395 53.7222 60.5703 55.1562 60.9773 56.5447C61.8155 59.0568 63.1817 60.4716 64.7025 61.3313C67.6785 63.0163 71.9439 64.1547 74.8789 63.8635C75.2201 63.8311 75.5613 63.9244 75.8386 64.1257C76.1158 64.327 76.3099 64.6225 76.3844 64.9567C76.4505 65.2489 77.1606 72.3919 77.1266 73.8057C77.1332 74.517 77.0692 75.2273 76.9357 75.9261C76.4263 78.1852 72.3723 80.2731 70.2983 80.6248C72.2502 83.0587 74.6937 85.0543 77.4693 86.4815C81.3068 88.4001 85.5441 89.3847 89.8352 89.3547C92.6035 89.3486 97.329 89.2048 102.304 86.1195C104.931 84.5326 107.187 82.4032 108.923 79.874C107.461 78.8798 104.478 77.2748 103.761 75.4172C103.472 74.6728 103.287 71.6764 103.235 69.6345C103.221 68.7798 103.325 67.9273 103.546 67.1014C103.937 65.8679 104.628 64.7508 105.558 63.8505C101.699 60.7502 97.5269 53.8399 96.8373 49.8111C96.8373 49.8111 96.8135 49.6715 96.773 49.431C98.7766 47.8851 100.14 45.6555 100.601 43.1687C100.976 41.4586 100.694 39.2572 99.4887 38.0253C99.0556 37.6123 98.5361 37.3005 97.9677 37.1126C97.3994 36.9247 96.7963 36.8652 96.2021 36.9385C94.7474 37.0548 93.7579 37.7657 92.7139 38.6943C91.6797 35.7699 91.3491 34.1346 90.4085 32.2756Z" fill="white"/>
<path d="M43.8381 59.2178C43.82 59.3076 43.7939 59.3941 43.7697 59.482C43.7003 59.7318 43.813 59.4192 43.7231 59.6053C43.5905 59.8807 43.4412 60.1478 43.2761 60.405C42.9409 60.9302 42.5695 61.4313 42.1646 61.9049C41.7129 62.4434 41.2276 62.9529 40.7117 63.4303C40.6042 63.529 40.4952 63.6262 40.3834 63.7206C40.2717 63.8151 40.2195 63.8565 40.2088 63.8639C40.0217 64.0015 39.8241 64.1244 39.6179 64.2314C39.915 64.0756 39.3176 64.3338 39.21 64.371C38.9617 64.4603 38.7133 64.5481 38.465 64.6343C37.917 64.8244 37.3673 65.0096 36.8156 65.1898C35.9248 65.4824 35.0312 65.7648 34.1423 66.0621C32.9246 66.4687 31.5146 66.846 30.5367 67.721C28.8888 69.1962 28.0557 71.2269 27.2609 73.2376C26.1377 76.0754 25.2083 78.9961 24.3198 81.9167C23.2764 85.3466 22.3118 88.7996 21.4258 92.2757C21.0709 93.6714 23.226 94.2636 23.5813 92.8693C25.0688 86.7592 26.8892 80.7348 29.0346 74.8231C29.4129 73.7661 29.8481 72.7305 30.3384 71.7205C30.5145 71.3556 30.7103 71.0006 30.9251 70.657C30.9679 70.59 31.015 70.5254 31.0573 70.4579C31.1784 70.2672 31.0448 70.4663 31.0471 70.464C31.2185 70.2751 31.3731 70.0722 31.5449 69.8834C31.7279 69.6805 31.9221 69.4898 32.1181 69.3C32.2345 69.1879 31.9295 69.393 32.1703 69.2623C32.398 69.1381 32.6164 69.0097 32.8538 68.9027C33.3619 68.6733 34.18 68.4007 34.8203 68.1876C36.7239 67.554 38.6964 67.0293 40.5446 66.2458C41.8186 65.7057 42.8728 64.5161 43.7469 63.4824C44.6209 62.4487 45.7222 61.175 45.9936 59.81C46.0651 59.5247 46.0238 59.2229 45.8785 58.9671C45.7332 58.7113 45.495 58.5212 45.2132 58.4362C44.9275 58.3604 44.6233 58.3997 44.3663 58.5456C44.1092 58.6915 43.9197 58.9323 43.8386 59.2164L43.8381 59.2178Z" fill="#211715"/>
<path d="M65.4794 80.2504C60.0043 81.2947 54.6451 82.8741 49.4791 84.9658C48.1659 85.5619 46.8087 86.0564 45.4196 86.4447C44.2039 86.6996 42.9618 86.8063 41.7204 86.7625C39.3409 86.7581 36.9616 86.7327 34.5824 86.6862C32.1266 86.6397 29.6563 86.6229 27.2074 86.4182C26.9118 86.4207 26.6289 86.5391 26.4199 86.7479C26.2108 86.9568 26.0923 87.2394 26.0898 87.5347C26.0956 87.8291 26.2151 88.1098 26.4235 88.3179C26.6319 88.5261 26.9128 88.6456 27.2074 88.6513C31.7992 89.0351 36.4576 88.9769 41.062 88.9937C42.1221 89.0306 43.1835 89.0024 44.2401 88.909C45.9549 88.6649 47.6272 88.183 49.2086 87.4771C51.3227 86.5992 53.4488 85.7558 55.6253 85.0412C59.0512 83.9507 62.5404 83.0698 66.0736 82.4034C66.3578 82.3223 66.5988 82.1329 66.7448 81.8761C66.8907 81.6193 66.93 81.3155 66.8541 81.0301C66.7703 80.7478 66.5803 80.5089 66.324 80.3635C66.0677 80.2181 65.765 80.1776 65.4794 80.2504Z" fill="#211715"/>
<path d="M94.441 1.13531C92.4344 1.1583 90.4329 1.34282 88.456 1.68705C78.3699 3.41999 72.8678 9.43247 71.8699 10.8077C69.93 13.4827 68.7099 15.5827 67.7903 18.9955C70.9246 17.5566 75.7064 19.4002 75.7064 19.4002C81.9368 21.6403 86.6958 26.6716 89.6294 30.9102C91.2331 33.4382 91.4375 35.0832 92.7162 38.6966C93.7602 37.7661 94.7497 37.0571 96.2044 36.9408C96.7984 36.8675 97.4012 36.9268 97.9694 37.1145C98.5376 37.3022 99.057 37.6136 99.4901 38.0262C100.698 39.2581 100.977 41.4595 100.603 43.1696C100.141 45.6564 98.778 47.886 96.7744 49.4319C96.8149 49.6729 96.8387 49.812 96.8387 49.812C97.5283 53.8408 101.701 60.7521 105.562 63.8528C107.546 61.763 110.464 59.9859 112.395 58.4786C116.81 55.0327 123.57 48.0028 125.107 36.9143C125.835 30.9672 124.921 24.9344 122.465 19.4686C116.808 7.20082 108.668 3.89265 103.563 2.37651C100.601 1.50996 97.5265 1.09159 94.441 1.13531Z" fill="#7A7473"/>
<path d="M69.5914 81.512C71.4047 83.7012 73.5908 85.553 76.0491 86.9821C79.1525 88.7095 82.5638 89.8144 86.0914 90.2349C91.6019 90.9434 97.4203 90.2404 102.281 87.4356C105.299 85.737 107.885 83.3677 109.841 80.5109C110.632 79.3073 108.7 78.1876 107.91 79.3836C104.783 84.1214 99.1162 87.3966 93.4506 88.0544C88.3084 88.6513 82.8882 87.9613 78.2395 85.6222C75.5198 84.2274 73.1146 82.2913 71.1719 79.9331C70.9611 79.7259 70.6773 79.6099 70.3816 79.6099C70.086 79.6099 69.8022 79.7259 69.5914 79.9331C69.3874 80.1453 69.2734 80.4282 69.2734 80.7225C69.2734 81.0168 69.3874 81.2997 69.5914 81.512Z" fill="#211715"/>
<path d="M66.7924 18.7485C65.7726 21.6826 65.4774 24.7293 64.8064 27.7416C64.2965 30.0328 63.6665 32.5929 62.1345 34.43C61.3294 35.3958 60.4581 35.7941 59.3406 36.2816C57.9241 36.8999 56.7352 38.1592 56.5932 39.7507C56.4652 41.1929 57.416 42.2676 58.2151 43.3446C58.6519 43.9128 58.9738 44.5607 59.1627 45.2519C59.3027 45.9326 59.3222 46.6325 59.2204 47.3198C59.0934 49.0422 59.0825 50.7711 59.1878 52.4949C59.2414 54.2376 59.5774 55.96 60.1829 57.5951C60.6946 58.9291 61.4963 60.1329 62.5303 61.1196C63.5784 62.0167 64.7708 62.7302 66.0572 63.2298C67.514 63.8603 69.0324 64.3382 70.588 64.6557C71.322 64.8027 72.0637 64.9084 72.8096 64.9725C73.5053 65.0316 74.1875 64.953 74.878 64.9758C75.0396 64.9814 75.1174 64.9353 75.2375 65.0768C75.2152 65.0507 75.3437 65.3168 75.3176 65.3243C75.3027 65.3284 75.2748 64.9521 75.2962 65.1721C75.3013 65.2224 75.3083 65.2726 75.3139 65.3229C75.3325 65.4824 75.3493 65.6415 75.3665 65.8011C75.4596 66.6604 75.5416 67.5224 75.6217 68.3817C75.821 70.5217 76.1232 72.7161 75.9648 74.8682C75.8661 76.2173 75.1057 77.0315 73.9514 77.8168C72.8435 78.5918 71.6031 79.1576 70.2913 79.4864C68.8944 79.8158 69.4844 81.9693 70.8855 81.6399C73.3181 81.0677 76.0817 79.5874 77.4708 77.453C78.6349 75.6637 78.2517 73.1008 78.0906 71.0674C77.9406 69.1804 77.7716 67.2931 77.5592 65.4122C77.4447 64.3985 77.1225 63.5048 76.1334 63.0065C75.4266 62.6502 74.715 62.7851 73.9602 62.7888C73.2682 62.792 72.5771 62.7391 71.8936 62.6306C70.3663 62.3815 68.8703 61.9683 67.4318 61.3983C66.2223 60.9828 65.0974 60.3536 64.1107 59.5407C61.7103 57.3499 61.4053 53.8897 61.3587 50.835C61.3457 49.9666 61.3601 49.0982 61.402 48.2298C61.4355 47.5278 61.5636 46.8086 61.5636 46.1084C61.5636 44.4308 60.6733 42.8984 59.6865 41.6172C59.32 41.2207 59.0363 40.7551 58.8521 40.2476C58.8156 39.9757 58.8518 39.699 58.9572 39.4457C59.0625 39.1923 59.2332 38.9714 59.4519 38.8054C59.9816 38.4215 60.5698 38.1253 61.1939 37.9285C61.7643 37.6683 62.2969 37.3321 62.7771 36.9292C64.7794 35.2967 65.7992 32.6901 66.4772 30.2743C66.8176 29.0647 67.0765 27.8305 67.3223 26.599C67.652 24.9419 67.8262 23.2718 68.2536 21.63C68.4534 20.8573 68.6867 20.0948 68.9484 19.3402C69.421 17.9799 67.2627 17.3956 66.7933 18.7466L66.7924 18.7485Z" fill="#211715"/>
<path d="M68.5106 20.7517C69.0112 18.3245 69.9062 15.9955 71.1601 13.8572C71.7054 12.9579 72.3517 12.1326 72.9231 11.252C72.681 11.6241 73.0325 11.1254 73.1252 11.0193C73.2849 10.8333 73.4512 10.6532 73.6188 10.4755C76.1244 7.88296 79.1568 5.85662 82.5118 4.53281C89.9283 1.51108 98.2164 1.41464 105.701 4.26298C107.163 4.80938 108.573 5.48719 109.912 6.28808C113.541 8.51697 116.601 11.5573 118.853 15.1696C121.976 19.9461 123.815 25.4458 124.192 31.1386C124.763 40.8617 120.354 50.113 113.091 56.4572C111.614 57.7473 110.018 58.8186 108.425 59.9859C106.475 61.4169 104.421 62.9842 103.185 65.1117C101.812 67.4759 102.075 70.3109 102.283 72.9273C102.291 73.9147 102.443 74.8956 102.732 75.8396C103.245 76.9424 104.041 77.8896 105.04 78.5844C105.984 79.3208 106.995 79.9521 107.998 80.6011C109.209 81.3841 110.331 79.4515 109.126 78.6728C108.093 78.0579 107.102 77.3761 106.158 76.6319C105.441 76.0224 104.85 75.4283 104.691 74.5202C104.533 73.4069 104.438 72.2854 104.407 71.1614C104.342 69.8015 104.272 68.4482 104.7 67.1335C105.371 65.074 107.462 63.475 109.147 62.2152C110.847 60.9438 112.621 59.7761 114.245 58.4032C121.725 52.0762 126.543 42.6695 126.482 32.7902C126.41 26.8328 124.817 20.9924 121.853 15.8223C119.555 11.6205 116.325 7.99981 112.41 5.23715C104.446 -0.222649 93.7313 -1.27916 84.591 1.44237C80.3824 2.67578 76.5004 4.8274 73.2253 7.74189C70.6834 10.0995 68.7244 13.0147 67.5024 16.2577C67.024 17.5278 66.64 18.8315 66.3537 20.1581C66.0384 21.5579 68.193 22.1553 68.5092 20.7517H68.5106Z" fill="#211715"/>
<path fill-rule="evenodd" clip-rule="evenodd" d="M115.752 83.25C114.58 82.768 113.408 82.2862 112.244 81.7897C111.99 81.639 111.806 81.3941 111.731 81.1083C111.656 80.8224 111.697 80.5185 111.845 80.2624C112.001 80.014 112.246 79.8343 112.53 79.7599C112.814 79.6855 113.115 79.7219 113.373 79.8618C114.522 80.3515 115.681 80.8266 116.84 81.3021C121.527 83.2233 126.231 85.1522 130.38 88.0897C132.733 89.7552 134.869 91.5467 136.548 93.9109C137.909 95.888 138.964 98.0586 139.678 100.35C141.24 105.312 142.526 110.356 143.531 115.459C143.744 116.473 143.953 117.488 144.156 118.504H143.017H141.883C141.561 116.913 141.225 115.325 140.875 113.74C140.044 109.979 139.143 106.223 138.025 102.536C137.663 101.226 137.222 99.9401 136.705 98.6841C135.906 96.8568 134.831 95.1624 133.519 93.6597C132.136 92.1796 130.58 90.8706 128.884 89.7607C127.242 88.6289 125.519 87.62 123.728 86.7424C121.124 85.4592 118.437 84.3543 115.752 83.25ZM131.56 132.42L131.908 132.385L132.184 132.357L132.346 132.34C132.292 132.346 132.238 132.351 132.184 132.357C132.092 132.366 132 132.375 131.908 132.385C131.792 132.396 131.676 132.408 131.56 132.42ZM143.794 128.827L143.803 128.875L143.841 129.101C143.872 129.404 143.892 129.404 143.902 129.101L144.303 128.701C144.137 128.756 143.967 128.798 143.794 128.827Z" fill="#211715"/>
<path d="M95.7599 50.1083C96.2302 52.7438 97.5499 55.2792 98.9264 57.5467C100.407 60.1087 102.282 62.4221 104.482 64.4022C104.695 64.6048 104.978 64.7179 105.272 64.7179C105.566 64.7179 105.849 64.6048 106.062 64.4022C106.27 64.1915 106.386 63.908 106.386 63.6127C106.386 63.3173 106.27 63.0338 106.062 62.8232C104 60.9761 102.243 58.815 100.856 56.4199C99.5704 54.2999 98.3559 51.979 97.9164 49.5142C97.8353 49.2302 97.6458 48.9894 97.3887 48.8435C97.1316 48.6977 96.8274 48.6586 96.5417 48.7345C96.2595 48.8189 96.0207 49.0088 95.8752 49.2648C95.7297 49.5207 95.6887 49.8229 95.7608 50.1083H95.7599Z" fill="#211715"/>
<path d="M74.3275 20.1018C77.8484 21.1735 81.06 23.0747 83.6918 25.6454C85.9525 27.7742 88.2319 30.3031 89.5846 33.1247C90.4256 34.88 90.8843 36.8157 91.5176 38.6501C91.9832 39.9992 94.1439 39.42 93.6731 38.0565C93.0468 36.2421 92.5499 34.3784 91.7923 32.6134C91.0824 31.0709 90.1771 29.6258 89.0985 28.3139C86.8767 25.3743 84.1773 22.8278 81.1126 20.7801C79.2018 19.5333 77.1153 18.5789 74.9222 17.9483C73.5364 17.5543 72.9441 19.7083 74.3275 20.1018Z" fill="#211715"/>
<path d="M94.148 38.9445C95.2856 38.0606 96.9536 37.6563 98.2513 38.4565C99.4727 39.2097 99.7116 40.8849 99.6217 42.1964C99.4984 43.5 99.0938 44.7614 98.4358 45.8937C97.7777 47.0261 96.8819 48.0026 95.8099 48.7559C94.4548 49.6435 92.9442 50.2674 91.3573 50.5949C89.9562 50.9164 90.5494 53.0699 91.9515 52.748C95.3675 51.9636 98.5424 50.1744 100.32 47.0616C102.077 43.9847 102.999 38.7184 99.3796 36.53C98.2692 35.9006 96.9757 35.6725 95.7168 35.8843C94.5537 36.0901 93.4666 36.602 92.5676 37.3674C92.3595 37.5776 92.2427 37.8613 92.2427 38.1569C92.2427 38.4525 92.3595 38.7362 92.5676 38.9464C92.7807 39.1489 93.0636 39.2619 93.3578 39.2619C93.652 39.2619 93.9349 39.1489 94.148 38.9464V38.9445Z" fill="#211715"/>
<path d="M71.0767 16.4325C70.357 16.9238 69.6096 17.3735 68.8384 17.7794C68.4587 17.9785 68.0739 18.1667 67.684 18.3441C67.5909 18.3855 67.5015 18.426 67.4097 18.4665C67.3594 18.4883 67.013 18.6488 67.2826 18.5218C67.0768 18.6186 66.8579 18.6944 66.6456 18.7754C66.3689 18.8607 66.132 19.0423 65.9778 19.2871C65.8655 19.4788 65.813 19.6996 65.8269 19.9213C65.8409 20.143 65.9207 20.3555 66.0562 20.5316C66.1917 20.7078 66.3767 20.8395 66.5875 20.91C66.7984 20.9805 67.0254 20.9866 67.2398 20.9275C68.9891 20.2672 70.6555 19.4054 72.205 18.3595C72.3318 18.2855 72.4427 18.1872 72.5314 18.0704C72.6201 17.9536 72.685 17.8204 72.7222 17.6786C72.7594 17.5367 72.7683 17.3889 72.7484 17.2436C72.7284 17.0983 72.68 16.9583 72.606 16.8317C72.5319 16.7051 72.4335 16.5943 72.3166 16.5056C72.1997 16.417 72.0664 16.3522 71.9244 16.315C71.7824 16.2778 71.6344 16.2689 71.489 16.2889C71.3436 16.3088 71.2035 16.3571 71.0767 16.4312V16.4325Z" fill="#211715"/>
<path d="M19.1259 59.0215C14.5197 67.9402 8.49271 76.0485 4.03873 85.0462C1.9121 89.3397 -0.4781 94.2762 0.0830118 99.2056C0.355583 101.63 1.51049 103.87 3.32815 105.5C4.70053 106.784 6.26301 107.85 7.96047 108.658C12.5239 110.845 17.619 111.775 22.5554 112.697C22.8409 112.768 23.1427 112.727 23.3985 112.582C23.6543 112.437 23.8445 112.199 23.93 111.918C24.0061 111.632 23.9669 111.328 23.821 111.071C23.675 110.814 23.4339 110.625 23.1496 110.544C18.8242 109.738 14.4098 108.918 10.3111 107.271C7.03195 105.953 3.28205 103.604 2.44946 99.929C1.95494 97.7458 2.36192 95.4187 2.98776 93.3062C3.71083 91.0396 4.61815 88.8358 5.70065 86.7168C7.80867 82.5254 10.1294 78.4442 12.6538 74.489C15.5702 69.7764 18.5108 65.0768 21.056 60.1492C21.7145 58.874 19.7867 57.7431 19.1259 59.0219V59.0215Z" fill="#211715"/>
<path d="M46.76 31.0377C40.5035 34.7296 26.9199 43.3339 20.5438 47.4227C19.9048 47.8321 19.4448 48.4681 19.2563 49.2028C19.0679 49.9374 19.165 50.7161 19.5282 51.3821C21.5188 55.0369 24.4515 60.3608 26.4664 63.9965C26.8333 64.66 27.4383 65.1599 28.1595 65.3954C28.8807 65.6309 29.6644 65.5845 30.3527 65.2656C36.5632 62.3934 51.8571 55.2476 58.2593 52.0181C58.4191 51.9375 58.561 51.8255 58.6766 51.6889C58.7921 51.5523 58.8789 51.3939 58.9318 51.223C58.9848 51.0522 59.0027 50.8725 58.9846 50.6945C58.9665 50.5166 58.9128 50.3442 58.8265 50.1874C56.6947 46.2992 50.7386 35.4335 48.6073 31.5466C48.5216 31.3899 48.4052 31.2519 48.2651 31.141C48.125 31.0301 47.964 30.9485 47.7916 30.901C47.6193 30.8535 47.4392 30.8411 47.2619 30.8646C47.0847 30.8881 46.914 30.947 46.76 31.0377Z" fill="white"/>
<path d="M40.2174 44.9645C33.6382 47.1552 32.4876 43.1809 24.7931 48.8723C24.538 49.0617 24.3592 49.3362 24.2894 49.6459C24.2195 49.9557 24.2631 50.2802 24.4122 50.5606C25.5004 52.6076 27.919 57.1341 29.2676 59.6361C29.5076 60.0824 29.9101 60.4195 30.3919 60.5777C30.8737 60.7359 31.3979 60.7031 31.8561 60.486C36.63 58.2302 47.6269 52.9704 53.0461 50.328C53.2343 50.2367 53.4022 50.1085 53.5398 49.9511C53.6774 49.7936 53.7819 49.6101 53.8471 49.4115C53.9123 49.2129 53.9368 49.0032 53.9192 48.7949C53.9016 48.5867 53.8422 48.384 53.7446 48.1992C53.2166 47.198 52.5605 45.9582 51.9709 44.9426C51.7765 44.6043 51.4622 44.3511 51.0901 44.2329C50.7179 44.1148 50.315 44.1402 49.9607 44.3044C48.3919 45.0403 47.5244 45.2767 46.6192 45.0538C44.3748 44.5021 42.2868 44.0857 40.2174 44.9645Z" fill="#BCE2EF"/>
<path d="M46.1959 30.0738C39.5361 34.0076 33.0128 38.1746 26.4797 42.316C24.9505 43.2858 23.4228 44.258 21.8967 45.2324C20.3377 46.228 18.5035 47.1254 18.131 49.1286C17.9509 50.2533 18.1866 51.4051 18.7941 52.3689C19.3299 53.3514 19.867 54.3333 20.4053 55.3146C21.5722 57.4416 22.7421 59.5661 23.9149 61.6881C24.9291 63.5248 25.7775 65.9063 28.0094 66.5129C29.7998 67.0009 31.383 66.0147 32.9495 65.288C36.3106 63.7273 39.6673 62.1575 43.0197 60.5786C46.6257 58.8808 50.2249 57.1685 53.8173 55.4416C55.2431 54.7527 56.6675 54.0599 58.0845 53.3528C58.9739 52.9095 59.813 52.4354 60.0468 51.3756C60.261 50.4052 59.7953 49.6287 59.3483 48.8169L54.2261 39.4744L51.5384 34.5659C50.8674 33.3415 50.2718 32.004 49.4895 30.8465C49.1376 30.3286 48.6038 29.9617 47.9939 29.8183C47.3841 29.6749 46.7425 29.7656 46.1964 30.0724C44.9168 30.7293 46.046 32.6567 47.3247 32.0002C47.6679 31.8244 47.9454 32.6585 48.0865 32.9158L49.0732 34.7157L51.4736 39.0939L56.5539 48.361L57.516 50.1158C57.6582 50.3115 57.7749 50.5244 57.8633 50.7495C57.9099 50.9783 57.7702 51.0123 57.5634 51.1216C56.309 51.7729 55.028 52.3777 53.7567 52.9969C50.4546 54.6007 47.1426 56.1824 43.8206 57.7421C40.5154 59.3025 37.2062 60.8541 33.8929 62.3971C32.6431 62.9796 31.3927 63.5605 30.1416 64.1398C29.8538 64.3045 29.5308 64.398 29.1995 64.4125C28.8681 64.4269 28.5382 64.362 28.2371 64.2231C27.4497 63.8272 27.1144 62.8586 26.7111 62.1296C25.6494 60.2101 24.5899 58.2892 23.5326 56.367C22.985 55.3705 22.4378 54.3737 21.8912 53.3765C21.3499 52.5045 20.8587 51.6024 20.4202 50.6746C20.2943 50.3642 20.2519 50.0264 20.2972 49.6946C20.3426 49.3628 20.474 49.0487 20.6786 48.7834C21.094 48.2563 21.8269 47.927 22.3852 47.5702C23.775 46.681 25.1666 45.7943 26.5598 44.91C32.8731 40.8999 39.192 36.892 45.598 33.0307C46.1717 32.6846 46.7471 32.3409 47.3242 31.9998C48.5614 31.2712 47.4383 29.3401 46.1959 30.0738Z" fill="#211715"/>
<path d="M27.9188 91.1364C28.0758 95.008 27.9756 98.8857 27.6189 102.744C27.2464 106.569 26.5856 110.357 25.889 114.135C25.8185 114.42 25.8601 114.722 26.0054 114.977C26.1507 115.233 26.3885 115.423 26.6699 115.508C26.9556 115.584 27.2597 115.545 27.5168 115.399C27.7739 115.253 27.9634 115.013 28.0445 114.729C28.7658 110.816 29.4415 106.891 29.8359 102.93C30.2068 99.0102 30.313 95.0702 30.1539 91.1364C30.1027 89.7035 27.8676 89.6966 27.9188 91.1364Z" fill="#211715"/>
<path d="M43.7324 34.7259C43.5953 33.831 43.3388 32.9586 42.9696 32.1319C42.497 31.2158 41.8125 30.3054 40.8081 29.9919C39.7622 29.6662 39.026 29.776 37.8279 30.3878C36.9157 30.853 36.3289 31.9672 36.6083 32.7873C36.6493 32.9078 36.7015 33.0493 36.7583 33.1981L36.5115 33.0553C36.0831 32.636 35.5333 32.3622 34.9403 32.2729C34.3473 32.1836 33.7412 32.2834 33.2081 32.558C32.5817 32.8451 32.0724 33.3376 31.7646 33.9536C31.6197 34.2076 31.527 34.488 31.4922 34.7782C31.4573 35.0685 31.4809 35.3628 31.5616 35.6438C31.57 35.6684 31.5807 35.6987 31.5895 35.7243H31.5863C30.2619 34.8762 29.0182 35.3474 27.9611 36.1513C27.504 36.4732 27.1415 36.9114 26.9111 37.4204C26.6808 37.9295 26.5911 38.491 26.6513 39.0464C26.6983 39.2449 26.7728 39.4359 26.8724 39.614L26.5465 39.5525C25.9709 39.185 24.7491 39.2101 23.9058 39.7852C23.2993 40.1722 22.8454 40.7568 22.621 41.4399C22.2951 42.9975 23.5789 44.2564 24.7491 45.1956C25.4457 45.8039 26.2838 46.2279 27.1868 46.4289C27.5531 46.4624 27.9224 46.4224 28.273 46.3113C28.6236 46.2003 28.9485 46.0204 29.2287 45.7823C29.4905 45.5673 29.6873 45.2836 29.797 44.9632C29.9068 44.6428 29.925 44.2982 29.8498 43.9679L29.8564 43.8856C30.0631 44.1401 30.247 44.3592 30.3872 44.515C30.7724 44.856 31.2179 45.1221 31.7008 45.2999C32.1653 45.4617 32.6694 45.4709 33.1395 45.3261C33.6095 45.1813 34.021 44.8901 34.3136 44.495C34.621 44.1833 34.8241 43.784 34.8948 43.3521C34.9655 42.9203 34.9004 42.4771 34.7085 42.0838L34.7527 41.8861C34.9309 42.0908 35.128 42.2783 35.3413 42.4462C35.6012 42.6243 35.8951 42.7469 36.2046 42.8064C36.5141 42.8659 36.8326 42.8609 37.1401 42.7919C37.9166 42.6112 38.6291 42.2224 39.2011 41.6674C39.595 41.19 39.8443 40.6101 39.9197 39.996C39.995 39.3819 39.8934 38.759 39.6267 38.2006L39.6588 37.908C39.7105 37.9429 39.7589 37.982 39.8129 38.0141C40.3093 38.274 40.8762 38.3674 41.4297 38.2802C41.9833 38.1931 42.494 37.9301 42.8863 37.5302C43.8446 36.6482 43.8348 35.6964 43.7324 34.7259Z" fill="white"/>
<path d="M38.9029 35.1898C38.7353 34.8943 38.5807 34.5924 38.4345 34.2863C38.3637 34.1384 38.2946 33.9896 38.2273 33.8402C38.1937 33.7653 38.1602 33.6904 38.1276 33.615C38.1276 33.615 37.9847 33.2796 38.0517 33.4405C37.9325 33.154 37.8147 32.8646 37.7151 32.5706C37.6811 32.4715 37.6629 32.1942 37.6587 32.4077C37.6587 32.3408 37.6587 32.2752 37.6638 32.2086C37.6424 32.4482 37.6922 32.1556 37.7062 32.1012C37.7826 31.7992 37.6531 32.1821 37.7383 32.0198C37.7728 31.9542 37.8091 31.8904 37.8482 31.8281C37.8715 31.7913 38.0182 31.6141 37.9088 31.7388C37.9591 31.6815 38.014 31.6304 38.0657 31.575C38.0792 31.5601 38.224 31.4354 38.1025 31.5313C38.1634 31.486 38.2272 31.4447 38.2934 31.4075C38.4331 31.327 38.6906 31.2024 38.7712 31.1675C38.94 31.0966 39.1138 31.0383 39.2913 30.993C39.3816 30.9693 39.4724 30.9465 39.5646 30.9325C39.5097 30.9418 39.3756 30.9358 39.5884 30.9349C39.7313 30.9349 39.8724 30.9297 40.0154 30.9423C39.8291 30.926 40.0107 30.9423 40.0475 30.9502C40.1625 30.9772 40.278 31.0009 40.3916 31.034C40.9183 31.2198 41.3615 31.5869 41.6419 32.0695C42.0445 32.7216 42.3343 33.4367 42.4992 34.1849C42.5851 34.5071 42.6363 34.8376 42.6519 35.1707C42.6598 35.3182 42.6631 35.4661 42.657 35.6136C42.6538 35.6857 42.6505 35.7606 42.6417 35.8331C42.6682 35.6182 42.6142 35.9262 42.6025 35.9727C42.5837 36.0457 42.5608 36.1176 42.5341 36.1881C42.597 36.0318 42.4903 36.2593 42.4708 36.2932C42.4015 36.4229 42.3107 36.5398 42.2021 36.6389C42.0079 36.8357 41.7767 36.9922 41.5218 37.0995C41.4477 37.1237 41.3737 37.146 41.2978 37.166C41.2573 37.1762 40.956 37.2125 41.1478 37.1986C41.0547 37.2041 40.9644 37.206 40.8722 37.2028C40.7898 37.1995 40.6352 37.1641 40.7944 37.1995C40.7073 37.18 40.6235 37.153 40.5378 37.1316C40.4293 37.1023 40.631 37.2018 40.4661 37.1018C40.339 37.0358 40.2196 36.9561 40.1099 36.8641C39.6184 36.3756 39.2105 35.8098 38.9025 35.1893C38.829 35.0616 38.7309 34.9497 38.614 34.86C38.497 34.7703 38.3634 34.7047 38.221 34.6668C38.0785 34.6289 37.9299 34.6196 37.7838 34.6393C37.6377 34.6591 37.497 34.7075 37.3697 34.7818C37.2424 34.8561 37.1311 34.9549 37.0422 35.0724C36.9532 35.1899 36.8885 35.3238 36.8516 35.4664C36.8147 35.609 36.8064 35.7575 36.8272 35.9033C36.848 36.0491 36.8975 36.1894 36.9728 36.316C37.3725 37.1046 37.8983 37.8227 38.5295 38.4421C38.9298 38.8175 39.4103 39.0971 39.9347 39.2596C40.459 39.422 41.0136 39.4632 41.5562 39.38C42.0719 39.2986 42.5665 39.1166 43.0118 38.8443C43.457 38.5719 43.8442 38.2146 44.1512 37.7928C44.4582 37.3709 44.679 36.8927 44.8011 36.3856C44.9231 35.8785 44.9439 35.3523 44.8624 34.8371C44.6635 32.8004 43.7765 30.3608 41.918 29.2708C40.9578 28.7585 39.8484 28.5982 38.7823 28.8176C37.7161 29.037 36.7605 29.6223 36.0811 30.472C35.76 30.8853 35.552 31.375 35.4774 31.8928C35.4028 32.4107 35.4641 32.9391 35.6555 33.4261C36.0182 34.4224 36.4584 35.3887 36.9728 36.316C37.1235 36.5694 37.3688 36.753 37.6544 36.8268C37.9401 36.9005 38.2433 36.8584 38.498 36.7097C38.7527 36.561 38.9382 36.3177 39.0141 36.0329C39.0899 35.748 39.05 35.4453 38.9029 35.1898Z" fill="#211715"/>
<path d="M37.3038 32.2667C36.535 31.548 35.5204 31.1498 34.4675 31.1535C33.4146 31.1572 32.4028 31.5626 31.6391 32.2867C31.234 32.6574 30.9113 33.1089 30.6919 33.612C30.4724 34.1151 30.3611 34.6586 30.3651 35.2074C30.4582 35.9331 30.6694 36.6386 30.9905 37.2962C31.5812 38.9123 32.368 40.45 33.3332 41.8749C33.7771 42.5843 34.3836 43.178 35.1027 43.6069C35.5757 43.8271 36.0903 43.9442 36.6121 43.9505C37.134 43.9567 37.6512 43.852 38.1294 43.6432C39.1714 43.2869 40.0432 42.5554 40.5745 41.5916C40.8553 41.0207 41.0117 40.3969 41.0334 39.7612C41.0552 39.1255 40.9418 38.4925 40.7007 37.9038C40.6147 37.6235 40.4246 37.3867 40.1695 37.2419C39.9144 37.097 39.6135 37.055 39.3285 37.1246C39.0438 37.2051 38.8023 37.3943 38.6562 37.6513C38.5101 37.9082 38.471 38.2124 38.5476 38.4979C38.6972 38.8003 38.7839 39.13 38.8024 39.4668C38.8209 39.8037 38.7708 40.1408 38.6551 40.4578C38.5522 40.6938 38.4013 40.9058 38.2118 41.0803C38.0224 41.2547 37.7986 41.3878 37.5548 41.4711C37.3506 41.6019 37.1199 41.6856 36.8792 41.7161C36.6386 41.7465 36.3942 41.7229 36.1639 41.6469C35.8029 41.4152 35.4958 41.1089 35.2633 40.7486C34.5267 39.6785 33.9049 38.534 33.4081 37.3339C33.2326 36.9333 33.0184 36.3937 32.8414 35.9108C32.7286 35.7121 32.6574 35.4925 32.6323 35.2654C32.6072 35.0384 32.6286 34.8086 32.6952 34.59C33.1991 33.434 34.7907 32.9255 35.722 33.8457C36.7464 34.8557 38.3296 33.2777 37.3024 32.2667H37.3038Z" fill="#211715"/>
<path d="M32.1543 34.7595C31.6717 34.4541 31.1264 34.2615 30.5589 34.196C29.9915 34.1305 29.4166 34.1938 28.877 34.3812C27.8283 34.7537 26.9172 35.4349 26.2638 36.3352C25.7369 37.0749 25.4744 37.9703 25.5187 38.8771C25.5806 39.4586 25.7765 40.0178 26.091 40.511C26.8453 41.7669 27.6885 42.9673 28.6144 44.1029C28.9398 44.5564 29.2978 44.9857 29.6854 45.3874C30.3911 46.0385 31.2873 46.4462 32.2423 46.5504C32.7996 46.5693 33.3537 46.4581 33.8604 46.2256C34.3672 45.9931 34.8127 45.6457 35.1615 45.2111C35.573 44.7535 35.8494 44.1908 35.96 43.5857C36.0705 42.9806 36.0109 42.3566 35.7878 41.7833C35.702 41.5017 35.5111 41.2637 35.2547 41.1187C34.9982 40.9736 34.6958 40.9326 34.4099 41.0041C34.1254 41.0848 33.8841 41.2741 33.7381 41.531C33.5921 41.788 33.5531 42.092 33.6295 42.3774C33.7502 42.6186 33.8079 42.8863 33.7971 43.1557C33.7252 43.4008 33.5977 43.6261 33.4246 43.814C33.2685 43.9807 33.086 44.1206 32.8844 44.228C32.7693 44.2701 32.6511 44.3036 32.531 44.3281C32.6213 44.3178 32.4169 44.3281 32.4281 44.3281L32.3033 44.3243C32.3745 44.336 32.3713 44.3337 32.294 44.3174C32.2328 44.3056 32.1728 44.2883 32.1147 44.2657C32.2707 44.3164 32.1026 44.262 32.0747 44.2499C31.935 44.1908 31.7995 44.1238 31.6663 44.0536C31.4489 43.9525 31.2545 43.8081 31.0949 43.6293C30.8025 43.3037 30.5315 42.9552 30.2609 42.61L30.1622 42.4835C30.0505 42.3393 30.2493 42.5975 30.1357 42.4481C30.0547 42.3424 29.9743 42.2366 29.8945 42.1308C29.7175 41.8954 29.5428 41.6586 29.3701 41.4205C29.0442 40.9724 28.7294 40.5189 28.43 40.0541C28.1865 39.6764 27.976 39.2884 27.7627 38.8939C27.7427 38.8562 27.7161 38.7496 27.7683 38.9092C27.8381 39.1186 27.7683 38.9139 27.7734 38.9092C27.8018 38.8497 27.7348 38.7189 27.7576 38.9362C27.7441 38.8009 27.7408 38.6649 27.7478 38.5291C27.7543 38.4017 27.7441 38.497 27.7404 38.5254C27.7558 38.422 27.7786 38.3198 27.8088 38.2198C28.0222 37.5936 28.4663 37.0721 29.0507 36.7613C29.3338 36.5503 29.6745 36.4305 30.0275 36.4178C30.3804 36.405 30.7289 36.5 31.0265 36.6901C32.2614 37.4345 33.3864 35.5038 32.1548 34.7618L32.1543 34.7595Z" fill="#211715"/>
<path d="M27.1144 38.5881C26.5041 38.2815 25.8215 38.1472 25.1403 38.1998C24.4592 38.2525 23.8053 38.49 23.2495 38.8868C21.9456 39.8219 21.128 41.2771 21.5917 42.897C21.9699 44.2173 23.0092 45.2338 24.0597 46.0605C25.2676 47.0109 26.6622 47.7776 28.2422 47.4705C29.9386 47.1416 31.4361 45.4561 30.9281 43.6688C30.8891 43.5274 30.8226 43.395 30.7324 43.2793C30.6422 43.1636 30.53 43.0668 30.4024 42.9943C30.2747 42.9219 30.134 42.8753 29.9883 42.8572C29.8426 42.8391 29.6948 42.8499 29.5533 42.8888C29.4117 42.9278 29.2793 42.9943 29.1634 43.0844C29.0476 43.1745 28.9507 43.2865 28.8782 43.4141C28.7318 43.6717 28.6938 43.9768 28.7726 44.2624C28.8303 44.4648 28.7945 44.1582 28.7954 44.3699C28.7963 44.5815 28.8252 44.2824 28.7772 44.489C28.7339 44.675 28.754 44.5848 28.7772 44.5262C28.7548 44.5761 28.7296 44.6247 28.7018 44.6718C28.6753 44.7183 28.6464 44.7648 28.6166 44.8114C28.6781 44.7183 28.6375 44.7937 28.5905 44.8421C28.5598 44.8737 28.3698 45.0505 28.4904 44.9556C28.4022 45.0215 28.3088 45.0802 28.211 45.131C28.1644 45.157 28.1151 45.1807 28.0667 45.204C27.9037 45.2812 28.2063 45.1575 28.0387 45.2114C27.9237 45.2468 27.8096 45.2784 27.6932 45.3077C27.4804 45.3612 27.8189 45.3147 27.6098 45.3217C27.5218 45.3245 27.4334 45.3217 27.3458 45.3254C27.1596 45.3333 27.4948 45.3719 27.2736 45.3147C27.1293 45.2756 26.9868 45.237 26.8457 45.1872C26.8508 45.1872 26.6757 45.117 26.7605 45.1542C26.8452 45.1914 26.6674 45.1077 26.6748 45.1114C26.5645 45.0551 26.4546 44.9988 26.3489 44.9374C26.0938 44.7914 25.8473 44.6308 25.6108 44.4564C25.5074 44.3806 25.3752 44.2703 25.2071 44.1279C25.0231 43.9712 24.8434 43.8097 24.6711 43.6409C24.4986 43.4721 24.3349 43.2944 24.1808 43.1087C24.2814 43.2301 24.1193 43.0231 24.0932 42.9849C24.0228 42.881 23.9573 42.7743 23.8967 42.6648C23.8683 42.6127 23.75 42.3229 23.812 42.5015C23.7775 42.4029 23.75 42.3034 23.7188 42.2033C23.6606 42.0052 23.7044 42.2964 23.6946 42.0875C23.6918 42.0345 23.69 41.9819 23.69 41.9289C23.69 41.9093 23.6951 41.6963 23.6872 41.807C23.6793 41.9177 23.6974 41.746 23.7002 41.7353C23.7114 41.6888 23.7244 41.6451 23.737 41.5995C23.7696 41.4827 23.7258 41.6153 23.7165 41.6344C23.7473 41.5702 23.7817 41.5069 23.8185 41.446C23.8381 41.4129 23.9885 41.1943 23.9074 41.299C23.9948 41.1898 24.0896 41.0868 24.191 40.9905C24.3479 40.8219 24.5357 40.685 24.7442 40.5872C24.7526 40.583 24.91 40.5151 24.8034 40.5574C24.6967 40.5997 24.8965 40.529 24.9174 40.523C25.0343 40.4872 25.1535 40.4662 25.2718 40.436C25.0786 40.4858 25.3472 40.4299 25.4273 40.4271C25.54 40.4234 25.6522 40.4369 25.764 40.4355C25.5186 40.4392 25.8106 40.4564 25.9009 40.4751C25.927 40.4802 26.0653 40.5286 25.9172 40.4751C25.7607 40.4169 25.9605 40.5048 25.9843 40.5188C26.2402 40.6682 26.5451 40.7099 26.8318 40.6348C27.1186 40.5596 27.3637 40.3737 27.5132 40.118C27.6628 39.8623 27.7045 39.5577 27.6293 39.2712C27.5541 38.9848 27.368 38.7399 27.1121 38.5905L27.1144 38.5881Z" fill="#211715"/>
<path d="M69.1943 32.7255C68.5675 33.8527 68.1666 36.6798 70.2857 37.4005C73.1616 38.0243 74.0766 34.7022 73.4685 32.9102C72.973 31.442 70.7677 30.385 69.1943 32.7255Z" fill="#211715"/>
</svg>
