<svg width="172" height="187" viewBox="0 0 172 187" fill="none" xmlns="http://www.w3.org/2000/svg">
<path d="M85.7544 151.389C124.243 151.389 155.43 117.508 155.43 75.6945C155.43 33.8805 124.243 0 85.7544 0C47.2654 0 16.0789 33.8805 16.0789 75.6945C16.0789 117.508 47.2654 151.389 85.7544 151.389ZM78.3179 35.4454V29.3316C78.3179 25.9836 80.7967 23.2906 83.8785 23.2906H87.5968C90.6786 23.2906 93.1574 25.9836 93.1574 29.3316V35.5182C98.3496 35.8093 103.374 37.738 107.561 41.1225C109.437 42.6145 109.638 45.5986 107.963 47.3454L102.503 52.9861C101.23 54.3326 99.321 54.369 97.8136 53.35C96.0047 52.1127 93.9949 51.4941 91.851 51.4941H78.8204C75.8055 51.4941 73.3602 54.4782 73.3602 58.1537C73.3602 61.1378 75.0351 63.7944 77.4134 64.5586L98.2826 71.3639C106.892 74.166 112.921 83.1547 112.921 93.2352C112.921 105.608 104.078 115.616 93.1239 115.944V122.057C93.1239 125.405 90.6451 128.098 87.5633 128.098H83.845C80.7632 128.098 78.2844 125.405 78.2844 122.057V115.871C73.0922 115.58 68.0676 113.651 63.8803 110.266C62.0044 108.774 61.8035 105.79 63.4784 104.043L68.9385 98.4028C70.2114 97.0563 72.1208 97.0199 73.6282 98.0389C75.4371 99.2762 77.4469 99.8948 79.5908 99.8948H92.6214C95.6362 99.8948 98.0816 96.9107 98.0816 93.2352C98.0816 90.2511 96.4067 87.5945 94.0284 86.8303L73.1592 80.025C64.5503 77.2229 58.5207 68.2342 58.5207 58.1537C58.5542 45.7806 67.3641 35.7729 78.3179 35.4454ZM160.789 128.098H149.903C143.337 137.56 134.963 145.457 125.449 151.389H146.821C148.596 151.389 150.037 152.699 150.037 154.3V160.123C150.037 161.724 148.596 163.034 146.821 163.034H24.6544C22.879 163.034 21.4386 161.724 21.4386 160.123V154.3C21.4386 152.699 22.879 151.389 24.6544 151.389H46.026C36.5126 145.457 28.1717 137.56 21.5726 128.098H10.7193C4.79019 128.098 0 133.302 0 139.744V174.68C0 181.121 4.79019 186.325 10.7193 186.325H160.789C166.719 186.325 171.509 181.121 171.509 174.68V139.744C171.509 133.302 166.719 128.098 160.789 128.098Z" fill="#447F00"/>
</svg>
