<svg width="14" height="20" viewBox="0 0 14 20" fill="none" xmlns="http://www.w3.org/2000/svg">
<path d="M11.8699 18.9308H1.64655C0.985299 18.9308 0.449219 18.4715 0.449219 17.9049V16.1687C0.449219 15.602 0.985299 15.1427 1.64655 15.1427H11.8699C12.5311 15.1427 13.0672 15.602 13.0672 16.1687V17.9049C13.0673 18.4715 12.5312 18.9308 11.8699 18.9308Z" fill="#020202"/>
<path d="M11.8699 15.1426H1.64655C0.985299 15.1426 0.449219 14.6833 0.449219 14.1167V12.3804C0.449219 11.8138 0.985299 11.3545 1.64655 11.3545H11.8699C12.5311 11.3545 13.0672 11.8138 13.0672 12.3804V14.1167C13.0673 14.6833 12.5312 15.1426 11.8699 15.1426Z" fill="#020202"/>
<path d="M11.8699 11.3545H1.64655C0.985299 11.3545 0.449219 10.8952 0.449219 10.3286V8.59236C0.449219 8.02576 0.985299 7.56641 1.64655 7.56641H11.8699C12.5311 7.56641 13.0672 8.02576 13.0672 8.59236V10.3286C13.0673 10.8952 12.5312 11.3545 11.8699 11.3545Z" fill="#EAE8E8"/>
<path d="M11.8699 7.56644H1.64655C0.985299 7.56644 0.449219 7.10709 0.449219 6.54049V4.80427C0.449219 4.23767 0.985299 3.77832 1.64655 3.77832H11.8699C12.5311 3.77832 13.0672 4.23767 13.0672 4.80427V6.54049C13.0673 7.10709 12.5312 7.56644 11.8699 7.56644Z" fill="#EAE8E8"/>
<path d="M9.01487 2.00281H4.50195V3.77852H9.01487V2.00281Z" fill="#EAE8E8"/>
<path d="M9.87778 2.06938H3.60547V1.14399C3.60547 0.893118 3.91115 0.689697 4.28836 0.689697H9.19494C9.57205 0.689697 9.87783 0.893054 9.87783 1.14399V2.06938H9.87778Z" fill="#FFBA7A"/>
<path d="M13.5162 6.54048V4.80422C13.5162 4.02632 12.7776 3.39351 11.8698 3.39351H9.46369V2.3874H9.6133C9.86126 2.3874 10.0623 2.21511 10.0623 2.00263V0.91749C10.0623 0.41155 9.58204 0 8.99158 0H4.52459C3.93418 0 3.45383 0.41155 3.45383 0.91749V2.00263C3.45383 2.21511 3.65491 2.3874 3.90287 2.3874H4.05248V3.39351H1.64637C0.738519 3.39351 0 4.02636 0 4.80422V6.54048C0 6.94441 0.199445 7.30899 0.518117 7.56639C0.199489 7.82379 0 8.18837 0 8.59234V10.3286C0 10.7325 0.199445 11.0971 0.518117 11.3545C0.199489 11.6119 0 11.9765 0 12.3805V14.1167C0 14.5206 0.199445 14.8852 0.518117 15.1426C0.199489 15.4 0 15.7646 0 16.1686V17.9048C0 18.6827 0.738563 19.3155 1.64637 19.3155H11.8697C12.7776 19.3155 13.5161 18.6827 13.5161 17.9048V16.1686C13.5161 15.7646 13.3166 15.4 12.998 15.1426C13.3166 14.8852 13.5161 14.5206 13.5161 14.1167V12.3805C13.5161 11.9765 13.3166 11.6119 12.998 11.3545C13.3166 11.0971 13.5161 10.7325 13.5161 10.3286V8.59234C13.5161 8.18837 13.3166 7.82379 12.998 7.56639C13.3167 7.30903 13.5162 6.94444 13.5162 6.54048ZM4.352 1.61787V0.91749C4.352 0.835927 4.42944 0.76953 4.52467 0.76953H8.99163C9.08682 0.76953 9.1643 0.83589 9.1643 0.91749V1.61787C9.16426 1.61787 4.352 1.61787 4.352 1.61787ZM4.95064 2.3874H8.56557V3.39351H4.95064V2.3874ZM12.6181 16.1687V17.9049C12.6181 18.2584 12.2824 18.5461 11.8698 18.5461H1.64641C1.23383 18.5461 0.898119 18.2584 0.898119 17.9049V16.1687C0.898119 15.8151 1.23383 15.5275 1.64641 15.5275H11.8698C12.2824 15.5275 12.6181 15.8151 12.6181 16.1687ZM12.6181 12.3805V14.1168C12.6181 14.4703 12.2824 14.7579 11.8698 14.7579H1.64641C1.23383 14.7579 0.898119 14.4703 0.898119 14.1168V12.3805C0.898119 12.027 1.23383 11.7393 1.64641 11.7393H11.8698C12.2824 11.7393 12.6181 12.027 12.6181 12.3805ZM12.6181 8.59238V10.3286C12.6181 10.6821 12.2824 10.9698 11.8698 10.9698H1.64641C1.23383 10.9698 0.898119 10.6821 0.898119 10.3286V8.59238C0.898119 8.23885 1.23383 7.95119 1.64641 7.95119H11.8698C12.2824 7.95116 12.6181 8.23881 12.6181 8.59238ZM11.8698 4.16304C12.2824 4.16304 12.6181 4.4507 12.6181 4.80422V6.54048C12.6181 6.894 12.2824 7.18163 11.8698 7.18163H1.64641C1.23383 7.18163 0.898119 6.894 0.898119 6.54048V4.80422C0.898119 4.4507 1.23383 4.16304 1.64641 4.16304H11.8698Z" fill="#020202"/>
<path d="M1.38184 13.8904C1.38184 14.1029 1.58291 14.2751 1.83087 14.2751H5.05444C5.30241 14.2751 5.50348 14.1029 5.50348 13.8904C5.50348 13.6779 5.30241 13.5056 5.05444 13.5056H1.83087C1.58287 13.5056 1.38184 13.6779 1.38184 13.8904Z" fill="#020202"/>
<path d="M6.43585 14.2751H6.71217C6.96013 14.2751 7.16121 14.1029 7.16121 13.8904C7.16121 13.6779 6.96013 13.5056 6.71217 13.5056H6.43585C6.18789 13.5056 5.98682 13.6779 5.98682 13.8904C5.98682 14.1029 6.18789 14.2751 6.43585 14.2751Z" fill="#020202"/>
<path d="M11.8699 18.9308H1.64655C0.985299 18.9308 0.449219 18.4715 0.449219 17.9049V16.1687C0.449219 15.602 0.985299 15.1427 1.64655 15.1427H11.8699C12.5311 15.1427 13.0672 15.602 13.0672 16.1687V17.9049C13.0673 18.4715 12.5312 18.9308 11.8699 18.9308Z" fill="#020202"/>
<path d="M11.8699 15.1426H1.64655C0.985299 15.1426 0.449219 14.6833 0.449219 14.1167V12.3804C0.449219 11.8138 0.985299 11.3545 1.64655 11.3545H11.8699C12.5311 11.3545 13.0672 11.8138 13.0672 12.3804V14.1167C13.0673 14.6833 12.5312 15.1426 11.8699 15.1426Z" fill="#020202"/>
<path d="M11.8699 11.3545H1.64655C0.985299 11.3545 0.449219 10.8952 0.449219 10.3286V8.59236C0.449219 8.02576 0.985299 7.56641 1.64655 7.56641H11.8699C12.5311 7.56641 13.0672 8.02576 13.0672 8.59236V10.3286C13.0673 10.8952 12.5312 11.3545 11.8699 11.3545Z" fill="#EAE8E8"/>
<path d="M11.8699 7.56644H1.64655C0.985299 7.56644 0.449219 7.10709 0.449219 6.54049V4.80427C0.449219 4.23767 0.985299 3.77832 1.64655 3.77832H11.8699C12.5311 3.77832 13.0672 4.23767 13.0672 4.80427V6.54049C13.0673 7.10709 12.5312 7.56644 11.8699 7.56644Z" fill="#EAE8E8"/>
<path d="M9.01487 2.00281H4.50195V3.77852H9.01487V2.00281Z" fill="#EAE8E8"/>
<path d="M9.87778 2.06938H3.60547V1.14399C3.60547 0.893118 3.91115 0.689697 4.28836 0.689697H9.19494C9.57205 0.689697 9.87783 0.893054 9.87783 1.14399V2.06938H9.87778Z" fill="#FFBA7A"/>
<path d="M13.5162 6.54048V4.80422C13.5162 4.02632 12.7776 3.39351 11.8698 3.39351H9.46369V2.3874H9.6133C9.86126 2.3874 10.0623 2.21511 10.0623 2.00263V0.91749C10.0623 0.41155 9.58204 0 8.99158 0H4.52459C3.93418 0 3.45383 0.41155 3.45383 0.91749V2.00263C3.45383 2.21511 3.65491 2.3874 3.90287 2.3874H4.05248V3.39351H1.64637C0.738519 3.39351 0 4.02636 0 4.80422V6.54048C0 6.94441 0.199445 7.30899 0.518117 7.56639C0.199489 7.82379 0 8.18837 0 8.59234V10.3286C0 10.7325 0.199445 11.0971 0.518117 11.3545C0.199489 11.6119 0 11.9765 0 12.3805V14.1167C0 14.5206 0.199445 14.8852 0.518117 15.1426C0.199489 15.4 0 15.7646 0 16.1686V17.9048C0 18.6827 0.738563 19.3155 1.64637 19.3155H11.8697C12.7776 19.3155 13.5161 18.6827 13.5161 17.9048V16.1686C13.5161 15.7646 13.3166 15.4 12.998 15.1426C13.3166 14.8852 13.5161 14.5206 13.5161 14.1167V12.3805C13.5161 11.9765 13.3166 11.6119 12.998 11.3545C13.3166 11.0971 13.5161 10.7325 13.5161 10.3286V8.59234C13.5161 8.18837 13.3166 7.82379 12.998 7.56639C13.3167 7.30903 13.5162 6.94444 13.5162 6.54048ZM4.352 1.61787V0.91749C4.352 0.835927 4.42944 0.76953 4.52467 0.76953H8.99163C9.08682 0.76953 9.1643 0.83589 9.1643 0.91749V1.61787C9.16426 1.61787 4.352 1.61787 4.352 1.61787ZM4.95064 2.3874H8.56557V3.39351H4.95064V2.3874ZM12.6181 16.1687V17.9049C12.6181 18.2584 12.2824 18.5461 11.8698 18.5461H1.64641C1.23383 18.5461 0.898119 18.2584 0.898119 17.9049V16.1687C0.898119 15.8151 1.23383 15.5275 1.64641 15.5275H11.8698C12.2824 15.5275 12.6181 15.8151 12.6181 16.1687ZM12.6181 12.3805V14.1168C12.6181 14.4703 12.2824 14.7579 11.8698 14.7579H1.64641C1.23383 14.7579 0.898119 14.4703 0.898119 14.1168V12.3805C0.898119 12.027 1.23383 11.7393 1.64641 11.7393H11.8698C12.2824 11.7393 12.6181 12.027 12.6181 12.3805ZM12.6181 8.59238V10.3286C12.6181 10.6821 12.2824 10.9698 11.8698 10.9698H1.64641C1.23383 10.9698 0.898119 10.6821 0.898119 10.3286V8.59238C0.898119 8.23885 1.23383 7.95119 1.64641 7.95119H11.8698C12.2824 7.95116 12.6181 8.23881 12.6181 8.59238ZM11.8698 4.16304C12.2824 4.16304 12.6181 4.4507 12.6181 4.80422V6.54048C12.6181 6.894 12.2824 7.18163 11.8698 7.18163H1.64641C1.23383 7.18163 0.898119 6.894 0.898119 6.54048V4.80422C0.898119 4.4507 1.23383 4.16304 1.64641 4.16304H11.8698Z" fill="#020202"/>
<path d="M1.38184 13.8904C1.38184 14.1029 1.58291 14.2751 1.83087 14.2751H5.05444C5.30241 14.2751 5.50348 14.1029 5.50348 13.8904C5.50348 13.6779 5.30241 13.5056 5.05444 13.5056H1.83087C1.58287 13.5056 1.38184 13.6779 1.38184 13.8904Z" fill="#020202"/>
<path d="M6.43585 14.2751H6.71217C6.96013 14.2751 7.16121 14.1029 7.16121 13.8904C7.16121 13.6779 6.96013 13.5056 6.71217 13.5056H6.43585C6.18789 13.5056 5.98682 13.6779 5.98682 13.8904C5.98682 14.1029 6.18789 14.2751 6.43585 14.2751Z" fill="#020202"/>
</svg>
