<svg width="355" height="155" viewBox="0 0 355 155" fill="none" xmlns="http://www.w3.org/2000/svg">
<path d="M278 125.937C312.56 125.937 340.562 97.7529 340.562 62.9687C340.562 28.1846 312.56 0 278 0C243.44 0 215.438 28.1846 215.438 62.9687C215.438 97.7529 243.44 125.937 278 125.937ZM271.323 29.4863V24.4004C271.323 21.6152 273.548 19.375 276.316 19.375H279.654C282.421 19.375 284.647 21.6152 284.647 24.4004V29.5469C289.309 29.7891 293.821 31.3936 297.581 34.209C299.265 35.4502 299.446 37.9326 297.942 39.3857L293.039 44.0781C291.896 45.1982 290.182 45.2285 288.828 44.3809C287.204 43.3516 285.399 42.8369 283.474 42.8369H271.774C269.067 42.8369 266.871 45.3193 266.871 48.377C266.871 50.8594 268.375 53.0693 270.511 53.7051L289.249 59.3662C296.979 61.6973 302.393 69.1748 302.393 77.5605C302.393 87.8535 294.453 96.1787 284.617 96.4512V101.537C284.617 104.322 282.391 106.562 279.624 106.562H276.286C273.518 106.562 271.293 104.322 271.293 101.537V96.3906C266.63 96.1484 262.119 94.5439 258.359 91.7285C256.675 90.4873 256.494 88.0049 257.998 86.5518L262.901 81.8594C264.044 80.7393 265.758 80.709 267.112 81.5566C268.736 82.5859 270.541 83.1006 272.466 83.1006H284.166C286.873 83.1006 289.069 80.6182 289.069 77.5605C289.069 75.0781 287.565 72.8682 285.429 72.2324L266.691 66.5713C258.961 64.2402 253.546 56.7627 253.546 48.377C253.577 38.084 261.487 29.7588 271.323 29.4863ZM345.375 106.562H335.6C329.704 114.434 322.185 121.003 313.643 125.937H332.832C334.427 125.937 335.72 127.027 335.72 128.359V133.203C335.72 134.535 334.427 135.625 332.832 135.625H223.137C221.543 135.625 220.25 134.535 220.25 133.203V128.359C220.25 127.027 221.543 125.937 223.137 125.937H242.327C233.785 121.003 226.296 114.434 220.37 106.562H210.625C205.301 106.562 201 110.892 201 116.25V145.312C201 150.671 205.301 155 210.625 155H345.375C350.699 155 355 150.671 355 145.312V116.25C355 110.892 350.699 106.562 345.375 106.562Z" fill="#447F00"/>
<path d="M148.567 63.9425V14.7249C148.567 12.3631 146.634 10.4331 144.211 10.4331H13.7885C11.3915 10.4331 9.43262 12.3376 9.43262 14.7249V63.968C9.43262 66.3298 11.3656 68.2598 13.7885 68.2598H144.211C146.634 68.2343 148.567 66.3298 148.567 63.9425Z" fill="white"/>
<path d="M114.597 85.126H64.8693C57.7058 85.126 51.8449 90.74 51.8449 97.6571C51.8449 104.574 57.68 110.188 64.8693 110.188H86.646C89.4851 110.188 91.8036 112.394 91.8036 115.151C91.8036 117.882 89.5113 120.113 86.646 120.113H61.4568C57.9403 120.113 54.5539 118.885 51.9489 116.679L21.8365 90.2384C17.0435 86.1281 8.75981 85.6017 3.23747 91.4162C-1.24286 96.3789 -1.06032 103.697 3.7065 108.434L43.7438 148.158C48.0678 152.494 54.1635 155 60.389 155H122.88C125.303 155 127.282 153.12 127.282 150.765C127.282 148.434 125.329 146.529 122.88 146.529H60.4147C56.5336 146.529 52.7564 145 50.0732 142.294L10.0101 102.519C8.44713 100.965 8.39515 98.5593 9.8538 96.905C11.547 95.1255 13.8655 95.0255 15.9233 96.4789L46.0357 122.895C50.2815 126.529 55.7519 128.534 61.4044 128.534H86.5936C94.2781 128.534 100.53 122.519 100.53 115.125C100.53 107.731 94.2781 101.717 86.5936 101.717H64.8169C62.4726 101.717 60.5711 99.8871 60.5711 97.6315C60.5711 95.376 62.4726 93.5465 64.8169 93.5465H114.544C121.447 93.5465 127.986 96.3285 132.518 101.19C139.499 108.709 148.043 121.716 149.215 140.965C149.345 143.295 151.429 145.1 153.852 144.95C156.274 144.824 158.124 142.819 157.994 140.489C156.691 118.76 147.001 104.073 139.056 95.5516C132.935 88.9606 124 85.126 114.597 85.126Z" fill="#447F00"/>
<path d="M79.0001 65.8504C92.0241 65.8504 102.582 53.9842 102.582 39.3465C102.582 24.7087 92.0241 12.8425 79.0001 12.8425C65.976 12.8425 55.418 24.7087 55.418 39.3465C55.418 53.9842 65.976 65.8504 79.0001 65.8504Z" fill="white"/>
<path d="M132.831 101.142C128.337 96.3188 121.815 93.5591 114.904 93.5591H65.3323C62.9941 93.5591 61.0975 95.3739 61.0975 97.6114C61.0975 99.8489 62.9941 101.664 65.3323 101.664H87.0525C94.717 101.664 100.952 107.631 100.952 114.965C100.952 122.299 94.717 128.266 87.0525 128.266H61.9286C56.2647 128.266 50.8085 126.277 46.5999 122.672L16.5396 96.468C15.7342 95.747 14.6169 95.4239 13.4739 95.4985C12.3309 95.5731 11.2655 96.0704 10.4862 96.8907C9.03131 98.5067 9.08315 100.893 10.6421 102.46L50.6012 141.916C53.3031 144.601 57.0705 146.117 60.9159 146.117H123.245C125.168 146.117 126.778 147.311 127.376 148.976L149.746 141.767C149.616 141.419 149.538 141.045 149.486 140.673C148.342 121.504 139.795 108.6 132.831 101.142Z" fill="#FFE28C"/>
<path d="M144.834 2H13.1666C5.90689 2 0 7.7457 0 14.8073V63.8856C0 70.9472 5.90689 76.6929 13.1666 76.6929H144.833C152.093 76.6929 158 70.9472 158 63.8856V14.8073C158 7.7457 152.094 2 144.834 2ZM149.231 63.8601C149.231 66.214 147.28 68.1376 144.834 68.1376H13.1666C10.7467 68.1376 8.76917 66.2395 8.76917 63.8601V14.8073C8.76917 12.4535 10.7206 10.5299 13.1666 10.5299H144.833C147.253 10.5299 149.231 12.428 149.231 14.8073V63.8856V63.8601H149.231Z" fill="#447F00"/>
<path d="M133.829 30.9134C131.558 30.9134 129.702 32.7866 129.702 35.1347V42.3535C129.702 44.6765 131.533 46.5748 133.829 46.5748C136.1 46.5748 137.955 44.7016 137.955 42.3535V35.1347C137.955 32.787 136.1 30.9134 133.829 30.9134Z" fill="#447F00"/>
<path d="M77.0722 28.406H89.943C92.3562 28.406 94.3282 26.5069 94.3282 24.1263C94.3282 21.7457 92.3822 19.8465 89.943 19.8465H85.9467V18.327C85.9467 15.9718 84.0007 14.0472 81.5614 14.0472C79.1222 14.0472 77.1762 15.9464 77.1762 18.327V19.8465H77.0466C70.326 19.8465 64.8506 25.1648 64.8506 31.7491C64.8506 38.3334 70.2999 43.6517 77.0466 43.6517H82.1326C84.0268 43.6517 85.532 45.1712 85.532 46.9693C85.532 48.8179 83.975 50.2869 82.1326 50.2869H69.2619C66.8487 50.2869 64.8767 52.1861 64.8767 54.5666C64.8767 56.9218 66.8226 58.8464 69.2619 58.8464H77.1762V60.3659C77.1762 62.7211 79.1222 64.6457 81.5614 64.6457C83.9746 64.6457 85.9467 62.7465 85.9467 60.3659V58.2388C90.8252 56.6687 94.3282 52.2115 94.3282 46.9442C94.3282 40.3853 88.8789 35.0416 82.1322 35.0416H77.0462C75.152 35.0416 73.6467 33.5221 73.6467 31.724C73.6728 29.9001 75.1777 28.406 77.0722 28.406Z" fill="#447F00"/>
</svg>
