<svg width="800" height="737" viewBox="0 0 800 737" fill="none" xmlns="http://www.w3.org/2000/svg">
<path d="M500.018 529.99H300.006V689.988H500.018V529.99Z" fill="#DCE2E9"/>
<path d="M759.998 0H40.0023C17.9097 0 0 17.9097 0 40.0023V559.974C0 582.067 17.9097 599.977 40.0023 599.977H759.998C782.09 599.977 800 582.067 800 559.974V40.0023C800 17.9097 782.09 0 759.998 0Z" fill="#DCE2E9"/>
<path d="M759.939 589.994H40.0139C34.7607 589.995 29.5588 588.962 24.7049 586.953C19.851 584.944 15.4401 581.999 11.7245 578.286C8.00883 574.572 5.06117 570.163 3.04945 565.31C1.03773 560.457 0.00152775 555.256 0 550.003V559.998C0.00152775 565.251 1.03773 570.452 3.04945 575.305C5.06117 580.158 8.00883 584.567 11.7245 588.28C15.4401 591.994 19.851 594.939 24.7049 596.948C29.5588 598.957 34.7607 599.99 40.0139 599.988H759.939C770.547 599.988 780.72 595.776 788.221 588.276C795.723 580.777 799.939 570.605 799.942 559.998V550.003C799.939 560.61 795.723 570.782 788.221 578.281C780.72 585.781 770.547 589.994 759.939 589.994Z" fill="#BFC8D5"/>
<path d="M50.009 29.9961H750.015C752.641 29.9946 755.241 30.5105 757.668 31.5144C760.095 32.5183 762.3 33.9904 764.157 35.8468C766.014 37.7031 767.488 39.9073 768.493 42.3333C769.499 44.7593 770.016 47.3596 770.016 49.9856V459.98C770.016 465.285 767.909 470.372 764.158 474.123C760.407 477.874 755.319 479.982 750.015 479.982H50.009C44.7043 479.982 39.617 477.874 35.866 474.123C32.1151 470.372 30.0078 465.285 30.0078 459.98V49.9973C30.0078 44.6926 32.1151 39.6052 35.866 35.8543C39.617 32.1034 44.7043 29.9961 50.009 29.9961Z" fill="#EEFFE2"/>
<path d="M430.008 529.99C430.01 535.925 428.252 541.727 424.957 546.663C421.662 551.599 416.977 555.447 411.494 557.721C406.012 559.994 399.979 560.591 394.158 559.435C388.336 558.279 382.988 555.424 378.79 551.229C374.592 547.034 371.732 541.688 370.572 535.867C369.411 530.047 370.003 524.013 372.272 518.529C374.541 513.045 378.386 508.357 383.319 505.058C388.253 501.759 394.054 499.996 399.989 499.994C403.929 499.993 407.832 500.768 411.473 502.274C415.114 503.781 418.423 505.99 421.211 508.775C423.998 511.56 426.21 514.868 427.719 518.508C429.229 522.148 430.006 526.049 430.008 529.99Z" fill="#8C93A1"/>
<path d="M549.34 717.331C501.274 717.331 499.738 679.83 499.738 679.83H300.227C300.227 679.83 298.703 717.331 250.649 717.331C245.436 717.331 245.867 736.913 250.649 736.913H549.34C554.134 736.913 554.576 717.331 549.34 717.331Z" fill="#BFC8D5"/>
<path opacity="0.5" d="M37.466 475.444L762.534 34.5454C759.01 31.6246 754.581 30.0168 750.003 29.9961H49.9972C44.6946 29.9992 39.6101 32.1075 35.8617 35.8582C32.1133 39.6088 30.0078 44.6946 30.0078 49.9972V459.992C30.0169 462.961 30.6917 465.891 31.9824 468.565C33.2731 471.239 35.1468 473.589 37.466 475.444Z" fill="#EEFFE2"/>
<path d="M30 49C30 38.5066 38.5066 30 49 30H751C761.493 30 770 38.5066 770 49V95H30V49Z" fill="#2E5B1D"/>
<path d="M84.5619 49H86.5619V63H84.5619V49ZM76.5219 63H74.5219V49H76.5219V63ZM84.7419 56.76H76.3219V55.02H84.7419V56.76ZM95.0123 63.12C93.9457 63.12 92.999 62.8867 92.1723 62.42C91.3457 61.9533 90.6923 61.3133 90.2123 60.5C89.7323 59.6733 89.4923 58.74 89.4923 57.7C89.4923 56.6467 89.7323 55.7133 90.2123 54.9C90.6923 54.0867 91.3457 53.4533 92.1723 53C92.999 52.5333 93.9457 52.3 95.0123 52.3C96.0657 52.3 97.0057 52.5333 97.8323 53C98.6723 53.4533 99.3257 54.0867 99.7923 54.9C100.272 55.7 100.512 56.6333 100.512 57.7C100.512 58.7533 100.272 59.6867 99.7923 60.5C99.3257 61.3133 98.6723 61.9533 97.8323 62.42C97.0057 62.8867 96.0657 63.12 95.0123 63.12ZM95.0123 61.44C95.6923 61.44 96.299 61.2867 96.8323 60.98C97.379 60.6733 97.8057 60.24 98.1123 59.68C98.419 59.1067 98.5723 58.4467 98.5723 57.7C98.5723 56.94 98.419 56.2867 98.1123 55.74C97.8057 55.18 97.379 54.7467 96.8323 54.44C96.299 54.1333 95.6923 53.98 95.0123 53.98C94.3323 53.98 93.7257 54.1333 93.1923 54.44C92.659 54.7467 92.2323 55.18 91.9123 55.74C91.5923 56.2867 91.4323 56.94 91.4323 57.7C91.4323 58.4467 91.5923 59.1067 91.9123 59.68C92.2323 60.24 92.659 60.6733 93.1923 60.98C93.7257 61.2867 94.3323 61.44 95.0123 61.44ZM107.888 63.12C106.754 63.12 105.754 62.8867 104.888 62.42C104.034 61.9533 103.368 61.3133 102.888 60.5C102.421 59.6867 102.188 58.7533 102.188 57.7C102.188 56.6467 102.414 55.7133 102.868 54.9C103.334 54.0867 103.968 53.4533 104.768 53C105.581 52.5333 106.494 52.3 107.508 52.3C108.534 52.3 109.441 52.5267 110.228 52.98C111.014 53.4333 111.628 54.0733 112.068 54.9C112.521 55.7133 112.748 56.6667 112.748 57.76C112.748 57.84 112.741 57.9333 112.728 58.04C112.728 58.1467 112.721 58.2467 112.708 58.34H103.688V56.96H111.708L110.928 57.44C110.941 56.76 110.801 56.1533 110.508 55.62C110.214 55.0867 109.808 54.6733 109.288 54.38C108.781 54.0733 108.188 53.92 107.508 53.92C106.841 53.92 106.248 54.0733 105.728 54.38C105.208 54.6733 104.801 55.0933 104.508 55.64C104.214 56.1733 104.068 56.7867 104.068 57.48V57.8C104.068 58.5067 104.228 59.14 104.548 59.7C104.881 60.2467 105.341 60.6733 105.928 60.98C106.514 61.2867 107.188 61.44 107.948 61.44C108.574 61.44 109.141 61.3333 109.648 61.12C110.168 60.9067 110.621 60.5867 111.008 60.16L112.068 61.4C111.588 61.96 110.988 62.3867 110.268 62.68C109.561 62.9733 108.768 63.12 107.888 63.12ZM117.998 63L113.358 52.4H115.358L119.478 62H118.518L122.718 52.4H124.598L119.958 63H117.998ZM130.817 63.12C129.684 63.12 128.684 62.8867 127.817 62.42C126.964 61.9533 126.297 61.3133 125.817 60.5C125.351 59.6867 125.117 58.7533 125.117 57.7C125.117 56.6467 125.344 55.7133 125.797 54.9C126.264 54.0867 126.897 53.4533 127.697 53C128.511 52.5333 129.424 52.3 130.437 52.3C131.464 52.3 132.371 52.5267 133.157 52.98C133.944 53.4333 134.557 54.0733 134.997 54.9C135.451 55.7133 135.677 56.6667 135.677 57.76C135.677 57.84 135.671 57.9333 135.657 58.04C135.657 58.1467 135.651 58.2467 135.637 58.34H126.617V56.96H134.637L133.857 57.44C133.871 56.76 133.731 56.1533 133.437 55.62C133.144 55.0867 132.737 54.6733 132.217 54.38C131.711 54.0733 131.117 53.92 130.437 53.92C129.771 53.92 129.177 54.0733 128.657 54.38C128.137 54.6733 127.731 55.0933 127.437 55.64C127.144 56.1733 126.997 56.7867 126.997 57.48V57.8C126.997 58.5067 127.157 59.14 127.477 59.7C127.811 60.2467 128.271 60.6733 128.857 60.98C129.444 61.2867 130.117 61.44 130.877 61.44C131.504 61.44 132.071 61.3333 132.577 61.12C133.097 60.9067 133.551 60.5867 133.937 60.16L134.997 61.4C134.517 61.96 133.917 62.3867 133.197 62.68C132.491 62.9733 131.697 63.12 130.817 63.12ZM143.063 63.12C141.93 63.12 140.93 62.8867 140.063 62.42C139.21 61.9533 138.543 61.3133 138.063 60.5C137.597 59.6867 137.363 58.7533 137.363 57.7C137.363 56.6467 137.59 55.7133 138.043 54.9C138.51 54.0867 139.143 53.4533 139.943 53C140.757 52.5333 141.67 52.3 142.683 52.3C143.71 52.3 144.617 52.5267 145.403 52.98C146.19 53.4333 146.803 54.0733 147.243 54.9C147.697 55.7133 147.923 56.6667 147.923 57.76C147.923 57.84 147.917 57.9333 147.903 58.04C147.903 58.1467 147.897 58.2467 147.883 58.34H138.863V56.96H146.883L146.103 57.44C146.117 56.76 145.977 56.1533 145.683 55.62C145.39 55.0867 144.983 54.6733 144.463 54.38C143.957 54.0733 143.363 53.92 142.683 53.92C142.017 53.92 141.423 54.0733 140.903 54.38C140.383 54.6733 139.977 55.0933 139.683 55.64C139.39 56.1733 139.243 56.7867 139.243 57.48V57.8C139.243 58.5067 139.403 59.14 139.723 59.7C140.057 60.2467 140.517 60.6733 141.103 60.98C141.69 61.2867 142.363 61.44 143.123 61.44C143.75 61.44 144.317 61.3333 144.823 61.12C145.343 60.9067 145.797 60.5867 146.183 60.16L147.243 61.4C146.763 61.96 146.163 62.3867 145.443 62.68C144.737 62.9733 143.943 63.12 143.063 63.12ZM150.59 63V48.16H152.51V63H150.59ZM161.547 63V52.4H163.467V63H161.547ZM162.507 50.36C162.133 50.36 161.82 50.24 161.567 50C161.327 49.76 161.207 49.4667 161.207 49.12C161.207 48.76 161.327 48.46 161.567 48.22C161.82 47.98 162.133 47.86 162.507 47.86C162.88 47.86 163.187 47.98 163.427 48.22C163.68 48.4467 163.807 48.7333 163.807 49.08C163.807 49.44 163.687 49.7467 163.447 50C163.207 50.24 162.893 50.36 162.507 50.36ZM170.173 63.12C169.293 63.12 168.453 63 167.653 62.76C166.866 62.52 166.246 62.2267 165.793 61.88L166.593 60.36C167.046 60.6667 167.606 60.9267 168.273 61.14C168.939 61.3533 169.619 61.46 170.312 61.46C171.206 61.46 171.846 61.3333 172.233 61.08C172.633 60.8267 172.833 60.4733 172.833 60.02C172.833 59.6867 172.713 59.4267 172.473 59.24C172.233 59.0533 171.913 58.9133 171.513 58.82C171.126 58.7267 170.693 58.6467 170.213 58.58C169.733 58.5 169.253 58.4067 168.773 58.3C168.293 58.18 167.853 58.02 167.453 57.82C167.053 57.6067 166.733 57.32 166.493 56.96C166.253 56.5867 166.133 56.0933 166.133 55.48C166.133 54.84 166.313 54.28 166.673 53.8C167.033 53.32 167.539 52.9533 168.193 52.7C168.859 52.4333 169.646 52.3 170.553 52.3C171.246 52.3 171.946 52.3867 172.653 52.56C173.373 52.72 173.959 52.9533 174.413 53.26L173.593 54.78C173.113 54.46 172.613 54.24 172.093 54.12C171.573 54 171.053 53.94 170.533 53.94C169.693 53.94 169.066 54.08 168.653 54.36C168.239 54.6267 168.033 54.9733 168.033 55.4C168.033 55.76 168.153 56.04 168.393 56.24C168.646 56.4267 168.966 56.5733 169.353 56.68C169.753 56.7867 170.193 56.88 170.673 56.96C171.153 57.0267 171.633 57.12 172.113 57.24C172.593 57.3467 173.026 57.5 173.413 57.7C173.813 57.9 174.133 58.18 174.373 58.54C174.626 58.9 174.753 59.38 174.753 59.98C174.753 60.62 174.566 61.1733 174.193 61.64C173.819 62.1067 173.293 62.4733 172.613 62.74C171.933 62.9933 171.119 63.12 170.173 63.12ZM187.243 63.12C186.11 63.12 185.11 62.8867 184.243 62.42C183.39 61.9533 182.723 61.3133 182.243 60.5C181.776 59.6867 181.543 58.7533 181.543 57.7C181.543 56.6467 181.77 55.7133 182.223 54.9C182.69 54.0867 183.323 53.4533 184.123 53C184.936 52.5333 185.85 52.3 186.863 52.3C187.89 52.3 188.796 52.5267 189.583 52.98C190.37 53.4333 190.983 54.0733 191.423 54.9C191.876 55.7133 192.103 56.6667 192.103 57.76C192.103 57.84 192.096 57.9333 192.083 58.04C192.083 58.1467 192.076 58.2467 192.063 58.34H183.043V56.96H191.063L190.283 57.44C190.296 56.76 190.156 56.1533 189.863 55.62C189.57 55.0867 189.163 54.6733 188.643 54.38C188.136 54.0733 187.543 53.92 186.863 53.92C186.196 53.92 185.603 54.0733 185.083 54.38C184.563 54.6733 184.156 55.0933 183.863 55.64C183.57 56.1733 183.423 56.7867 183.423 57.48V57.8C183.423 58.5067 183.583 59.14 183.903 59.7C184.236 60.2467 184.696 60.6733 185.283 60.98C185.87 61.2867 186.543 61.44 187.303 61.44C187.93 61.44 188.496 61.3333 189.003 61.12C189.523 60.9067 189.976 60.5867 190.363 60.16L191.423 61.4C190.943 61.96 190.343 62.3867 189.623 62.68C188.916 62.9733 188.123 63.12 187.243 63.12ZM194.769 63V52.4H196.609V55.28L196.429 54.56C196.723 53.8267 197.216 53.2667 197.909 52.88C198.603 52.4933 199.456 52.3 200.469 52.3V54.16C200.389 54.1467 200.309 54.14 200.229 54.14C200.163 54.14 200.096 54.14 200.029 54.14C199.003 54.14 198.189 54.4467 197.589 55.06C196.989 55.6733 196.689 56.56 196.689 57.72V63H194.769ZM208.343 63V52.4H210.263V63H208.343ZM209.303 50.36C208.93 50.36 208.617 50.24 208.363 50C208.123 49.76 208.003 49.4667 208.003 49.12C208.003 48.76 208.123 48.46 208.363 48.22C208.617 47.98 208.93 47.86 209.303 47.86C209.677 47.86 209.983 47.98 210.223 48.22C210.477 48.4467 210.603 48.7333 210.603 49.08C210.603 49.44 210.483 49.7467 210.243 50C210.003 50.24 209.69 50.36 209.303 50.36ZM219.589 52.3C220.456 52.3 221.216 52.4667 221.869 52.8C222.536 53.1333 223.056 53.64 223.429 54.32C223.803 55 223.989 55.86 223.989 56.9V63H222.069V57.12C222.069 56.0933 221.816 55.32 221.309 54.8C220.816 54.28 220.116 54.02 219.209 54.02C218.529 54.02 217.936 54.1533 217.429 54.42C216.923 54.6867 216.529 55.08 216.249 55.6C215.983 56.12 215.849 56.7667 215.849 57.54V63H213.929V52.4H215.769V55.26L215.469 54.5C215.816 53.8067 216.349 53.2667 217.069 52.88C217.789 52.4933 218.629 52.3 219.589 52.3ZM236.554 63.12C235.487 63.12 234.66 62.8333 234.074 62.26C233.487 61.6867 233.194 60.8667 233.194 59.8V50.08H235.114V59.72C235.114 60.2933 235.254 60.7333 235.534 61.04C235.827 61.3467 236.24 61.5 236.774 61.5C237.374 61.5 237.874 61.3333 238.274 61L238.874 62.38C238.58 62.6333 238.227 62.82 237.814 62.94C237.414 63.06 236.994 63.12 236.554 63.12ZM231.394 53.98V52.4H238.154V53.98H231.394ZM245.383 63.12C244.317 63.12 243.37 62.8867 242.543 62.42C241.717 61.9533 241.063 61.3133 240.583 60.5C240.103 59.6733 239.863 58.74 239.863 57.7C239.863 56.6467 240.103 55.7133 240.583 54.9C241.063 54.0867 241.717 53.4533 242.543 53C243.37 52.5333 244.317 52.3 245.383 52.3C246.437 52.3 247.377 52.5333 248.203 53C249.043 53.4533 249.697 54.0867 250.163 54.9C250.643 55.7 250.883 56.6333 250.883 57.7C250.883 58.7533 250.643 59.6867 250.163 60.5C249.697 61.3133 249.043 61.9533 248.203 62.42C247.377 62.8867 246.437 63.12 245.383 63.12ZM245.383 61.44C246.063 61.44 246.67 61.2867 247.203 60.98C247.75 60.6733 248.177 60.24 248.483 59.68C248.79 59.1067 248.943 58.4467 248.943 57.7C248.943 56.94 248.79 56.2867 248.483 55.74C248.177 55.18 247.75 54.7467 247.203 54.44C246.67 54.1333 246.063 53.98 245.383 53.98C244.703 53.98 244.097 54.1333 243.563 54.44C243.03 54.7467 242.603 55.18 242.283 55.74C241.963 56.2867 241.803 56.94 241.803 57.7C241.803 58.4467 241.963 59.1067 242.283 59.68C242.603 60.24 243.03 60.6733 243.563 60.98C244.097 61.2867 244.703 61.44 245.383 61.44ZM257.179 63.12C256.112 63.12 255.285 62.8333 254.699 62.26C254.112 61.6867 253.819 60.8667 253.819 59.8V50.08H255.739V59.72C255.739 60.2933 255.879 60.7333 256.159 61.04C256.452 61.3467 256.865 61.5 257.399 61.5C257.999 61.5 258.499 61.3333 258.899 61L259.499 62.38C259.205 62.6333 258.852 62.82 258.439 62.94C258.039 63.06 257.619 63.12 257.179 63.12ZM252.019 53.98V52.4H258.779V53.98H252.019ZM268.4 63V60.76L268.3 60.34V56.52C268.3 55.7067 268.06 55.08 267.58 54.64C267.113 54.1867 266.407 53.96 265.46 53.96C264.833 53.96 264.22 54.0667 263.62 54.28C263.02 54.48 262.513 54.7533 262.1 55.1L261.3 53.66C261.847 53.22 262.5 52.8867 263.26 52.66C264.033 52.42 264.84 52.3 265.68 52.3C267.133 52.3 268.253 52.6533 269.04 53.36C269.827 54.0667 270.22 55.1467 270.22 56.6V63H268.4ZM264.92 63.12C264.133 63.12 263.44 62.9867 262.84 62.72C262.253 62.4533 261.8 62.0867 261.48 61.62C261.16 61.14 261 60.6 261 60C261 59.4267 261.133 58.9067 261.4 58.44C261.68 57.9733 262.127 57.6 262.74 57.32C263.367 57.04 264.207 56.9 265.26 56.9H268.62V58.28H265.34C264.38 58.28 263.733 58.44 263.4 58.76C263.067 59.08 262.9 59.4667 262.9 59.92C262.9 60.44 263.107 60.86 263.52 61.18C263.933 61.4867 264.507 61.64 265.24 61.64C265.96 61.64 266.587 61.48 267.12 61.16C267.667 60.84 268.06 60.3733 268.3 59.76L268.68 61.08C268.427 61.7067 267.98 62.2067 267.34 62.58C266.7 62.94 265.893 63.12 264.92 63.12ZM280.353 63V60.76L280.253 60.34V56.52C280.253 55.7067 280.013 55.08 279.533 54.64C279.066 54.1867 278.36 53.96 277.413 53.96C276.786 53.96 276.173 54.0667 275.573 54.28C274.973 54.48 274.466 54.7533 274.053 55.1L273.253 53.66C273.8 53.22 274.453 52.8867 275.213 52.66C275.986 52.42 276.793 52.3 277.633 52.3C279.086 52.3 280.206 52.6533 280.993 53.36C281.78 54.0667 282.173 55.1467 282.173 56.6V63H280.353ZM276.873 63.12C276.086 63.12 275.393 62.9867 274.793 62.72C274.206 62.4533 273.753 62.0867 273.433 61.62C273.113 61.14 272.953 60.6 272.953 60C272.953 59.4267 273.086 58.9067 273.353 58.44C273.633 57.9733 274.08 57.6 274.693 57.32C275.32 57.04 276.16 56.9 277.213 56.9H280.573V58.28H277.293C276.333 58.28 275.686 58.44 275.353 58.76C275.02 59.08 274.853 59.4667 274.853 59.92C274.853 60.44 275.06 60.86 275.473 61.18C275.886 61.4867 276.46 61.64 277.193 61.64C277.913 61.64 278.54 61.48 279.073 61.16C279.62 60.84 280.013 60.3733 280.253 59.76L280.633 61.08C280.38 61.7067 279.933 62.2067 279.293 62.58C278.653 62.94 277.846 63.12 276.873 63.12ZM285.726 63V48.16H287.646V63H285.726ZM296.683 63V52.4H298.603V63H296.683ZM297.643 50.36C297.27 50.36 296.957 50.24 296.703 50C296.463 49.76 296.343 49.4667 296.343 49.12C296.343 48.76 296.463 48.46 296.703 48.22C296.957 47.98 297.27 47.86 297.643 47.86C298.017 47.86 298.323 47.98 298.563 48.22C298.817 48.4467 298.943 48.7333 298.943 49.08C298.943 49.44 298.823 49.7467 298.583 50C298.343 50.24 298.03 50.36 297.643 50.36ZM307.929 52.3C308.796 52.3 309.556 52.4667 310.209 52.8C310.876 53.1333 311.396 53.64 311.769 54.32C312.143 55 312.329 55.86 312.329 56.9V63H310.409V57.12C310.409 56.0933 310.156 55.32 309.649 54.8C309.156 54.28 308.456 54.02 307.549 54.02C306.869 54.02 306.276 54.1533 305.769 54.42C305.263 54.6867 304.869 55.08 304.589 55.6C304.323 56.12 304.189 56.7667 304.189 57.54V63H302.269V52.4H304.109V55.26L303.809 54.5C304.156 53.8067 304.689 53.2667 305.409 52.88C306.129 52.4933 306.969 52.3 307.929 52.3ZM320.523 67C319.549 67 318.603 66.86 317.683 66.58C316.776 66.3133 316.036 65.9267 315.463 65.42L316.383 63.94C316.876 64.3667 317.483 64.7 318.203 64.94C318.923 65.1933 319.676 65.32 320.463 65.32C321.716 65.32 322.636 65.0267 323.223 64.44C323.809 63.8533 324.103 62.96 324.103 61.76V59.52L324.303 57.42L324.203 55.3V52.4H326.023V61.56C326.023 63.4267 325.556 64.8 324.622 65.68C323.689 66.56 322.323 67 320.523 67ZM320.283 62.56C319.256 62.56 318.336 62.3467 317.523 61.92C316.723 61.48 316.083 60.8733 315.603 60.1C315.136 59.3267 314.903 58.4333 314.903 57.42C314.903 56.3933 315.136 55.5 315.603 54.74C316.083 53.9667 316.723 53.3667 317.523 52.94C318.336 52.5133 319.256 52.3 320.283 52.3C321.189 52.3 322.016 52.4867 322.763 52.86C323.509 53.22 324.103 53.78 324.543 54.54C324.996 55.3 325.223 56.26 325.223 57.42C325.223 58.5667 324.996 59.52 324.543 60.28C324.103 61.04 323.509 61.6133 322.763 62C322.016 62.3733 321.189 62.56 320.283 62.56ZM320.503 60.88C321.209 60.88 321.836 60.7333 322.383 60.44C322.929 60.1467 323.356 59.74 323.663 59.22C323.983 58.7 324.143 58.1 324.143 57.42C324.143 56.74 323.983 56.14 323.663 55.62C323.356 55.1 322.929 54.7 322.383 54.42C321.836 54.1267 321.209 53.98 320.503 53.98C319.796 53.98 319.163 54.1267 318.603 54.42C318.056 54.7 317.623 55.1 317.303 55.62C316.996 56.14 316.843 56.74 316.843 57.42C316.843 58.1 316.996 58.7 317.303 59.22C317.623 59.74 318.056 60.1467 318.603 60.44C319.163 60.7333 319.796 60.88 320.503 60.88ZM334.411 63.12C333.278 63.12 332.278 62.8867 331.411 62.42C330.558 61.9533 329.891 61.3133 329.411 60.5C328.944 59.6867 328.711 58.7533 328.711 57.7C328.711 56.6467 328.938 55.7133 329.391 54.9C329.858 54.0867 330.491 53.4533 331.291 53C332.104 52.5333 333.018 52.3 334.031 52.3C335.058 52.3 335.964 52.5267 336.751 52.98C337.538 53.4333 338.151 54.0733 338.591 54.9C339.044 55.7133 339.271 56.6667 339.271 57.76C339.271 57.84 339.264 57.9333 339.251 58.04C339.251 58.1467 339.244 58.2467 339.231 58.34H330.211V56.96H338.231L337.451 57.44C337.464 56.76 337.324 56.1533 337.031 55.62C336.738 55.0867 336.331 54.6733 335.811 54.38C335.304 54.0733 334.711 53.92 334.031 53.92C333.364 53.92 332.771 54.0733 332.251 54.38C331.731 54.6733 331.324 55.0933 331.031 55.64C330.738 56.1733 330.591 56.7867 330.591 57.48V57.8C330.591 58.5067 330.751 59.14 331.071 59.7C331.404 60.2467 331.864 60.6733 332.451 60.98C333.038 61.2867 333.711 61.44 334.471 61.44C335.098 61.44 335.664 61.3333 336.171 61.12C336.691 60.9067 337.144 60.5867 337.531 60.16L338.591 61.4C338.111 61.96 337.511 62.3867 336.791 62.68C336.084 62.9733 335.291 63.12 334.411 63.12ZM341.937 63V48.16H343.857V63H341.937ZM352.243 63.12C351.11 63.12 350.11 62.8867 349.243 62.42C348.39 61.9533 347.723 61.3133 347.243 60.5C346.776 59.6867 346.543 58.7533 346.543 57.7C346.543 56.6467 346.77 55.7133 347.223 54.9C347.69 54.0867 348.323 53.4533 349.123 53C349.936 52.5333 350.85 52.3 351.863 52.3C352.89 52.3 353.796 52.5267 354.583 52.98C355.37 53.4333 355.983 54.0733 356.423 54.9C356.876 55.7133 357.103 56.6667 357.103 57.76C357.103 57.84 357.096 57.9333 357.083 58.04C357.083 58.1467 357.076 58.2467 357.063 58.34H348.043V56.96H356.063L355.283 57.44C355.296 56.76 355.156 56.1533 354.863 55.62C354.57 55.0867 354.163 54.6733 353.643 54.38C353.136 54.0733 352.543 53.92 351.863 53.92C351.196 53.92 350.603 54.0733 350.083 54.38C349.563 54.6733 349.156 55.0933 348.863 55.64C348.57 56.1733 348.423 56.7867 348.423 57.48V57.8C348.423 58.5067 348.583 59.14 348.903 59.7C349.236 60.2467 349.696 60.6733 350.283 60.98C350.87 61.2867 351.543 61.44 352.303 61.44C352.93 61.44 353.496 61.3333 354.003 61.12C354.523 60.9067 354.976 60.5867 355.363 60.16L356.423 61.4C355.943 61.96 355.343 62.3867 354.623 62.68C353.916 62.9733 353.123 63.12 352.243 63.12ZM362.354 63L357.714 52.4H359.714L363.834 62H362.874L367.074 52.4H368.954L364.314 63H362.354ZM375.173 63.12C374.039 63.12 373.039 62.8867 372.173 62.42C371.319 61.9533 370.653 61.3133 370.173 60.5C369.706 59.6867 369.473 58.7533 369.473 57.7C369.473 56.6467 369.699 55.7133 370.153 54.9C370.619 54.0867 371.253 53.4533 372.053 53C372.866 52.5333 373.779 52.3 374.793 52.3C375.819 52.3 376.726 52.5267 377.513 52.98C378.299 53.4333 378.913 54.0733 379.353 54.9C379.806 55.7133 380.033 56.6667 380.033 57.76C380.033 57.84 380.026 57.9333 380.013 58.04C380.013 58.1467 380.006 58.2467 379.993 58.34H370.973V56.96H378.993L378.213 57.44C378.226 56.76 378.086 56.1533 377.793 55.62C377.499 55.0867 377.093 54.6733 376.573 54.38C376.066 54.0733 375.473 53.92 374.793 53.92C374.126 53.92 373.533 54.0733 373.013 54.38C372.493 54.6733 372.086 55.0933 371.793 55.64C371.499 56.1733 371.353 56.7867 371.353 57.48V57.8C371.353 58.5067 371.513 59.14 371.833 59.7C372.166 60.2467 372.626 60.6733 373.213 60.98C373.799 61.2867 374.473 61.44 375.233 61.44C375.859 61.44 376.426 61.3333 376.933 61.12C377.453 60.9067 377.906 60.5867 378.293 60.16L379.353 61.4C378.873 61.96 378.273 62.3867 377.553 62.68C376.846 62.9733 376.053 63.12 375.173 63.12ZM382.699 63V52.4H384.539V55.28L384.359 54.56C384.652 53.8267 385.146 53.2667 385.839 52.88C386.532 52.4933 387.386 52.3 388.399 52.3V54.16C388.319 54.1467 388.239 54.14 388.159 54.14C388.092 54.14 388.026 54.14 387.959 54.14C386.932 54.14 386.119 54.4467 385.519 55.06C384.919 55.6733 384.619 56.56 384.619 57.72V63H382.699ZM395.048 63.12C394.021 63.12 393.101 62.8933 392.288 62.44C391.488 61.9867 390.854 61.3533 390.388 60.54C389.921 59.7267 389.688 58.78 389.688 57.7C389.688 56.62 389.921 55.68 390.388 54.88C390.854 54.0667 391.488 53.4333 392.288 52.98C393.101 52.5267 394.021 52.3 395.048 52.3C395.941 52.3 396.748 52.5 397.468 52.9C398.188 53.3 398.761 53.9 399.188 54.7C399.628 55.5 399.848 56.5 399.848 57.7C399.848 58.9 399.634 59.9 399.208 60.7C398.794 61.5 398.228 62.1067 397.508 62.52C396.788 62.92 395.968 63.12 395.048 63.12ZM395.208 61.44C395.874 61.44 396.474 61.2867 397.008 60.98C397.554 60.6733 397.981 60.24 398.288 59.68C398.608 59.1067 398.768 58.4467 398.768 57.7C398.768 56.94 398.608 56.2867 398.288 55.74C397.981 55.18 397.554 54.7467 397.008 54.44C396.474 54.1333 395.874 53.98 395.208 53.98C394.528 53.98 393.921 54.1333 393.388 54.44C392.854 54.7467 392.428 55.18 392.108 55.74C391.788 56.2867 391.628 56.94 391.628 57.7C391.628 58.4467 391.788 59.1067 392.108 59.68C392.428 60.24 392.854 60.6733 393.388 60.98C393.921 61.2867 394.528 61.44 395.208 61.44ZM398.828 63V60.14L398.948 57.68L398.748 55.22V48.16H400.668V63H398.828ZM414.392 63.12C413.258 63.12 412.258 62.8867 411.392 62.42C410.538 61.9533 409.872 61.3133 409.392 60.5C408.925 59.6867 408.692 58.7533 408.692 57.7C408.692 56.6467 408.918 55.7133 409.372 54.9C409.838 54.0867 410.472 53.4533 411.272 53C412.085 52.5333 412.998 52.3 414.012 52.3C415.038 52.3 415.945 52.5267 416.732 52.98C417.518 53.4333 418.132 54.0733 418.572 54.9C419.025 55.7133 419.252 56.6667 419.252 57.76C419.252 57.84 419.245 57.9333 419.232 58.04C419.232 58.1467 419.225 58.2467 419.212 58.34H410.192V56.96H418.212L417.432 57.44C417.445 56.76 417.305 56.1533 417.012 55.62C416.718 55.0867 416.312 54.6733 415.792 54.38C415.285 54.0733 414.692 53.92 414.012 53.92C413.345 53.92 412.752 54.0733 412.232 54.38C411.712 54.6733 411.305 55.0933 411.012 55.64C410.718 56.1733 410.572 56.7867 410.572 57.48V57.8C410.572 58.5067 410.732 59.14 411.052 59.7C411.385 60.2467 411.845 60.6733 412.432 60.98C413.018 61.2867 413.692 61.44 414.452 61.44C415.078 61.44 415.645 61.3333 416.152 61.12C416.672 60.9067 417.125 60.5867 417.512 60.16L418.572 61.4C418.092 61.96 417.492 62.3867 416.772 62.68C416.065 62.9733 415.272 63.12 414.392 63.12ZM427.578 52.3C428.444 52.3 429.204 52.4667 429.858 52.8C430.524 53.1333 431.044 53.64 431.418 54.32C431.791 55 431.978 55.86 431.978 56.9V63H430.058V57.12C430.058 56.0933 429.804 55.32 429.298 54.8C428.804 54.28 428.104 54.02 427.198 54.02C426.518 54.02 425.924 54.1533 425.418 54.42C424.911 54.6867 424.518 55.08 424.238 55.6C423.971 56.12 423.838 56.7667 423.838 57.54V63H421.918V52.4H423.758V55.26L423.458 54.5C423.804 53.8067 424.338 53.2667 425.058 52.88C425.778 52.4933 426.618 52.3 427.578 52.3ZM445.542 67C444.569 67 443.622 66.86 442.702 66.58C441.795 66.3133 441.055 65.9267 440.482 65.42L441.402 63.94C441.895 64.3667 442.502 64.7 443.222 64.94C443.942 65.1933 444.695 65.32 445.482 65.32C446.735 65.32 447.655 65.0267 448.242 64.44C448.829 63.8533 449.122 62.96 449.122 61.76V59.52L449.322 57.42L449.222 55.3V52.4H451.042V61.56C451.042 63.4267 450.575 64.8 449.642 65.68C448.709 66.56 447.342 67 445.542 67ZM445.302 62.56C444.275 62.56 443.355 62.3467 442.542 61.92C441.742 61.48 441.102 60.8733 440.622 60.1C440.155 59.3267 439.922 58.4333 439.922 57.42C439.922 56.3933 440.155 55.5 440.622 54.74C441.102 53.9667 441.742 53.3667 442.542 52.94C443.355 52.5133 444.275 52.3 445.302 52.3C446.209 52.3 447.035 52.4867 447.782 52.86C448.529 53.22 449.122 53.78 449.562 54.54C450.015 55.3 450.242 56.26 450.242 57.42C450.242 58.5667 450.015 59.52 449.562 60.28C449.122 61.04 448.529 61.6133 447.782 62C447.035 62.3733 446.209 62.56 445.302 62.56ZM445.522 60.88C446.229 60.88 446.855 60.7333 447.402 60.44C447.949 60.1467 448.375 59.74 448.682 59.22C449.002 58.7 449.162 58.1 449.162 57.42C449.162 56.74 449.002 56.14 448.682 55.62C448.375 55.1 447.949 54.7 447.402 54.42C446.855 54.1267 446.229 53.98 445.522 53.98C444.815 53.98 444.182 54.1267 443.622 54.42C443.075 54.7 442.642 55.1 442.322 55.62C442.015 56.14 441.862 56.74 441.862 57.42C441.862 58.1 442.015 58.7 442.322 59.22C442.642 59.74 443.075 60.1467 443.622 60.44C444.182 60.7333 444.815 60.88 445.522 60.88ZM459.431 63.12C458.297 63.12 457.297 62.8867 456.431 62.42C455.577 61.9533 454.911 61.3133 454.431 60.5C453.964 59.6867 453.731 58.7533 453.731 57.7C453.731 56.6467 453.957 55.7133 454.411 54.9C454.877 54.0867 455.511 53.4533 456.311 53C457.124 52.5333 458.037 52.3 459.051 52.3C460.077 52.3 460.984 52.5267 461.771 52.98C462.557 53.4333 463.171 54.0733 463.611 54.9C464.064 55.7133 464.291 56.6667 464.291 57.76C464.291 57.84 464.284 57.9333 464.271 58.04C464.271 58.1467 464.264 58.2467 464.251 58.34H455.231V56.96H463.251L462.471 57.44C462.484 56.76 462.344 56.1533 462.051 55.62C461.757 55.0867 461.351 54.6733 460.831 54.38C460.324 54.0733 459.731 53.92 459.051 53.92C458.384 53.92 457.791 54.0733 457.271 54.38C456.751 54.6733 456.344 55.0933 456.051 55.64C455.757 56.1733 455.611 56.7867 455.611 57.48V57.8C455.611 58.5067 455.771 59.14 456.091 59.7C456.424 60.2467 456.884 60.6733 457.471 60.98C458.057 61.2867 458.731 61.44 459.491 61.44C460.117 61.44 460.684 61.3333 461.191 61.12C461.711 60.9067 462.164 60.5867 462.551 60.16L463.611 61.4C463.131 61.96 462.531 62.3867 461.811 62.68C461.104 62.9733 460.311 63.12 459.431 63.12ZM471.337 63.12C470.31 63.12 469.39 62.8933 468.577 62.44C467.777 61.9867 467.143 61.3533 466.677 60.54C466.21 59.7267 465.977 58.78 465.977 57.7C465.977 56.62 466.21 55.68 466.677 54.88C467.143 54.0667 467.777 53.4333 468.577 52.98C469.39 52.5267 470.31 52.3 471.337 52.3C472.23 52.3 473.037 52.5 473.757 52.9C474.477 53.3 475.05 53.9 475.477 54.7C475.917 55.5 476.137 56.5 476.137 57.7C476.137 58.9 475.923 59.9 475.497 60.7C475.083 61.5 474.517 62.1067 473.797 62.52C473.077 62.92 472.257 63.12 471.337 63.12ZM471.497 61.44C472.163 61.44 472.763 61.2867 473.297 60.98C473.843 60.6733 474.27 60.24 474.577 59.68C474.897 59.1067 475.057 58.4467 475.057 57.7C475.057 56.94 474.897 56.2867 474.577 55.74C474.27 55.18 473.843 54.7467 473.297 54.44C472.763 54.1333 472.163 53.98 471.497 53.98C470.817 53.98 470.21 54.1333 469.677 54.44C469.143 54.7467 468.717 55.18 468.397 55.74C468.077 56.2867 467.917 56.94 467.917 57.7C467.917 58.4467 468.077 59.1067 468.397 59.68C468.717 60.24 469.143 60.6733 469.677 60.98C470.21 61.2867 470.817 61.44 471.497 61.44ZM475.117 63V60.14L475.237 57.68L475.037 55.22V48.16H476.957V63H475.117ZM485.13 63.12C484.063 63.12 483.116 62.8867 482.29 62.42C481.463 61.9533 480.81 61.3133 480.33 60.5C479.85 59.6733 479.61 58.74 479.61 57.7C479.61 56.6467 479.85 55.7133 480.33 54.9C480.81 54.0867 481.463 53.4533 482.29 53C483.116 52.5333 484.063 52.3 485.13 52.3C486.183 52.3 487.123 52.5333 487.95 53C488.79 53.4533 489.443 54.0867 489.91 54.9C490.39 55.7 490.63 56.6333 490.63 57.7C490.63 58.7533 490.39 59.6867 489.91 60.5C489.443 61.3133 488.79 61.9533 487.95 62.42C487.123 62.8867 486.183 63.12 485.13 63.12ZM485.13 61.44C485.81 61.44 486.416 61.2867 486.95 60.98C487.496 60.6733 487.923 60.24 488.23 59.68C488.536 59.1067 488.69 58.4467 488.69 57.7C488.69 56.94 488.536 56.2867 488.23 55.74C487.923 55.18 487.496 54.7467 486.95 54.44C486.416 54.1333 485.81 53.98 485.13 53.98C484.45 53.98 483.843 54.1333 483.31 54.44C482.776 54.7467 482.35 55.18 482.03 55.74C481.71 56.2867 481.55 56.94 481.55 57.7C481.55 58.4467 481.71 59.1067 482.03 59.68C482.35 60.24 482.776 60.6733 483.31 60.98C483.843 61.2867 484.45 61.44 485.13 61.44ZM498.945 52.3C499.812 52.3 500.572 52.4667 501.225 52.8C501.892 53.1333 502.412 53.64 502.785 54.32C503.158 55 503.345 55.86 503.345 56.9V63H501.425V57.12C501.425 56.0933 501.172 55.32 500.665 54.8C500.172 54.28 499.472 54.02 498.565 54.02C497.885 54.02 497.292 54.1533 496.785 54.42C496.278 54.6867 495.885 55.08 495.605 55.6C495.338 56.12 495.205 56.7667 495.205 57.54V63H493.285V52.4H495.125V55.26L494.825 54.5C495.172 53.8067 495.705 53.2667 496.425 52.88C497.145 52.4933 497.985 52.3 498.945 52.3ZM511.618 63.12C510.485 63.12 509.485 62.8867 508.618 62.42C507.765 61.9533 507.098 61.3133 506.618 60.5C506.151 59.6867 505.918 58.7533 505.918 57.7C505.918 56.6467 506.145 55.7133 506.598 54.9C507.065 54.0867 507.698 53.4533 508.498 53C509.311 52.5333 510.225 52.3 511.238 52.3C512.265 52.3 513.171 52.5267 513.958 52.98C514.745 53.4333 515.358 54.0733 515.798 54.9C516.251 55.7133 516.478 56.6667 516.478 57.76C516.478 57.84 516.471 57.9333 516.458 58.04C516.458 58.1467 516.451 58.2467 516.438 58.34H507.418V56.96H515.438L514.658 57.44C514.671 56.76 514.531 56.1533 514.238 55.62C513.945 55.0867 513.538 54.6733 513.018 54.38C512.511 54.0733 511.918 53.92 511.238 53.92C510.571 53.92 509.978 54.0733 509.458 54.38C508.938 54.6733 508.531 55.0933 508.238 55.64C507.945 56.1733 507.798 56.7867 507.798 57.48V57.8C507.798 58.5067 507.958 59.14 508.278 59.7C508.611 60.2467 509.071 60.6733 509.658 60.98C510.245 61.2867 510.918 61.44 511.678 61.44C512.305 61.44 512.871 61.3333 513.378 61.12C513.898 60.9067 514.351 60.5867 514.738 60.16L515.798 61.4C515.318 61.96 514.718 62.3867 513.998 62.68C513.291 62.9733 512.498 63.12 511.618 63.12ZM523.864 63.12C522.731 63.12 521.731 62.8867 520.864 62.42C520.011 61.9533 519.344 61.3133 518.864 60.5C518.398 59.6867 518.164 58.7533 518.164 57.7C518.164 56.6467 518.391 55.7133 518.844 54.9C519.311 54.0867 519.944 53.4533 520.744 53C521.558 52.5333 522.471 52.3 523.484 52.3C524.511 52.3 525.418 52.5267 526.204 52.98C526.991 53.4333 527.604 54.0733 528.044 54.9C528.498 55.7133 528.724 56.6667 528.724 57.76C528.724 57.84 528.718 57.9333 528.704 58.04C528.704 58.1467 528.698 58.2467 528.684 58.34H519.664V56.96H527.684L526.904 57.44C526.918 56.76 526.778 56.1533 526.484 55.62C526.191 55.0867 525.784 54.6733 525.264 54.38C524.758 54.0733 524.164 53.92 523.484 53.92C522.818 53.92 522.224 54.0733 521.704 54.38C521.184 54.6733 520.778 55.0933 520.484 55.64C520.191 56.1733 520.044 56.7867 520.044 57.48V57.8C520.044 58.5067 520.204 59.14 520.524 59.7C520.858 60.2467 521.318 60.6733 521.904 60.98C522.491 61.2867 523.164 61.44 523.924 61.44C524.551 61.44 525.118 61.3333 525.624 61.12C526.144 60.9067 526.598 60.5867 526.984 60.16L528.044 61.4C527.564 61.96 526.964 62.3867 526.244 62.68C525.538 62.9733 524.744 63.12 523.864 63.12ZM531.39 63V52.4H533.23V55.28L533.05 54.56C533.344 53.8267 533.837 53.2667 534.53 52.88C535.224 52.4933 536.077 52.3 537.09 52.3V54.16C537.01 54.1467 536.93 54.14 536.85 54.14C536.784 54.14 536.717 54.14 536.65 54.14C535.624 54.14 534.81 54.4467 534.21 55.06C533.61 55.6733 533.31 56.56 533.31 57.72V63H531.39ZM543.739 63.12C542.712 63.12 541.792 62.8933 540.979 62.44C540.179 61.9867 539.546 61.3533 539.079 60.54C538.612 59.7267 538.379 58.78 538.379 57.7C538.379 56.62 538.612 55.68 539.079 54.88C539.546 54.0667 540.179 53.4333 540.979 52.98C541.792 52.5267 542.712 52.3 543.739 52.3C544.632 52.3 545.439 52.5 546.159 52.9C546.879 53.3 547.452 53.9 547.879 54.7C548.319 55.5 548.539 56.5 548.539 57.7C548.539 58.9 548.326 59.9 547.899 60.7C547.486 61.5 546.919 62.1067 546.199 62.52C545.479 62.92 544.659 63.12 543.739 63.12ZM543.899 61.44C544.566 61.44 545.166 61.2867 545.699 60.98C546.246 60.6733 546.672 60.24 546.979 59.68C547.299 59.1067 547.459 58.4467 547.459 57.7C547.459 56.94 547.299 56.2867 546.979 55.74C546.672 55.18 546.246 54.7467 545.699 54.44C545.166 54.1333 544.566 53.98 543.899 53.98C543.219 53.98 542.612 54.1333 542.079 54.44C541.546 54.7467 541.119 55.18 540.799 55.74C540.479 56.2867 540.319 56.94 540.319 57.7C540.319 58.4467 540.479 59.1067 540.799 59.68C541.119 60.24 541.546 60.6733 542.079 60.98C542.612 61.2867 543.219 61.44 543.899 61.44ZM547.519 63V60.14L547.639 57.68L547.439 55.22V48.16H549.359V63H547.519ZM563.083 63.12C561.95 63.12 560.95 62.8867 560.083 62.42C559.23 61.9533 558.563 61.3133 558.083 60.5C557.616 59.6867 557.383 58.7533 557.383 57.7C557.383 56.6467 557.61 55.7133 558.063 54.9C558.53 54.0867 559.163 53.4533 559.963 53C560.776 52.5333 561.69 52.3 562.703 52.3C563.73 52.3 564.636 52.5267 565.423 52.98C566.21 53.4333 566.823 54.0733 567.263 54.9C567.716 55.7133 567.943 56.6667 567.943 57.76C567.943 57.84 567.936 57.9333 567.923 58.04C567.923 58.1467 567.916 58.2467 567.903 58.34H558.883V56.96H566.903L566.123 57.44C566.136 56.76 565.996 56.1533 565.703 55.62C565.41 55.0867 565.003 54.6733 564.483 54.38C563.976 54.0733 563.383 53.92 562.703 53.92C562.036 53.92 561.443 54.0733 560.923 54.38C560.403 54.6733 559.996 55.0933 559.703 55.64C559.41 56.1733 559.263 56.7867 559.263 57.48V57.8C559.263 58.5067 559.423 59.14 559.743 59.7C560.076 60.2467 560.536 60.6733 561.123 60.98C561.71 61.2867 562.383 61.44 563.143 61.44C563.77 61.44 564.336 61.3333 564.843 61.12C565.363 60.9067 565.816 60.5867 566.203 60.16L567.263 61.4C566.783 61.96 566.183 62.3867 565.463 62.68C564.756 62.9733 563.963 63.12 563.083 63.12ZM576.269 52.3C577.136 52.3 577.896 52.4667 578.549 52.8C579.216 53.1333 579.736 53.64 580.109 54.32C580.482 55 580.669 55.86 580.669 56.9V63H578.749V57.12C578.749 56.0933 578.496 55.32 577.989 54.8C577.496 54.28 576.796 54.02 575.889 54.02C575.209 54.02 574.616 54.1533 574.109 54.42C573.602 54.6867 573.209 55.08 572.929 55.6C572.662 56.12 572.529 56.7667 572.529 57.54V63H570.609V52.4H572.449V55.26L572.149 54.5C572.496 53.8067 573.029 53.2667 573.749 52.88C574.469 52.4933 575.309 52.3 576.269 52.3ZM595.253 52.3C596.12 52.3 596.88 52.4667 597.533 52.8C598.2 53.1333 598.72 53.64 599.093 54.32C599.467 55 599.653 55.86 599.653 56.9V63H597.733V57.12C597.733 56.0933 597.48 55.32 596.973 54.8C596.48 54.28 595.78 54.02 594.873 54.02C594.193 54.02 593.6 54.1533 593.093 54.42C592.587 54.6867 592.193 55.08 591.913 55.6C591.647 56.12 591.513 56.7667 591.513 57.54V63H589.593V48.16H591.513V55.26L591.133 54.5C591.48 53.8067 592.013 53.2667 592.733 52.88C593.453 52.4933 594.293 52.3 595.253 52.3ZM607.747 63.12C606.68 63.12 605.733 62.8867 604.907 62.42C604.08 61.9533 603.427 61.3133 602.947 60.5C602.467 59.6733 602.227 58.74 602.227 57.7C602.227 56.6467 602.467 55.7133 602.947 54.9C603.427 54.0867 604.08 53.4533 604.907 53C605.733 52.5333 606.68 52.3 607.747 52.3C608.8 52.3 609.74 52.5333 610.567 53C611.407 53.4533 612.06 54.0867 612.527 54.9C613.007 55.7 613.247 56.6333 613.247 57.7C613.247 58.7533 613.007 59.6867 612.527 60.5C612.06 61.3133 611.407 61.9533 610.567 62.42C609.74 62.8867 608.8 63.12 607.747 63.12ZM607.747 61.44C608.427 61.44 609.033 61.2867 609.567 60.98C610.113 60.6733 610.54 60.24 610.847 59.68C611.153 59.1067 611.307 58.4467 611.307 57.7C611.307 56.94 611.153 56.2867 610.847 55.74C610.54 55.18 610.113 54.7467 609.567 54.44C609.033 54.1333 608.427 53.98 607.747 53.98C607.067 53.98 606.46 54.1333 605.927 54.44C605.393 54.7467 604.967 55.18 604.647 55.74C604.327 56.2867 604.167 56.94 604.167 57.7C604.167 58.4467 604.327 59.1067 604.647 59.68C604.967 60.24 605.393 60.6733 605.927 60.98C606.46 61.2867 607.067 61.44 607.747 61.44ZM620.622 63.12C619.489 63.12 618.489 62.8867 617.622 62.42C616.769 61.9533 616.102 61.3133 615.622 60.5C615.155 59.6867 614.922 58.7533 614.922 57.7C614.922 56.6467 615.149 55.7133 615.602 54.9C616.069 54.0867 616.702 53.4533 617.502 53C618.315 52.5333 619.229 52.3 620.242 52.3C621.269 52.3 622.175 52.5267 622.962 52.98C623.749 53.4333 624.362 54.0733 624.802 54.9C625.255 55.7133 625.482 56.6667 625.482 57.76C625.482 57.84 625.475 57.9333 625.462 58.04C625.462 58.1467 625.455 58.2467 625.442 58.34H616.422V56.96H624.442L623.662 57.44C623.675 56.76 623.535 56.1533 623.242 55.62C622.949 55.0867 622.542 54.6733 622.022 54.38C621.515 54.0733 620.922 53.92 620.242 53.92C619.575 53.92 618.982 54.0733 618.462 54.38C617.942 54.6733 617.535 55.0933 617.242 55.64C616.949 56.1733 616.802 56.7867 616.802 57.48V57.8C616.802 58.5067 616.962 59.14 617.282 59.7C617.615 60.2467 618.075 60.6733 618.662 60.98C619.249 61.2867 619.922 61.44 620.682 61.44C621.309 61.44 621.875 61.3333 622.382 61.12C622.902 60.9067 623.355 60.5867 623.742 60.16L624.802 61.4C624.322 61.96 623.722 62.3867 623.002 62.68C622.295 62.9733 621.502 63.12 620.622 63.12ZM630.733 63L626.093 52.4H628.093L632.213 62H631.253L635.453 52.4H637.333L632.693 63H630.733ZM643.552 63.12C642.418 63.12 641.418 62.8867 640.552 62.42C639.698 61.9533 639.032 61.3133 638.552 60.5C638.085 59.6867 637.852 58.7533 637.852 57.7C637.852 56.6467 638.078 55.7133 638.532 54.9C638.998 54.0867 639.632 53.4533 640.432 53C641.245 52.5333 642.158 52.3 643.172 52.3C644.198 52.3 645.105 52.5267 645.892 52.98C646.678 53.4333 647.292 54.0733 647.732 54.9C648.185 55.7133 648.412 56.6667 648.412 57.76C648.412 57.84 648.405 57.9333 648.392 58.04C648.392 58.1467 648.385 58.2467 648.372 58.34H639.352V56.96H647.372L646.592 57.44C646.605 56.76 646.465 56.1533 646.172 55.62C645.878 55.0867 645.472 54.6733 644.952 54.38C644.445 54.0733 643.852 53.92 643.172 53.92C642.505 53.92 641.912 54.0733 641.392 54.38C640.872 54.6733 640.465 55.0933 640.172 55.64C639.878 56.1733 639.732 56.7867 639.732 57.48V57.8C639.732 58.5067 639.892 59.14 640.212 59.7C640.545 60.2467 641.005 60.6733 641.592 60.98C642.178 61.2867 642.852 61.44 643.612 61.44C644.238 61.44 644.805 61.3333 645.312 61.12C645.832 60.9067 646.285 60.5867 646.672 60.16L647.732 61.4C647.252 61.96 646.652 62.3867 645.932 62.68C645.225 62.9733 644.432 63.12 643.552 63.12ZM655.798 63.12C654.664 63.12 653.664 62.8867 652.798 62.42C651.944 61.9533 651.278 61.3133 650.798 60.5C650.331 59.6867 650.098 58.7533 650.098 57.7C650.098 56.6467 650.324 55.7133 650.778 54.9C651.244 54.0867 651.878 53.4533 652.678 53C653.491 52.5333 654.404 52.3 655.418 52.3C656.444 52.3 657.351 52.5267 658.138 52.98C658.924 53.4333 659.538 54.0733 659.978 54.9C660.431 55.7133 660.658 56.6667 660.658 57.76C660.658 57.84 660.651 57.9333 660.638 58.04C660.638 58.1467 660.631 58.2467 660.618 58.34H651.598V56.96H659.618L658.838 57.44C658.851 56.76 658.711 56.1533 658.418 55.62C658.124 55.0867 657.718 54.6733 657.198 54.38C656.691 54.0733 656.098 53.92 655.418 53.92C654.751 53.92 654.158 54.0733 653.638 54.38C653.118 54.6733 652.711 55.0933 652.418 55.64C652.124 56.1733 651.978 56.7867 651.978 57.48V57.8C651.978 58.5067 652.138 59.14 652.458 59.7C652.791 60.2467 653.251 60.6733 653.838 60.98C654.424 61.2867 655.098 61.44 655.858 61.44C656.484 61.44 657.051 61.3333 657.558 61.12C658.078 60.9067 658.531 60.5867 658.918 60.16L659.978 61.4C659.498 61.96 658.898 62.3867 658.178 62.68C657.471 62.9733 656.678 63.12 655.798 63.12ZM663.324 63V48.16H665.244V63H663.324ZM674.281 63V52.4H676.201V63H674.281ZM675.241 50.36C674.868 50.36 674.554 50.24 674.301 50C674.061 49.76 673.941 49.4667 673.941 49.12C673.941 48.76 674.061 48.46 674.301 48.22C674.554 47.98 674.868 47.86 675.241 47.86C675.614 47.86 675.921 47.98 676.161 48.22C676.414 48.4467 676.541 48.7333 676.541 49.08C676.541 49.44 676.421 49.7467 676.181 50C675.941 50.24 675.628 50.36 675.241 50.36ZM682.907 63.12C682.027 63.12 681.187 63 680.387 62.76C679.6 62.52 678.98 62.2267 678.527 61.88L679.327 60.36C679.78 60.6667 680.34 60.9267 681.007 61.14C681.674 61.3533 682.354 61.46 683.047 61.46C683.94 61.46 684.58 61.3333 684.967 61.08C685.367 60.8267 685.567 60.4733 685.567 60.02C685.567 59.6867 685.447 59.4267 685.207 59.24C684.967 59.0533 684.647 58.9133 684.247 58.82C683.86 58.7267 683.427 58.6467 682.947 58.58C682.467 58.5 681.987 58.4067 681.507 58.3C681.027 58.18 680.587 58.02 680.187 57.82C679.787 57.6067 679.467 57.32 679.227 56.96C678.987 56.5867 678.867 56.0933 678.867 55.48C678.867 54.84 679.047 54.28 679.407 53.8C679.767 53.32 680.274 52.9533 680.927 52.7C681.594 52.4333 682.38 52.3 683.287 52.3C683.98 52.3 684.68 52.3867 685.387 52.56C686.107 52.72 686.694 52.9533 687.147 53.26L686.327 54.78C685.847 54.46 685.347 54.24 684.827 54.12C684.307 54 683.787 53.94 683.267 53.94C682.427 53.94 681.8 54.08 681.387 54.36C680.974 54.6267 680.767 54.9733 680.767 55.4C680.767 55.76 680.887 56.04 681.127 56.24C681.38 56.4267 681.7 56.5733 682.087 56.68C682.487 56.7867 682.927 56.88 683.407 56.96C683.887 57.0267 684.367 57.12 684.847 57.24C685.327 57.3467 685.76 57.5 686.147 57.7C686.547 57.9 686.867 58.18 687.107 58.54C687.36 58.9 687.487 59.38 687.487 59.98C687.487 60.62 687.3 61.1733 686.927 61.64C686.554 62.1067 686.027 62.4733 685.347 62.74C684.667 62.9933 683.854 63.12 682.907 63.12ZM700.918 52.3C701.784 52.3 702.544 52.4667 703.198 52.8C703.864 53.1333 704.384 53.64 704.758 54.32C705.131 55 705.318 55.86 705.318 56.9V63H703.398V57.12C703.398 56.0933 703.144 55.32 702.638 54.8C702.144 54.28 701.444 54.02 700.538 54.02C699.858 54.02 699.264 54.1533 698.758 54.42C698.251 54.6867 697.858 55.08 697.578 55.6C697.311 56.12 697.178 56.7667 697.178 57.54V63H695.258V48.16H697.178V55.26L696.798 54.5C697.144 53.8067 697.678 53.2667 698.398 52.88C699.118 52.4933 699.958 52.3 700.918 52.3ZM713.591 63.12C712.457 63.12 711.457 62.8867 710.591 62.42C709.737 61.9533 709.071 61.3133 708.591 60.5C708.124 59.6867 707.891 58.7533 707.891 57.7C707.891 56.6467 708.117 55.7133 708.571 54.9C709.037 54.0867 709.671 53.4533 710.471 53C711.284 52.5333 712.197 52.3 713.211 52.3C714.237 52.3 715.144 52.5267 715.931 52.98C716.717 53.4333 717.331 54.0733 717.771 54.9C718.224 55.7133 718.451 56.6667 718.451 57.76C718.451 57.84 718.444 57.9333 718.431 58.04C718.431 58.1467 718.424 58.2467 718.411 58.34H709.391V56.96H717.411L716.631 57.44C716.644 56.76 716.504 56.1533 716.211 55.62C715.917 55.0867 715.511 54.6733 714.991 54.38C714.484 54.0733 713.891 53.92 713.211 53.92C712.544 53.92 711.951 54.0733 711.431 54.38C710.911 54.6733 710.504 55.0933 710.211 55.64C709.917 56.1733 709.771 56.7867 709.771 57.48V57.8C709.771 58.5067 709.931 59.14 710.251 59.7C710.584 60.2467 711.044 60.6733 711.631 60.98C712.217 61.2867 712.891 61.44 713.651 61.44C714.277 61.44 714.844 61.3333 715.351 61.12C715.871 60.9067 716.324 60.5867 716.711 60.16L717.771 61.4C717.291 61.96 716.691 62.3867 715.971 62.68C715.264 62.9733 714.471 63.12 713.591 63.12ZM724.757 63.12C723.69 63.12 722.864 62.8333 722.277 62.26C721.69 61.6867 721.397 60.8667 721.397 59.8V50.08H723.317V59.72C723.317 60.2933 723.457 60.7333 723.737 61.04C724.03 61.3467 724.444 61.5 724.977 61.5C725.577 61.5 726.077 61.3333 726.477 61L727.077 62.38C726.784 62.6333 726.43 62.82 726.017 62.94C725.617 63.06 725.197 63.12 724.757 63.12ZM719.597 53.98V52.4H726.357V53.98H719.597ZM366.746 87L362.806 76.4H364.626L368.126 86H367.266L370.906 76.4H372.526L376.086 86H375.246L378.826 76.4H380.546L376.586 87H374.746L371.406 78.24H371.966L368.586 87H366.746ZM388.742 87V84.76L388.642 84.34V80.52C388.642 79.7067 388.402 79.08 387.922 78.64C387.455 78.1867 386.748 77.96 385.802 77.96C385.175 77.96 384.562 78.0667 383.962 78.28C383.362 78.48 382.855 78.7533 382.442 79.1L381.642 77.66C382.188 77.22 382.842 76.8867 383.602 76.66C384.375 76.42 385.182 76.3 386.022 76.3C387.475 76.3 388.595 76.6533 389.382 77.36C390.168 78.0667 390.562 79.1467 390.562 80.6V87H388.742ZM385.262 87.12C384.475 87.12 383.782 86.9867 383.182 86.72C382.595 86.4533 382.142 86.0867 381.822 85.62C381.502 85.14 381.342 84.6 381.342 84C381.342 83.4267 381.475 82.9067 381.742 82.44C382.022 81.9733 382.468 81.6 383.082 81.32C383.708 81.04 384.548 80.9 385.602 80.9H388.962V82.28H385.682C384.722 82.28 384.075 82.44 383.742 82.76C383.408 83.08 383.242 83.4667 383.242 83.92C383.242 84.44 383.448 84.86 383.862 85.18C384.275 85.4867 384.848 85.64 385.582 85.64C386.302 85.64 386.928 85.48 387.462 85.16C388.008 84.84 388.402 84.3733 388.642 83.76L389.022 85.08C388.768 85.7067 388.322 86.2067 387.682 86.58C387.042 86.94 386.235 87.12 385.262 87.12ZM400.695 87V84.76L400.595 84.34V80.52C400.595 79.7067 400.355 79.08 399.875 78.64C399.408 78.1867 398.702 77.96 397.755 77.96C397.128 77.96 396.515 78.0667 395.915 78.28C395.315 78.48 394.808 78.7533 394.395 79.1L393.595 77.66C394.142 77.22 394.795 76.8867 395.555 76.66C396.328 76.42 397.135 76.3 397.975 76.3C399.428 76.3 400.548 76.6533 401.335 77.36C402.122 78.0667 402.515 79.1467 402.515 80.6V87H400.695ZM397.215 87.12C396.428 87.12 395.735 86.9867 395.135 86.72C394.548 86.4533 394.095 86.0867 393.775 85.62C393.455 85.14 393.295 84.6 393.295 84C393.295 83.4267 393.428 82.9067 393.695 82.44C393.975 81.9733 394.422 81.6 395.035 81.32C395.662 81.04 396.502 80.9 397.555 80.9H400.915V82.28H397.635C396.675 82.28 396.028 82.44 395.695 82.76C395.362 83.08 395.195 83.4667 395.195 83.92C395.195 84.44 395.402 84.86 395.815 85.18C396.228 85.4867 396.802 85.64 397.535 85.64C398.255 85.64 398.882 85.48 399.415 85.16C399.962 84.84 400.355 84.3733 400.595 83.76L400.975 85.08C400.722 85.7067 400.275 86.2067 399.635 86.58C398.995 86.94 398.188 87.12 397.215 87.12ZM406.068 87V76.4H407.908V79.28L407.728 78.56C408.021 77.8267 408.515 77.2667 409.208 76.88C409.901 76.4933 410.755 76.3 411.768 76.3V78.16C411.688 78.1467 411.608 78.14 411.528 78.14C411.461 78.14 411.395 78.14 411.328 78.14C410.301 78.14 409.488 78.4467 408.888 79.06C408.288 79.6733 407.988 80.56 407.988 81.72V87H406.068ZM418.417 87.12C417.39 87.12 416.47 86.8933 415.657 86.44C414.857 85.9867 414.223 85.3533 413.757 84.54C413.29 83.7267 413.057 82.78 413.057 81.7C413.057 80.62 413.29 79.68 413.757 78.88C414.223 78.0667 414.857 77.4333 415.657 76.98C416.47 76.5267 417.39 76.3 418.417 76.3C419.31 76.3 420.117 76.5 420.837 76.9C421.557 77.3 422.13 77.9 422.557 78.7C422.997 79.5 423.217 80.5 423.217 81.7C423.217 82.9 423.003 83.9 422.577 84.7C422.163 85.5 421.597 86.1067 420.877 86.52C420.157 86.92 419.337 87.12 418.417 87.12ZM418.577 85.44C419.243 85.44 419.843 85.2867 420.377 84.98C420.923 84.6733 421.35 84.24 421.657 83.68C421.977 83.1067 422.137 82.4467 422.137 81.7C422.137 80.94 421.977 80.2867 421.657 79.74C421.35 79.18 420.923 78.7467 420.377 78.44C419.843 78.1333 419.243 77.98 418.577 77.98C417.897 77.98 417.29 78.1333 416.757 78.44C416.223 78.7467 415.797 79.18 415.477 79.74C415.157 80.2867 414.997 80.94 414.997 81.7C414.997 82.4467 415.157 83.1067 415.477 83.68C415.797 84.24 416.223 84.6733 416.757 84.98C417.29 85.2867 417.897 85.44 418.577 85.44ZM422.197 87V84.14L422.317 81.68L422.117 79.22V72.16H424.037V87H422.197ZM430.41 82.58C430.41 82.06 430.496 81.6067 430.67 81.22C430.843 80.8333 431.056 80.4867 431.31 80.18C431.576 79.8733 431.863 79.5933 432.17 79.34C432.476 79.0733 432.763 78.8133 433.03 78.56C433.296 78.2933 433.51 78.0133 433.67 77.72C433.843 77.4267 433.93 77.0867 433.93 76.7C433.93 76.06 433.676 75.54 433.17 75.14C432.663 74.74 431.963 74.54 431.07 74.54C430.27 74.54 429.576 74.6733 428.99 74.94C428.403 75.2067 427.903 75.6 427.49 76.12L426.03 75.08C426.59 74.3733 427.303 73.8267 428.17 73.44C429.036 73.04 430.05 72.84 431.21 72.84C432.17 72.84 433.003 72.9867 433.71 73.28C434.416 73.56 434.963 73.9667 435.35 74.5C435.75 75.02 435.95 75.6533 435.95 76.4C435.95 76.96 435.863 77.44 435.69 77.84C435.516 78.24 435.296 78.5933 435.03 78.9C434.763 79.2067 434.476 79.4933 434.17 79.76C433.876 80.0267 433.596 80.2933 433.33 80.56C433.063 80.8267 432.843 81.12 432.67 81.44C432.496 81.76 432.41 82.14 432.41 82.58H430.41ZM431.43 87.12C431.056 87.12 430.743 86.9933 430.49 86.74C430.25 86.4867 430.13 86.1867 430.13 85.84C430.13 85.4667 430.25 85.16 430.49 84.92C430.743 84.68 431.056 84.56 431.43 84.56C431.803 84.56 432.11 84.68 432.35 84.92C432.59 85.16 432.71 85.4667 432.71 85.84C432.71 86.1867 432.59 86.4867 432.35 86.74C432.11 86.9933 431.803 87.12 431.43 87.12Z" fill="#CBFFB4"/>
</svg>
