<svg width="158" height="153" viewBox="0 0 158 153" fill="none" xmlns="http://www.w3.org/2000/svg">
<path d="M148.567 61.9425V12.7249C148.567 10.3631 146.634 8.43307 144.211 8.43307H13.7885C11.3915 8.43307 9.43262 10.3376 9.43262 12.7249V61.968C9.43262 64.3298 11.3656 66.2598 13.7885 66.2598H144.211C146.634 66.2343 148.567 64.3298 148.567 61.9425Z" fill="white"/>
<path d="M114.597 83.126H64.8693C57.7058 83.126 51.8449 88.74 51.8449 95.6571C51.8449 102.574 57.68 108.188 64.8693 108.188H86.646C89.4851 108.188 91.8036 110.394 91.8036 113.151C91.8036 115.882 89.5113 118.113 86.646 118.113H61.4568C57.9403 118.113 54.5539 116.885 51.9489 114.679L21.8365 88.2384C17.0435 84.1281 8.75981 83.6017 3.23747 89.4162C-1.24286 94.3789 -1.06032 101.697 3.7065 106.434L43.7438 146.158C48.0678 150.494 54.1635 153 60.389 153H122.88C125.303 153 127.282 151.12 127.282 148.765C127.282 146.434 125.329 144.529 122.88 144.529H60.4147C56.5336 144.529 52.7564 143 50.0732 140.294L10.0101 100.519C8.44713 98.9652 8.39515 96.5593 9.8538 94.905C11.547 93.1255 13.8655 93.0255 15.9233 94.4789L46.0357 120.895C50.2815 124.529 55.7519 126.534 61.4044 126.534H86.5936C94.2781 126.534 100.53 120.519 100.53 113.125C100.53 105.731 94.2781 99.7166 86.5936 99.7166H64.8169C62.4726 99.7166 60.5711 97.8871 60.5711 95.6315C60.5711 93.376 62.4726 91.5465 64.8169 91.5465H114.544C121.447 91.5465 127.986 94.3285 132.518 99.1905C139.499 106.709 148.043 119.716 149.215 138.965C149.345 141.295 151.429 143.1 153.852 142.95C156.274 142.824 158.124 140.819 157.994 138.489C156.691 116.76 147.001 102.073 139.056 93.5516C132.935 86.9606 124 83.126 114.597 83.126Z" fill="#447F00"/>
<path d="M79.0001 63.8504C92.0241 63.8504 102.582 51.9842 102.582 37.3465C102.582 22.7087 92.0241 10.8425 79.0001 10.8425C65.976 10.8425 55.418 22.7087 55.418 37.3465C55.418 51.9842 65.976 63.8504 79.0001 63.8504Z" fill="white"/>
<path d="M132.831 99.1419C128.337 94.3188 121.815 91.5591 114.904 91.5591H65.3323C62.9941 91.5591 61.0975 93.3739 61.0975 95.6114C61.0975 97.8489 62.9941 99.6638 65.3323 99.6638H87.0525C94.717 99.6638 100.952 105.631 100.952 112.965C100.952 120.299 94.717 126.266 87.0525 126.266H61.9286C56.2647 126.266 50.8085 124.277 46.5999 120.672L16.5396 94.468C15.7342 93.747 14.6169 93.4239 13.4739 93.4985C12.3309 93.5731 11.2655 94.0704 10.4862 94.8907C9.03131 96.5067 9.08315 98.8934 10.6421 100.46L50.6012 139.916C53.3031 142.601 57.0705 144.117 60.9159 144.117H123.245C125.168 144.117 126.778 145.311 127.376 146.976L149.746 139.767C149.616 139.419 149.538 139.045 149.486 138.673C148.342 119.504 139.795 106.6 132.831 99.1419Z" fill="#FFE28C"/>
<path d="M144.834 0H13.1666C5.90689 0 0 5.7457 0 12.8073V61.8856C0 68.9472 5.90689 74.6929 13.1666 74.6929H144.833C152.093 74.6929 158 68.9472 158 61.8856V12.8073C158 5.7457 152.094 0 144.834 0ZM149.231 61.8601C149.231 64.214 147.28 66.1376 144.834 66.1376H13.1666C10.7467 66.1376 8.76917 64.2395 8.76917 61.8601V12.8073C8.76917 10.4535 10.7206 8.52987 13.1666 8.52987H144.833C147.253 8.52987 149.231 10.428 149.231 12.8073V61.8856V61.8601H149.231Z" fill="#447F00"/>
<path d="M133.829 28.9134C131.558 28.9134 129.702 30.7866 129.702 33.1347V40.3535C129.702 42.6765 131.533 44.5748 133.829 44.5748C136.1 44.5748 137.955 42.7016 137.955 40.3535V33.1347C137.955 30.787 136.1 28.9134 133.829 28.9134Z" fill="#447F00"/>
<path d="M24.1718 28.9134C21.9008 28.9134 20.0449 30.7866 20.0449 33.1347V40.3535C20.0449 42.6765 21.8762 44.5748 24.1718 44.5748C26.4673 44.5748 28.2987 42.7016 28.2987 40.3535V33.1347C28.2741 30.787 26.4428 28.9134 24.1718 28.9134Z" fill="#447F00"/>
<path d="M77.0722 26.406H89.943C92.3562 26.406 94.3282 24.5069 94.3282 22.1263C94.3282 19.7457 92.3822 17.8465 89.943 17.8465H85.9467V16.327C85.9467 13.9718 84.0007 12.0472 81.5614 12.0472C79.1222 12.0472 77.1762 13.9464 77.1762 16.327V17.8465H77.0466C70.326 17.8465 64.8506 23.1648 64.8506 29.7491C64.8506 36.3334 70.2999 41.6517 77.0466 41.6517H82.1326C84.0268 41.6517 85.532 43.1712 85.532 44.9693C85.532 46.8179 83.975 48.2869 82.1326 48.2869H69.2619C66.8487 48.2869 64.8767 50.1861 64.8767 52.5666C64.8767 54.9218 66.8226 56.8464 69.2619 56.8464H77.1762V58.3659C77.1762 60.7211 79.1222 62.6457 81.5614 62.6457C83.9746 62.6457 85.9467 60.7465 85.9467 58.3659V56.2388C90.8252 54.6687 94.3282 50.2115 94.3282 44.9442C94.3282 38.3853 88.8789 33.0416 82.1322 33.0416H77.0462C75.152 33.0416 73.6467 31.5221 73.6467 29.724C73.6728 27.9001 75.1777 26.406 77.0722 26.406Z" fill="#447F00"/>
</svg>
