<svg width="39" height="90" viewBox="0 0 39 90" fill="none" xmlns="http://www.w3.org/2000/svg">
<path d="M10.5 1.16687H27.5V10.5014H10.5V1.16687Z" fill="#E2AE6B"/>
<path d="M2 23.3364H36V87.5115H2V23.3364Z" fill="#447F00"/>
<path d="M4 19.8359H34L36 24.5032H2L4 19.8359Z" fill="#447F00"/>
<rect x="11.5054" y="10.5013" width="15" height="12.835" fill="#447F00"/>
<path d="M9 15.1687H29L30.5 19.836L7 20.4194L9 15.1687Z" fill="#447F00"/>
<path opacity="0.9" d="M5.16211 76.724C3.91909 76.724 2.79492 77.625 2.79492 78.8646V81.9525C2.79492 84.8953 5.49595 87.182 8.67676 87.182H29.7637C32.9443 87.1818 35.6445 84.8952 35.6445 81.9525V78.8646C35.6445 77.6252 34.5211 76.7242 33.2783 76.724H5.16211ZM5.16211 70.5463C3.9192 70.5463 2.79513 71.4474 2.79492 72.6869C2.79492 73.9265 3.91908 74.8285 5.16211 74.8285H33.2783C34.5212 74.8283 35.6445 73.9264 35.6445 72.6869C35.6443 71.4476 34.521 70.5465 33.2783 70.5463H5.16211ZM5.16211 64.3695C3.91908 64.3695 2.79492 65.2705 2.79492 66.5101C2.79493 67.7498 3.91909 68.6508 5.16211 68.6508H33.2783C34.5211 68.6505 35.6445 67.7496 35.6445 66.5101C35.6445 65.2707 34.5212 64.3697 33.2783 64.3695H5.16211ZM5.16211 58.1918C3.91908 58.1918 2.79492 59.0937 2.79492 60.3334C2.79516 61.5728 3.91922 62.474 5.16211 62.474H33.2783C34.521 62.4738 35.6443 61.5726 35.6445 60.3334C35.6445 59.0939 34.5212 58.192 33.2783 58.1918H5.16211ZM13.3379 11.4457C13.3379 13.3274 12.5061 15.1093 10.9668 16.4623L4.54102 22.1097C3.42532 23.0901 2.79504 24.4105 2.79492 25.8285V54.1556C2.79492 55.3953 3.91909 56.2963 5.16211 56.2963H33.2783C34.5211 56.296 35.6445 55.3951 35.6445 54.1556V25.8285C35.6444 24.4104 35.014 23.0901 33.8984 22.1097L27.4727 16.4623C25.9331 15.1091 25.1016 13.3272 25.1016 11.4457V10.3197H13.3379V11.4457ZM12.1904 2.59802C11.9157 2.59826 11.5811 2.80756 11.5811 3.1947V7.82751C11.5811 8.21459 11.9157 8.42396 12.1904 8.42419H26.249C26.5238 8.42411 26.8583 8.21473 26.8584 7.82751V3.1947C26.8584 2.80742 26.5238 2.59811 26.249 2.59802H12.1904ZM11.0439 10.1312L10.7627 9.99451C9.85653 9.55206 9.28618 8.72855 9.28613 7.82751V3.1947C9.28613 1.87983 10.5268 0.702731 12.1904 0.702515H26.249C27.9128 0.702595 29.1533 1.87975 29.1533 3.1947V7.82751C29.1533 8.7286 28.583 9.55208 27.6768 9.99451L27.3965 10.1312V11.4457C27.3965 12.8639 28.027 14.1846 29.1426 15.1654L35.5684 20.8129C37.1075 22.1655 37.9393 23.9469 37.9395 25.8285V54.1556C37.9395 55.1945 37.4821 56.1536 36.7109 56.8812L36.3252 57.2445L36.7109 57.6078C37.4821 58.3354 37.9395 59.2946 37.9395 60.3334C37.9393 61.372 37.4819 62.3305 36.7109 63.058L36.3252 63.4213L36.7109 63.7855C37.4819 64.5131 37.9395 65.4715 37.9395 66.5101C37.9394 67.5488 37.4819 68.5072 36.7109 69.2347L36.3252 69.599L36.7109 69.9623C37.4819 70.6898 37.9394 71.6483 37.9395 72.6869C37.9395 73.7257 37.4821 74.6849 36.7109 75.4125L36.3252 75.7758L36.7109 76.139C37.4821 76.8666 37.9395 77.8258 37.9395 78.8646V81.9525C37.9395 85.8219 34.3341 89.0774 29.7637 89.0775H8.67676C4.10615 89.0775 0.5 85.8219 0.5 81.9525V78.8646L0.504883 78.6703C0.55809 77.7065 1.00661 76.8211 1.72949 76.139L2.11426 75.7758L1.72949 75.4125C0.958347 74.6849 0.5 73.7257 0.5 72.6869C0.500103 71.6482 0.958434 70.6898 1.72949 69.9623L2.11426 69.599L1.72949 69.2347C0.958351 68.5072 0.500005 67.5489 0.5 66.5101C0.5 65.4713 0.958347 64.5131 1.72949 63.7855L2.11426 63.4213L1.72949 63.058C0.958442 62.3305 0.500114 61.372 0.5 60.3334C0.5 59.2946 0.958347 58.3354 1.72949 57.6078L2.11426 57.2445L1.72949 56.8812C0.958347 56.1536 0.5 55.1945 0.5 54.1556V25.8285C0.500122 23.947 1.33196 22.1657 2.87109 20.8129L9.29688 15.1654C10.4128 14.1849 11.0439 12.8639 11.0439 11.4457V10.1312Z" fill="black" stroke="black"/>
<path d="M19.1456 50.6945C23.9297 50.6945 27.822 47.2739 27.822 43.0696C27.822 39.3929 21.7235 31.4479 20.5011 29.8924C20.1936 29.5012 19.6869 29.2676 19.1456 29.2676C18.6044 29.2676 18.0977 29.5012 17.7901 29.8924C16.5678 31.4479 10.4692 39.3929 10.4692 43.0696C10.4692 47.2739 14.3615 50.6945 19.1456 50.6945ZM17.0459 36.3553C17.7901 35.2268 18.54 34.1697 19.15 33.335C21.711 36.8373 24.5272 41.3435 24.5272 43.0696C24.5272 45.6775 22.113 47.799 19.1456 47.799C16.1783 47.799 13.7641 45.6775 13.7641 43.0696C13.7641 42.5467 14.0839 40.8454 17.0459 36.3553Z" fill="black"/>
<path d="M23.8656 39.8432C27.1832 44.7506 22.5652 48.3911 18.4746 47.7706C13.4973 47.0156 11.4239 43.6182 14.3267 39.8432C11.8385 43.9957 16.4002 35.3133 18.8893 32.6709C20.9628 35.3133 21.7922 36.0683 23.8656 39.8432Z" fill="#5DFFE4"/>
</svg>
