<svg width="185" height="258" viewBox="0 0 185 258" fill="none" xmlns="http://www.w3.org/2000/svg">
<path d="M9.75684 246.273V251.75C9.75684 253.56 11.3474 255.025 13.3094 255.025H18.0454C20.0074 255.025 21.598 253.56 21.598 251.75V246.273H9.75684Z" fill="#636D77"/>
<path d="M89.207 246.273V251.75C89.207 253.559 90.7976 255.025 92.7596 255.025H97.4956C99.4576 255.025 101.048 253.559 101.048 251.75V246.273H89.207Z" fill="#636D77"/>
<path opacity="0.15" d="M14.4934 251.75V246.273H9.75684V251.75C9.75684 253.56 11.3474 255.025 13.3094 255.025H18.0454C16.0835 255.025 14.4934 253.56 14.4934 251.75Z" fill="#020202"/>
<path opacity="0.15" d="M93.9439 251.75V246.273H89.2073V251.75C89.2073 253.559 90.7979 255.025 92.7598 255.025H97.4959H97.4964C95.5344 255.025 93.9439 253.559 93.9439 251.75Z" fill="#020202"/>
<path opacity="0.15" d="M14.4934 251.75V246.273H9.75684V251.75C9.75684 253.56 11.3474 255.025 13.3094 255.025H18.0454C16.0835 255.025 14.4934 253.56 14.4934 251.75Z" fill="#020202"/>
<path opacity="0.15" d="M93.9439 251.75V246.273H89.2073V251.75C89.2073 253.559 90.7979 255.025 92.7598 255.025H97.4959H97.4964C95.5344 255.025 93.9439 253.559 93.9439 251.75Z" fill="#020202"/>
<path d="M109.971 236.666C109.971 241.979 105.579 246.326 100.211 246.326H9.99429C4.62593 246.326 0.233643 241.979 0.233643 236.666V9.65983C0.233643 4.34693 4.62593 0 9.99429 0H100.141C105.509 0 109.901 4.34693 109.901 9.65983V236.666H109.971Z" fill="#49D0E2"/>
<path d="M184.686 248.316C184.686 253.642 180.236 258 174.796 258H167.873C164.129 256.616 115.808 240.568 115.808 236.418L177.198 78.2172H184.05L184.686 248.316Z" fill="#CFD1D1"/>
<path d="M177.682 248.319C177.682 253.644 173.302 258 167.949 258C167.949 258 117.34 245.899 116.297 245.484C112.613 244.101 109.971 240.575 109.971 236.426V82.9883L177.195 78.2172L177.682 248.319Z" fill="#49D0E2"/>
<path d="M173.012 246.326L125.148 235.741V99.6631L173.012 96.8959V246.326Z" fill="#C7C9C9" stroke="#EDEDED" stroke-width="0.995" stroke-miterlimit="10"/>
<path d="M115.808 230.264L125.148 235.819V99.2307L115.875 99.7168L115.808 230.264Z" fill="#E0E2E2"/>
<path d="M173.012 126.394L115.808 127.249V115.213L172.528 113.24L173.012 126.394Z" fill="white"/>
<path d="M173.012 253.33L115.808 241.39V225.312L172.942 233.453L173.012 253.33Z" fill="white"/>
<path d="M101.799 233.484H7.23828V102.898C7.23828 98.2511 11.029 94.561 15.6468 94.561H93.3909C98.0776 94.561 101.799 98.3194 101.799 102.898V233.484Z" fill="#CFD1D1"/>
<path d="M109.697 80.2974H0V83.4016H109.697V80.2974Z" fill="#7DE3EA"/>
<path d="M109.906 83.4016H109.418V237.098H109.906V83.4016Z" fill="#7DE3EA"/>
<path d="M96.5943 118.928H12.2659V122.378H96.5943V118.928Z" fill="#EDEDED"/>
<path d="M96.5943 142.245H12.2659V145.694H96.5943V142.245Z" fill="#EDEDED"/>
<path d="M95.9623 165.774H11.908V169.276H95.9623V165.774Z" fill="#EDEDED"/>
<path d="M96.6087 189.059L12.2803 189L12.2779 192.437L96.6063 192.496L96.6087 189.059Z" fill="#EDEDED"/>
<path d="M52.3467 199.407L11.9248 199.379L11.9032 230.239L52.3251 230.267L52.3467 199.407Z" fill="#EDEDED"/>
<path d="M53 203H12V205H53V203Z" fill="#D4D6D6"/>
<path d="M96 200H56V230H96V200Z" fill="#EDEDED"/>
<path d="M96 203H56V205H96V203Z" fill="#D4D6D6"/>
<path d="M10.8055 64.2081C8.83573 64.2081 7.23828 62.5226 7.23828 60.4423V29.449C7.23828 27.3687 8.83531 25.6832 10.8055 25.6832H16.5127C18.4833 25.6832 20.0799 27.3687 20.0799 29.449C20.0799 31.5284 18.4833 33.2149 16.5127 33.2149H14.3726V60.4427C14.3722 62.5222 12.7752 64.2081 10.8055 64.2081Z" fill="#636D77"/>
<g opacity="0.55">
<path d="M100.487 73.1229C99.2612 73.1229 98.2668 71.3673 98.2668 69.2004V14.9598C98.2668 12.793 99.2609 11.0374 100.487 11.0374C101.714 11.0374 102.708 12.793 102.708 14.9598V69.2009C102.708 71.3668 101.714 73.1229 100.487 73.1229Z" fill="#F5F5F5"/>
</g>
<path d="M172.49 200.605L114.854 196.052V181.29L172.002 183.635L172.49 200.605Z" fill="white"/>
<path d="M173.187 154.593L114.854 153.834V141.417L172.769 141.21L173.187 154.593Z" fill="white"/>
</svg>
