<svg width="150" height="143" viewBox="0 0 150 143" fill="none" xmlns="http://www.w3.org/2000/svg">
<path d="M149.872 35.6698C150.119 33.9447 150.008 32.1838 149.548 30.5076C149.088 28.8314 148.289 27.2795 147.206 25.9579C146.124 24.6353 144.783 23.5741 143.274 22.8469C141.766 22.1197 140.126 21.7436 138.466 21.7443H27.2985L22.083 0L22.0812 0.000581776V0H3.84439C1.7213 0 0 1.80973 0 4.04188C0 6.27423 1.7213 8.08376 3.84439 8.08376H16.0925L28.6644 60.5004L40.5929 110.665H46.3123C42.3463 114.001 39.752 119.069 39.752 124.812C39.752 134.841 47.5121 143 57.0517 143C66.5912 143 74.3513 134.841 74.3513 124.812C74.3513 119.069 71.757 114.001 67.791 110.665H111.667C107.701 114.001 105.106 119.069 105.106 124.812C105.106 134.841 112.866 143 122.406 143C131.946 143 139.706 134.841 139.706 124.812C139.706 119.069 137.111 114.001 133.145 110.665H139.172L149.872 35.6698ZM57.0515 134.916C51.7505 134.916 47.4406 130.383 47.4406 124.811C47.4406 119.24 51.7505 114.707 57.0515 114.707C62.3524 114.707 66.6624 119.24 66.6624 124.811C66.6624 130.383 62.3524 134.916 57.0515 134.916ZM122.406 134.916C117.105 134.916 112.795 130.383 112.795 124.811C112.795 119.24 117.105 114.707 122.406 114.707C127.707 114.707 132.016 119.24 132.016 124.811C132.016 130.383 127.707 134.916 122.406 134.916ZM29.3 29.8281H138.466C139.604 29.8281 140.636 30.3274 141.38 31.2313C142.119 32.1371 142.435 33.2877 142.266 34.4699L132.55 102.581H46.5997L40.8478 78.3926L40.8831 78.3833L36.5347 60.2532L29.3 29.8281Z" fill="#447F00"/>
<path d="M141.021 55.6548V47.5357H112.271V27.2381H104.561V47.5357H73.7225V27.2381H66.0128V47.5357H27.4646V55.6548H66.0128V80.0119H39.029V88.131H66.0128V108.429H73.7225V88.1308H104.561V108.428H112.271V88.1308H139.254V80.0117H112.271V55.6548H141.021ZM104.561 80.0119H73.7225V55.6548H104.561V80.0119Z" fill="#447F00"/>
</svg>
