<svg width="111" height="181" viewBox="0 0 111 181" fill="none" xmlns="http://www.w3.org/2000/svg">
<path d="M9.30835 168.312V176.252C9.30835 178.875 11.5906 181 14.4058 181H21.2014C24.0166 181 26.2988 178.875 26.2988 176.252V168.312H9.30835Z" fill="#636D77"/>
<path d="M84.6992 168.312V176.252C84.6992 178.875 86.9815 181 89.7967 181H96.5923C99.4074 181 101.69 178.875 101.69 176.252V168.312H84.6992Z" fill="#636D77"/>
<path opacity="0.15" d="M16.1047 176.252V168.312H9.30835V176.252C9.30835 178.875 11.5906 181 14.4058 181H21.2014H21.2022C18.387 181 16.1047 178.875 16.1047 176.252Z" fill="#020202"/>
<path opacity="0.15" d="M91.4961 176.252V168.312H84.6997V176.252C84.6997 178.875 86.982 181 89.7972 181H96.5927H96.5935C93.7783 181 91.4961 178.875 91.4961 176.252Z" fill="#020202"/>
<path d="M33.6824 169.105H12.4872C5.59061 169.105 0.000488301 163.898 0.000488301 157.475V11.63C0.000108743 5.20622 5.59023 0 12.4868 0H98.5127C105.409 0 110.999 5.20622 110.999 11.63V50.592V157.475C110.999 163.897 105.409 169.105 98.5127 169.105L33.6824 169.105Z" fill="#7DE3EA"/>
<path d="M111 11.63C111 5.20622 105.41 0 98.513 0H12.4867C5.59012 0 0 5.20622 0 11.63V69.0317H111V21.1194" fill="#49D0E2"/>
<g opacity="0.55">
<path d="M97.7668 57.8677C96.0076 57.8677 94.5808 56.5395 94.5808 54.9003V13.8666C94.5808 12.2274 96.0072 10.8992 97.7668 10.8992C99.5268 10.8992 100.953 12.2274 100.953 13.8666V54.9006C100.953 56.5392 99.5264 57.8677 97.7668 57.8677Z" fill="#F5F5F5"/>
</g>
<g opacity="0.55">
<path d="M97.7668 154.793C96.0076 154.793 94.5808 153.465 94.5808 151.825V149.833C94.5808 148.194 96.0072 146.866 97.7668 146.866C99.5268 146.866 100.953 148.194 100.953 149.833V151.825C100.953 153.465 99.5264 154.793 97.7668 154.793Z" fill="#F5F5F5"/>
</g>
<g opacity="0.55">
<path d="M97.7668 143.171C96.0076 143.171 94.5808 141.843 94.5808 140.204V82.9697C94.5808 81.3305 96.0072 80.0023 97.7668 80.0023C99.5268 80.0023 100.953 81.3305 100.953 82.9697V140.204C100.953 141.843 99.5264 143.171 97.7668 143.171Z" fill="#F5F5F5"/>
</g>
<path d="M0 69.0314V78.9224H5.06064H22.0519H30.5475C33.3627 78.9224 35.645 76.7967 35.645 74.1747V69.0314H0Z" fill="#A8F2F4"/>
<path d="M15.5586 50.99C13.7993 50.99 12.3726 49.6619 12.3726 48.0226V23.6003C12.3726 21.9611 13.7989 20.6329 15.5586 20.6329H20.656C22.416 20.6329 23.842 21.9611 23.842 23.6003C23.842 25.2389 22.416 26.5678 20.656 26.5678H18.7446V48.023C18.7442 49.6615 17.3178 50.99 15.5586 50.99Z" fill="#636D77"/>
<path opacity="0.15" d="M6.79646 157.475V11.63C6.79646 5.20622 12.3866 0 19.2835 0H12.4872C5.59061 0 0.000488281 5.20622 0.000488281 11.63V157.475C0.000488281 163.898 5.59061 169.105 12.4872 169.105H19.2835C12.3866 169.105 6.79646 163.898 6.79646 157.475Z" fill="#020202"/>
</svg>
