<svg width="175" height="166" viewBox="0 0 175 166" fill="none" xmlns="http://www.w3.org/2000/svg">
<g clip-path="url(#clip0_47_29)">
<path fill-rule="evenodd" clip-rule="evenodd" d="M71.8762 118.052L71.3816 143.771L25.9448 143.555L34.4412 118.312L71.8762 118.052Z" fill="#80D25B"/>
<path fill-rule="evenodd" clip-rule="evenodd" d="M43.6679 96.834L25.253 143.344L9.77206 110.157L18.4949 88.1253L8.4257 84.6418L39.4432 71.3603L53.7371 100.317L43.6679 96.834Z" fill="#447F00"/>
<path fill-rule="evenodd" clip-rule="evenodd" d="M103.688 118.056L104.183 143.775L149.62 143.559L141.123 118.316L103.688 118.056Z" fill="#80D25B"/>
<path fill-rule="evenodd" clip-rule="evenodd" d="M131.897 96.8378L150.311 143.348L165.792 110.16L157.07 88.1291L167.139 84.6456L136.121 71.3641L121.827 100.321L131.897 96.8378Z" fill="#447F00"/>
<path fill-rule="evenodd" clip-rule="evenodd" d="M108.394 60.4729L130.891 45.9703L105.155 10.3823L87.5784 30.9121L108.394 60.4729Z" fill="#80D25B"/>
<path fill-rule="evenodd" clip-rule="evenodd" d="M74.178 50.2759L104.963 10.2099L66.8393 16.2105L52.2568 35.1891L43.4884 29.1544L49.2385 60.9257L82.9465 56.3107L74.178 50.2759Z" fill="#447F00"/>
</g>
<defs>
<clipPath id="clip0_47_29">
<rect width="175" height="166" fill="white"/>
</clipPath>
</defs>
</svg>
