<svg width="147" height="174" viewBox="0 0 147 174" fill="none" xmlns="http://www.w3.org/2000/svg">
<path d="M10.5 45H138L126 171H21L10.5 45Z" fill="#447F00"/>
<path d="M3 17H73.5H144V34H3V17Z" fill="#447F00"/>
<path d="M57 4H74H91V21H57V4Z" fill="#447F00"/>
<path fill-rule="evenodd" clip-rule="evenodd" d="M66.9569 69.1072L82.8932 69.0505C85.7701 69.0364 87.737 69.5887 89.6237 72.2227L94.133 80.7195L98.6958 77.7314L90.8413 92.2751L74.9317 92.2043L79.7889 89.2162L71.5999 74.5451C70.8239 73.1573 70.2619 72.0527 69.1379 70.8915C68.4822 70.2118 67.7329 69.617 66.9569 69.1072ZM70.7971 139.645L55.503 139.673C52.1177 139.121 49.95 137.181 49.3078 134.476C48.7458 132.139 49.2944 131.063 50.2578 129.052C51.3951 126.659 52.7466 124.35 54.0445 122.014L70.9711 122.07L70.7971 139.645ZM46.4443 133.343L38.4293 118.771C36.9842 116.137 36.4489 114.055 37.6532 111.01L42.3632 102.641L37.6398 99.9505L53.4691 99.8797L61.3637 114.48L56.4932 111.52L48.5852 126.361C47.8359 127.763 47.207 128.84 46.8323 130.44C46.6049 131.403 46.4844 132.366 46.4443 133.343ZM101.666 95.2348L109.333 109.226C110.578 112.597 110.069 115.556 108.183 117.496C106.55 119.167 105.4 119.21 103.272 119.337C100.743 119.493 98.1739 119.408 95.6182 119.38L87.2018 103.831L101.666 95.2348ZM108.678 120.711L100.756 135.34C99.3247 137.988 97.893 139.517 94.802 139.928L85.5961 139.8L85.7567 145.465L77.7952 130.992L85.7968 116.448L85.8102 122.396L101.907 122.226C103.433 122.212 104.623 122.24 106.122 121.801C107.019 121.547 107.862 121.164 108.678 120.711ZM49.6289 88.2674L57.2425 74.2336C59.3834 71.4013 62.0595 70.3959 64.5885 71.1464C66.7695 71.7978 67.385 72.8458 68.5491 74.7292C69.9407 76.9809 71.1584 79.3741 72.4162 81.7249L63.8927 97.2174L49.6289 88.2674ZM5.37903 13.255H52.8403V7.64711C52.8403 5.53707 53.6565 3.62529 54.9544 2.25165C56.2791 0.86384 58.0855 0 60.0658 0H87.5497C89.5434 0 91.3364 0.86384 92.6477 2.23749C93.959 3.62529 94.7619 5.53707 94.7619 7.63294V13.255H141.621C143.093 13.255 144.444 13.8922 145.421 14.9402C146.398 15.974 147 17.3901 147 18.962V34.8085V37.2726H144.672H2.32824H0V34.8085V18.9478C0 17.3901 0.60213 15.9598 1.57892 14.926C2.55571 13.9064 3.90715 13.255 5.37903 13.255ZM55.1685 18.1831H5.37903C5.17832 18.1831 4.99099 18.2681 4.87056 18.3955C4.73676 18.5372 4.65647 18.7354 4.65647 18.9478V32.3303H142.344V18.9478C142.344 18.7354 142.263 18.5372 142.129 18.3955C142.009 18.2681 141.822 18.1831 141.621 18.1831H92.4336H90.1054V15.7191V7.63294C90.1054 6.89656 89.811 6.21681 89.3561 5.72117C88.8878 5.22552 88.2589 4.92813 87.5497 4.92813H60.0658C59.3566 4.92813 58.7144 5.22552 58.2594 5.72117V5.73533C57.7911 6.23098 57.5101 6.91072 57.5101 7.64711V15.7332V18.1973H55.1685V18.1831ZM13.6215 40.7421H134.436C134.583 40.7421 134.797 40.7562 135.064 40.7846C136.724 40.9403 138.276 41.7334 139.413 42.9088C140.604 44.155 141.367 45.826 141.367 47.6953C141.367 47.8227 141.353 48.021 141.327 48.2759L131.104 166.919C130.943 168.859 130.154 170.63 128.936 171.918C127.718 173.207 126.086 174 124.213 174V173.986H23.7105V174C21.8372 174 20.2048 173.207 18.9738 171.918C17.7561 170.63 16.9801 168.845 16.8061 166.905L6.73047 48.2617C6.70371 47.9927 6.70371 47.8086 6.70371 47.6953C6.70371 45.826 7.46641 44.155 8.65729 42.9088C9.79465 41.7334 11.3468 40.9403 13.0194 40.7846C13.287 40.7562 13.4877 40.7421 13.6215 40.7421ZM134.436 45.6702H13.6349H13.4208C12.8454 45.7269 12.3102 45.9959 11.9088 46.4066C11.5743 46.7606 11.3602 47.2138 11.3602 47.6953C11.3602 47.8227 11.3602 47.8227 11.3602 47.8511L21.4492 166.509C21.5161 167.288 21.8105 167.981 22.2654 168.463C22.6401 168.859 23.1486 169.1 23.7239 169.1V169.114H124.226V169.1C124.801 169.1 125.297 168.859 125.671 168.463C126.126 167.981 126.421 167.288 126.487 166.509L136.71 47.8652C136.71 47.8511 136.71 47.8369 136.71 47.7236C136.71 47.2421 136.496 46.8031 136.162 46.4491C135.76 46.0384 135.225 45.7552 134.65 45.7127C134.636 45.6702 134.569 45.6702 134.436 45.6702Z" fill="black"/>
</svg>
