<svg width="454" height="152" viewBox="0 0 454 152" fill="none" xmlns="http://www.w3.org/2000/svg">
<path fill-rule="evenodd" clip-rule="evenodd" d="M145.12 78.9102L15.3755 79.6601C7.3377 79.7065 0.337337 73.8544 0.29602 66.7056L0.000309141 15.541C-0.0386291 8.80377 6.11755 3.13085 13.5528 2.46131L439.423 -5.49675e-05C446.868 0.583496 453.087 6.18489 453.126 12.9232L453.422 64.0867C453.463 71.2355 446.531 77.1682 438.493 77.2146L308.749 77.9645L308.945 111.912C309.071 133.63 289.554 150.863 265.14 151.004L189.568 151.441C165.158 151.582 145.441 134.575 145.316 112.857L145.12 78.9102ZM189.369 112.249L264.888 111.812L264.694 78.2191L189.174 78.6556L189.369 112.249Z" fill="#597B91"/>
</svg>
