<svg width="324" height="409" viewBox="0 0 324 409" fill="none" xmlns="http://www.w3.org/2000/svg">
<path d="M207.147 0.308554C206.59 -0.162173 205.766 -0.0855571 205.303 0.478641C204.841 1.04284 204.916 1.88117 205.471 2.35128L213.323 9L215 6.95742L207.147 0.308554Z" fill="#959CB5"/>
<path d="M8.21289 376.418C8.21289 377.694 9.40816 378.729 10.8822 378.729H30.0445C31.5185 378.729 32.7137 377.694 32.7137 376.418C32.7137 375.142 31.5185 374.108 30.0445 374.108H10.8822C9.4079 374.108 8.21289 375.142 8.21289 376.418Z" fill="#020202"/>
<path d="M313.5 336.608V309H306.5H299.5V336.608C293.2 339.592 289 345.935 289 353.769V406H324V353.769C324 346.308 319.8 339.592 313.5 336.608Z" fill="#B87C40"/>
<rect x="301" y="309" width="15" height="12" fill="#B9873C"/>
<rect x="289" y="353" width="35" height="27" fill="#D9D9D9"/>
<rect x="297" y="309" width="15" height="12" fill="#B9873C"/>
<rect x="289" y="353" width="35" height="27" fill="#D9D9D9"/>
<path d="M313.5 241.754V215H306.5H299.5V241.754C293.2 244.646 289 250.792 289 258.385V309H324V258.385C324 251.154 319.8 244.646 313.5 241.754Z" fill="#B87C40"/>
<rect x="301" y="215" width="15" height="11" fill="#B9873C"/>
<rect x="289" y="259" width="35" height="26" fill="#D9D9D9"/>
<rect x="297" y="215" width="15" height="11" fill="#B9873C"/>
<rect x="289" y="259" width="35" height="26" fill="#D9D9D9"/>
<path d="M313.5 144.892V117H306.5H299.5V144.892C293.2 147.908 289 154.315 289 162.231V215H324V162.231C324 154.692 319.8 147.908 313.5 144.892Z" fill="#B87C40"/>
<rect x="301" y="117" width="15" height="12" fill="#B9873C"/>
<rect x="289" y="164" width="35" height="27" fill="#D9D9D9"/>
<rect x="297" y="117" width="15" height="12" fill="#B9873C"/>
<rect x="289" y="164" width="35" height="27" fill="#D9D9D9"/>
<path d="M204.362 331.206C203.749 330.892 202.842 330.943 202.333 331.319C201.825 331.695 201.907 332.254 202.518 332.568L211.155 337L213 335.638L204.362 331.206Z" fill="#959CB5"/>
<path d="M228.506 336H202.494C201.573 336 200.735 336.467 200.239 337.207C198.86 339.265 197 341.037 197 341.037V398.963C197 398.963 198.86 400.735 200.239 402.793C200.735 403.533 201.573 404 202.494 404H228.506C229.427 404 230.265 403.533 230.761 402.793C232.14 400.735 234 398.963 234 398.963V341.037C234 341.037 232.14 339.265 230.761 337.207C230.265 336.467 229.427 336 228.506 336Z" fill="#C7CFE2"/>
<path d="M213.594 402.793C212.734 400.735 211.574 398.963 211.574 398.963V341.037C211.574 341.037 212.734 339.265 213.594 337.207C213.903 336.467 214.426 336 215 336H202.049C201.203 336 200.433 336.467 199.977 337.207C198.709 339.265 197 341.037 197 341.037V398.963C197 398.963 198.709 400.735 199.977 402.793C200.433 403.533 201.203 404 202.049 404H215C214.426 404 213.903 403.533 213.594 402.793Z" fill="#AFB9D2"/>
<path d="M233.6 398H194.4C193.627 398 193 397.455 193 396.783V343.217C193 342.545 193.627 342 194.4 342H233.6C234.373 342 235 342.545 235 343.217V396.783C235 397.455 234.373 398 233.6 398Z" fill="#FFEF5C"/>
<path d="M208.692 396.783V343.217C208.692 342.545 209.278 342 210 342H194.308C193.586 342 193 342.545 193 343.217V396.783C193 397.455 193.586 398 194.308 398H210C209.278 398 208.692 397.455 208.692 396.783Z" fill="#FFEF5C"/>
<path d="M228.999 369.375C228.999 368.326 228.864 367.277 228.599 366.259C228.425 365.594 227.687 365.179 226.959 365.341C226.225 365.497 225.773 366.162 225.945 366.825C226.162 367.658 226.272 368.516 226.272 369.375C226.272 373.014 224.337 376.281 221.253 378.303C221.575 377.763 221.433 377.084 220.867 376.719C220.254 376.322 219.403 376.451 218.965 377.007L216.109 380.633C215.836 380.979 215.781 381.428 215.96 381.822C216.14 382.215 216.532 382.497 216.995 382.567L221.844 383.303C221.92 383.314 221.996 383.319 222.071 383.319C222.724 383.319 223.302 382.892 223.414 382.289C223.538 381.616 223.037 380.98 222.294 380.867L221.997 380.822C226.268 378.415 228.999 374.157 228.999 369.375Z" fill="white"/>
<path d="M211.268 380.118C206.254 379.045 202.624 375.298 201.999 370.764C202.254 371.129 202.686 371.347 203.144 371.347C203.346 371.347 203.551 371.306 203.744 371.22C204.42 370.919 204.697 370.179 204.366 369.567L202.194 365.572C201.987 365.19 201.577 364.932 201.108 364.889C200.641 364.843 200.181 365.024 199.894 365.361L196.88 368.879C196.418 369.418 196.527 370.194 197.121 370.611C197.719 371.031 198.573 370.932 199.034 370.393L199.205 370.193C199.595 376.133 204.182 381.139 210.642 382.521C210.747 382.544 210.853 382.554 210.957 382.554C211.574 382.554 212.133 382.172 212.282 381.604C212.456 380.94 212.002 380.275 211.268 380.118Z" fill="white"/>
<path d="M219.413 361.085C219.205 361.74 219.622 362.424 220.346 362.612L225.072 363.844C225.196 363.876 225.322 363.892 225.449 363.892C225.78 363.892 226.106 363.783 226.359 363.576C226.709 363.291 226.873 362.864 226.792 362.444L225.943 358.057C225.811 357.385 225.105 356.935 224.364 357.055C223.622 357.173 223.127 357.813 223.256 358.484L223.311 358.766C220.709 356.902 217.49 355.866 214.083 355.866C209.46 355.866 205.175 357.76 202.325 361.062C201.862 361.599 201.967 362.375 202.559 362.795C202.81 362.971 203.105 363.057 203.398 363.057C203.804 363.057 204.205 362.894 204.474 362.582C206.804 359.884 210.306 358.335 214.083 358.335C216.555 358.335 218.902 359.009 220.887 360.224C220.236 360.152 219.6 360.496 219.413 361.085Z" fill="white"/>
<path d="M202.325 361.062C201.862 361.599 201.967 362.375 202.559 362.795C202.81 362.971 203.105 363.057 203.398 363.057C203.804 363.057 204.205 362.894 204.474 362.582C205.929 360.896 207.842 359.66 209.993 358.969V356.399C206.992 357.17 204.307 358.765 202.325 361.062Z" fill="#FFF8C1"/>
<path d="M199.034 370.393L199.205 370.193C199.582 375.93 203.879 380.786 209.993 382.357V379.75C205.653 378.355 202.569 374.9 201.999 370.764C202.254 371.13 202.686 371.347 203.144 371.347C203.346 371.347 203.551 371.307 203.744 371.22C204.42 370.919 204.697 370.179 204.366 369.568L202.194 365.572C201.987 365.19 201.577 364.932 201.108 364.889C200.641 364.843 200.181 365.024 199.894 365.361L196.88 368.88C196.418 369.418 196.527 370.194 197.121 370.612C197.719 371.031 198.573 370.932 199.034 370.393Z" fill="#FFF8C1"/>
<path d="M205.147 133.206C204.59 132.892 203.766 132.943 203.303 133.319C202.841 133.695 202.916 134.254 203.471 134.568L211.323 139L213 137.638L205.147 133.206Z" fill="#959CB5"/>
<path d="M229.357 137H202.643C201.697 137 200.836 137.446 200.327 138.153C198.91 140.121 197 141.815 197 141.815V197.185C197 197.185 198.91 198.879 200.327 200.847C200.836 201.554 201.697 202 202.643 202H229.357C230.303 202 231.164 201.554 231.673 200.847C233.09 198.879 235 197.185 235 197.185V141.815C235 141.815 233.09 140.121 231.673 138.153C231.164 137.446 230.303 137 229.357 137Z" fill="#C7CFE2"/>
<path d="M217.282 200.847C216.23 198.879 214.812 197.185 214.812 197.185V141.815C214.812 141.815 216.23 140.121 217.281 138.153C217.659 137.446 218.298 137 219 137H203.171C202.137 137 201.196 137.446 200.639 138.153C199.089 140.121 197 141.815 197 141.815V197.185C197 197.185 199.089 198.879 200.639 200.847C201.196 201.554 202.137 202 203.171 202H219C218.298 202 217.659 201.554 217.282 200.847Z" fill="#AFB9D2"/>
<path d="M233.733 198H198.267C197.567 198 197 197.465 197 196.804V144.196C197 143.535 197.567 143 198.267 143H233.733C234.433 143 235 143.535 235 144.196V196.804C235 197.465 234.433 198 233.733 198Z" fill="#FFEF5C"/>
<path d="M211.769 196.804V144.196C211.769 143.535 212.32 143 213 143H198.231C197.551 143 197 143.535 197 144.196V196.804C197 197.465 197.551 198 198.231 198H213C212.32 198 211.769 197.465 211.769 196.804Z" fill="#FFEF5C"/>
<path d="M230.691 170.371C230.691 169.323 230.557 168.274 230.292 167.255C230.117 166.591 229.38 166.176 228.651 166.337C227.918 166.494 227.465 167.158 227.637 167.822C227.854 168.655 227.965 169.513 227.965 170.372C227.965 174.011 226.03 177.278 222.946 179.299C223.267 178.759 223.125 178.081 222.56 177.715C221.946 177.319 221.095 177.448 220.657 178.003L217.802 181.63C217.529 181.976 217.473 182.425 217.653 182.819C217.833 183.212 218.224 183.493 218.687 183.564L223.537 184.3C223.613 184.311 223.689 184.316 223.763 184.316C224.417 184.316 224.995 183.889 225.106 183.285C225.23 182.613 224.73 181.977 223.987 181.864L223.689 181.819C227.96 179.411 230.691 175.153 230.691 170.371Z" fill="white"/>
<path d="M212.961 181.115C207.947 180.042 204.317 176.295 203.692 171.761C203.947 172.126 204.379 172.344 204.837 172.344C205.039 172.344 205.244 172.303 205.437 172.216C206.113 171.916 206.39 171.175 206.059 170.564L203.887 166.569C203.68 166.187 203.27 165.929 202.801 165.885C202.334 165.84 201.874 166.021 201.587 166.357L198.573 169.876C198.111 170.415 198.22 171.191 198.814 171.608C199.412 172.028 200.266 171.929 200.727 171.389L200.898 171.189C201.288 177.13 205.875 182.136 212.335 183.518C212.44 183.541 212.546 183.551 212.649 183.551C213.267 183.551 213.826 183.168 213.975 182.601C214.149 181.937 213.695 181.272 212.961 181.115Z" fill="white"/>
<path d="M221.105 162.082C220.898 162.737 221.314 163.421 222.038 163.609L226.764 164.841C226.888 164.873 227.015 164.889 227.141 164.889C227.472 164.889 227.799 164.779 228.052 164.573C228.402 164.288 228.566 163.861 228.484 163.441L227.635 159.054C227.503 158.382 226.798 157.932 226.056 158.052C225.315 158.169 224.819 158.809 224.949 159.481L225.003 159.763C222.402 157.899 219.183 156.863 215.775 156.863C211.153 156.863 206.868 158.757 204.017 162.059C203.554 162.596 203.659 163.372 204.252 163.792C204.502 163.968 204.798 164.054 205.091 164.054C205.497 164.054 205.897 163.891 206.166 163.579C208.496 160.88 211.999 159.332 215.775 159.332C218.247 159.332 220.595 160.006 222.579 161.221C221.928 161.149 221.292 161.493 221.105 162.082Z" fill="white"/>
<path d="M204.017 162.059C203.554 162.596 203.659 163.372 204.252 163.792C204.502 163.968 204.798 164.053 205.091 164.053C205.497 164.053 205.897 163.891 206.166 163.579C207.621 161.893 209.534 160.656 211.686 159.965V157.396C208.684 158.166 206 159.762 204.017 162.059Z" fill="#FFF8C1"/>
<path d="M200.727 171.389L200.898 171.189C201.275 176.926 205.572 181.783 211.686 183.353V180.746C207.346 179.352 204.262 175.896 203.692 171.76C203.947 172.126 204.379 172.343 204.837 172.343C205.039 172.343 205.244 172.303 205.437 172.216C206.113 171.915 206.39 171.175 206.059 170.564L203.887 166.569C203.68 166.187 203.27 165.929 202.801 165.885C202.334 165.839 201.874 166.021 201.587 166.357L198.573 169.876C198.111 170.414 198.22 171.19 198.814 171.608C199.412 172.028 200.266 171.929 200.727 171.389Z" fill="#FFF8C1"/>
<path d="M205.577 63.3086C204.908 62.8378 203.919 62.9144 203.364 63.4786C202.809 64.0428 202.899 64.8812 203.565 65.3513L212.988 72L215 69.9574L205.577 63.3086Z" fill="#959CB5"/>
<path d="M229.506 70H203.494C202.573 70 201.735 70.46 201.239 71.1888C199.86 73.2165 198 74.963 198 74.963V132.037C198 132.037 199.86 133.783 201.239 135.811C201.735 136.54 202.573 137 203.494 137H229.506C230.427 137 231.265 136.54 231.761 135.811C233.14 133.783 235 132.037 235 132.037V74.963C235 74.963 233.14 73.2165 231.761 71.1888C231.265 70.4598 230.427 70 229.506 70Z" fill="#C7CFE2"/>
<path d="M217.36 135.811C216.356 133.783 215.003 132.037 215.003 132.037V74.963C215.003 74.963 216.356 73.2165 217.36 71.1888C217.72 70.4601 218.33 70 219 70H203.891C202.903 70 202.005 70.4598 201.473 71.1888C199.994 73.2165 198 74.963 198 74.963V132.037C198 132.037 199.994 133.783 201.473 135.811C202.005 136.54 202.903 137 203.891 137H219C218.33 137 217.72 136.54 217.36 135.811Z" fill="#AFB9D2"/>
<path d="M235.667 133H198.333C197.597 133 197 132.435 197 131.739V76.2609C197 75.5646 197.597 75 198.333 75H235.667C236.403 75 237 75.5646 237 76.2609V131.739C237 132.435 236.403 133 235.667 133Z" fill="#FFEF5C"/>
<path d="M211.769 131.739V76.2609C211.769 75.5646 212.32 75 213 75H198.231C197.551 75 197 75.5646 197 76.2609V131.739C197 132.435 197.551 133 198.231 133H213C212.32 133 211.769 132.435 211.769 131.739Z" fill="#FFEF5C"/>
<path d="M231.538 103.536C231.538 102.487 231.403 101.438 231.138 100.42C230.964 99.7559 230.226 99.3406 229.498 99.5022C228.765 99.6584 228.312 100.323 228.484 100.987C228.701 101.82 228.811 102.678 228.811 103.536C228.811 107.176 226.876 110.443 223.793 112.464C224.114 111.924 223.972 111.245 223.406 110.88C222.793 110.484 221.942 110.613 221.504 111.168L218.649 114.794C218.376 115.141 218.32 115.59 218.499 115.984C218.679 116.377 219.071 116.658 219.534 116.729L224.383 117.464C224.459 117.476 224.535 117.481 224.61 117.481C225.263 117.481 225.841 117.054 225.953 116.45C226.077 115.778 225.576 115.141 224.834 115.029L224.536 114.983C228.807 112.576 231.538 108.318 231.538 103.536Z" fill="white"/>
<path d="M213.808 114.28C208.794 113.207 205.164 109.46 204.539 104.926C204.794 105.291 205.226 105.509 205.684 105.509C205.886 105.509 206.091 105.468 206.284 105.381C206.96 105.081 207.237 104.34 206.906 103.729L204.734 99.734C204.527 99.3517 204.117 99.0937 203.648 99.0503C203.181 99.0045 202.722 99.1859 202.434 99.5224L199.42 103.041C198.958 103.58 199.067 104.355 199.661 104.773C200.259 105.193 201.113 105.094 201.574 104.554L201.745 104.354C202.135 110.295 206.722 115.301 213.182 116.683C213.288 116.706 213.393 116.716 213.497 116.716C214.114 116.716 214.673 116.333 214.822 115.765C214.996 115.102 214.542 114.437 213.808 114.28Z" fill="white"/>
<path d="M221.952 95.2467C221.745 95.902 222.161 96.5856 222.886 96.7743L227.611 98.0058C227.735 98.0383 227.862 98.0541 227.988 98.0541C228.32 98.0541 228.646 97.9444 228.899 97.7376C229.249 97.453 229.413 97.0257 229.331 96.6061L228.482 92.2192C228.35 91.5471 227.645 91.0972 226.903 91.2167C226.162 91.3344 225.667 91.9745 225.796 92.6461L225.85 92.9278C223.249 91.0641 220.03 90.0281 216.622 90.0281C212 90.0281 207.715 91.9217 204.865 95.2239C204.401 95.761 204.506 96.537 205.099 96.9571C205.349 97.1332 205.645 97.2187 205.938 97.2187C206.344 97.2187 206.744 97.056 207.013 96.7443C209.343 94.0454 212.846 92.4972 216.622 92.4972C219.095 92.4972 221.442 93.171 223.427 94.3858C222.775 94.3143 222.139 94.6579 221.952 95.2467Z" fill="white"/>
<path d="M204.865 95.2238C204.401 95.7609 204.506 96.5368 205.099 96.957C205.349 97.1331 205.645 97.2186 205.938 97.2186C206.344 97.2186 206.744 97.0558 207.013 96.7441C208.469 95.0584 210.381 93.8216 212.533 93.1307V90.561C209.531 91.3317 206.847 92.927 204.865 95.2238Z" fill="#FFF8C1"/>
<path d="M201.574 104.554L201.745 104.354C202.122 110.092 206.419 114.948 212.533 116.519V113.911C208.193 112.517 205.109 109.061 204.539 104.926C204.794 105.291 205.226 105.509 205.684 105.509C205.886 105.509 206.091 105.468 206.284 105.381C206.96 105.081 207.237 104.34 206.906 103.729L204.734 99.734C204.527 99.3517 204.117 99.0937 203.648 99.0503C203.181 99.0045 202.722 99.1859 202.434 99.5224L199.42 103.041C198.958 103.58 199.067 104.355 199.661 104.773C200.259 105.193 201.113 105.094 201.574 104.554Z" fill="#FFF8C1"/>
<path d="M205.147 198.309C204.59 197.838 203.766 197.914 203.303 198.479C202.841 199.043 202.916 199.881 203.471 200.351L211.323 207L213 204.957L205.147 198.309Z" fill="#959CB5"/>
<path d="M228.506 205H202.494C201.573 205 200.735 205.446 200.239 206.153C198.86 208.121 197 209.815 197 209.815V265.185C197 265.185 198.86 266.879 200.239 268.847C200.735 269.554 201.573 270 202.494 270H228.506C229.427 270 230.265 269.554 230.761 268.847C232.14 266.879 234 265.185 234 265.185V209.815C234 209.815 232.14 208.121 230.761 206.153C230.265 205.446 229.427 205 228.506 205Z" fill="#C7CFE2"/>
<path d="M213.594 268.847C212.734 266.879 211.574 265.185 211.574 265.185V209.815C211.574 209.815 212.734 208.121 213.594 206.153C213.903 205.446 214.426 205 215 205H202.049C201.203 205 200.433 205.446 199.977 206.153C198.709 208.121 197 209.815 197 209.815V265.185C197 265.185 198.709 266.879 199.977 268.847C200.433 269.554 201.203 270 202.049 270H215C214.426 270 213.903 269.554 213.594 268.847Z" fill="#AFB9D2"/>
<path d="M233.6 267H194.4C193.627 267 193 266.445 193 265.761V211.239C193 210.555 193.627 210 194.4 210H233.6C234.373 210 235 210.555 235 211.239V265.761C235 266.445 234.373 267 233.6 267Z" fill="#FFEF5C"/>
<path d="M211.462 265.761V211.239C211.462 210.555 212.15 210 213 210H194.538C193.689 210 193 210.555 193 211.239V265.761C193 266.445 193.689 267 194.538 267H213C212.15 267 211.462 266.445 211.462 265.761Z" fill="#FFEF5C"/>
<path d="M229.843 237.206C229.843 236.157 229.709 235.108 229.444 234.09C229.27 233.426 228.532 233.011 227.804 233.172C227.07 233.328 226.618 233.993 226.789 234.657C227.006 235.49 227.117 236.348 227.117 237.206C227.117 240.846 225.182 244.113 222.098 246.134C222.42 245.594 222.277 244.915 221.712 244.55C221.098 244.153 220.248 244.283 219.81 244.838L216.954 248.464C216.681 248.811 216.625 249.26 216.805 249.654C216.985 250.047 217.376 250.328 217.839 250.399L222.689 251.134C222.765 251.146 222.841 251.151 222.916 251.151C223.569 251.151 224.147 250.723 224.259 250.12C224.383 249.448 223.882 248.811 223.139 248.699L222.841 248.653C227.113 246.246 229.843 241.988 229.843 237.206Z" fill="white"/>
<path d="M212.114 247.95C207.099 246.877 203.469 243.13 202.845 238.596C203.099 238.961 203.532 239.179 203.989 239.179C204.191 239.179 204.396 239.138 204.589 239.051C205.266 238.751 205.542 238.01 205.211 237.399L203.04 233.404C202.832 233.022 202.422 232.764 201.953 232.72C201.486 232.675 201.027 232.856 200.739 233.192L197.725 236.711C197.263 237.25 197.373 238.026 197.966 238.443C198.564 238.863 199.418 238.764 199.879 238.224L200.051 238.024C200.44 243.965 205.027 248.971 211.488 250.353C211.593 250.376 211.698 250.386 211.802 250.386C212.419 250.386 212.979 250.003 213.128 249.435C213.301 248.772 212.847 248.107 212.114 247.95Z" fill="white"/>
<path d="M220.258 228.917C220.05 229.572 220.467 230.256 221.191 230.444L225.917 231.676C226.041 231.708 226.167 231.724 226.293 231.724C226.625 231.724 226.951 231.614 227.204 231.408C227.554 231.123 227.718 230.696 227.637 230.276L226.787 225.889C226.656 225.217 225.95 224.767 225.209 224.887C224.467 225.004 223.972 225.644 224.101 226.316L224.155 226.598C221.554 224.734 218.335 223.698 214.927 223.698C210.305 223.698 206.02 225.592 203.17 228.894C202.707 229.431 202.812 230.207 203.404 230.627C203.654 230.803 203.95 230.889 204.243 230.889C204.649 230.889 205.049 230.726 205.319 230.414C207.648 227.715 211.151 226.167 214.928 226.167C217.4 226.167 219.747 226.841 221.732 228.056C221.081 227.984 220.445 228.328 220.258 228.917Z" fill="white"/>
<path d="M203.171 228.894C202.708 229.431 202.813 230.207 203.406 230.627C203.656 230.803 203.951 230.889 204.244 230.889C204.65 230.889 205.051 230.726 205.32 230.414C206.775 228.728 208.688 227.492 210.839 226.801V224.231C207.838 225.002 205.154 226.597 203.171 228.894Z" fill="#FFF8C1"/>
<path d="M199.881 238.224L200.052 238.024C200.428 243.762 204.726 248.618 210.84 250.189V247.581C206.5 246.187 203.415 242.731 202.846 238.596C203.101 238.961 203.533 239.179 203.99 239.179C204.193 239.179 204.398 239.138 204.591 239.051C205.267 238.751 205.544 238.01 205.212 237.399L203.041 233.404C202.833 233.022 202.423 232.764 201.955 232.72C201.488 232.675 201.028 232.856 200.741 233.192L197.727 236.711C197.265 237.25 197.374 238.026 197.968 238.443C198.565 238.863 199.42 238.764 199.881 238.224Z" fill="#FFF8C1"/>
<path d="M204.362 264.309C203.749 263.838 202.842 263.914 202.333 264.479C201.825 265.043 201.907 265.881 202.518 266.351L211.155 273L213 270.957L204.362 264.309Z" fill="#959CB5"/>
<path d="M228.506 270H202.494C201.573 270 200.735 270.46 200.239 271.189C198.86 273.217 197 274.963 197 274.963V332.037C197 332.037 198.86 333.783 200.239 335.811C200.735 336.54 201.573 337 202.494 337H228.506C229.427 337 230.265 336.54 230.761 335.811C232.14 333.783 234 332.037 234 332.037V274.963C234 274.963 232.14 273.217 230.761 271.189C230.265 270.46 229.427 270 228.506 270Z" fill="#C7CFE2"/>
<path d="M213.594 335.811C212.734 333.783 211.574 332.037 211.574 332.037V274.963C211.574 274.963 212.734 273.217 213.594 271.189C213.903 270.46 214.426 270 215 270H202.049C201.203 270 200.433 270.46 199.977 271.189C198.709 273.217 197 274.963 197 274.963V332.037C197 332.037 198.709 333.783 199.977 335.811C200.433 336.54 201.203 337 202.049 337H215C214.426 337 213.903 336.54 213.594 335.811Z" fill="#AFB9D2"/>
<path d="M233.6 332H194.4C193.627 332 193 331.445 193 330.761V276.239C193 275.555 193.627 275 194.4 275H233.6C234.373 275 235 275.555 235 276.239V330.761C235 331.445 234.373 332 233.6 332Z" fill="#FFEF5C"/>
<path d="M208.692 330.761V276.239C208.692 275.555 209.278 275 210 275H194.308C193.586 275 193 275.555 193 276.239V330.761C193 331.445 193.586 332 194.308 332H210C209.278 332 208.692 331.445 208.692 330.761Z" fill="#FFEF5C"/>
<path d="M228.999 304.041C228.999 302.992 228.864 301.943 228.599 300.925C228.425 300.261 227.687 299.845 226.959 300.007C226.225 300.163 225.773 300.828 225.945 301.492C226.162 302.325 226.272 303.183 226.272 304.041C226.272 307.681 224.337 310.948 221.253 312.969C221.575 312.429 221.433 311.75 220.867 311.385C220.254 310.988 219.403 311.118 218.965 311.673L216.109 315.299C215.836 315.646 215.781 316.095 215.96 316.489C216.14 316.882 216.532 317.163 216.995 317.234L221.844 317.969C221.92 317.981 221.996 317.986 222.071 317.986C222.724 317.986 223.302 317.558 223.414 316.955C223.538 316.283 223.037 315.646 222.294 315.534L221.997 315.488C226.268 313.081 228.999 308.823 228.999 304.041Z" fill="white"/>
<path d="M211.268 314.785C206.254 313.712 202.624 309.965 201.999 305.431C202.254 305.796 202.686 306.014 203.144 306.014C203.346 306.014 203.551 305.973 203.744 305.886C204.42 305.586 204.697 304.845 204.366 304.234L202.194 300.239C201.987 299.857 201.577 299.599 201.108 299.555C200.641 299.51 200.181 299.691 199.894 300.027L196.88 303.546C196.418 304.085 196.527 304.86 197.121 305.278C197.719 305.698 198.573 305.599 199.034 305.059L199.205 304.859C199.595 310.8 204.182 315.806 210.642 317.188C210.747 317.211 210.853 317.221 210.957 317.221C211.574 317.221 212.133 316.838 212.282 316.27C212.456 315.607 212.002 314.942 211.268 314.785Z" fill="white"/>
<path d="M219.413 295.752C219.205 296.407 219.622 297.091 220.346 297.279L225.072 298.511C225.196 298.543 225.322 298.559 225.449 298.559C225.78 298.559 226.106 298.449 226.359 298.242C226.709 297.958 226.873 297.531 226.792 297.111L225.943 292.724C225.811 292.052 225.105 291.602 224.364 291.722C223.622 291.839 223.127 292.479 223.256 293.151L223.311 293.433C220.709 291.569 217.49 290.533 214.083 290.533C209.46 290.533 205.175 292.427 202.325 295.729C201.862 296.266 201.967 297.042 202.559 297.462C202.81 297.638 203.105 297.724 203.398 297.724C203.804 297.724 204.205 297.561 204.474 297.249C206.804 294.55 210.306 293.002 214.083 293.002C216.555 293.002 218.902 293.676 220.887 294.891C220.236 294.819 219.6 295.163 219.413 295.752Z" fill="white"/>
<path d="M202.325 295.729C201.862 296.266 201.967 297.042 202.559 297.462C202.81 297.638 203.105 297.724 203.398 297.724C203.804 297.724 204.205 297.561 204.474 297.249C205.929 295.563 207.842 294.327 209.993 293.636V291.066C206.992 291.837 204.307 293.432 202.325 295.729Z" fill="#FFF8C1"/>
<path d="M199.034 305.06L199.205 304.86C199.582 310.597 203.879 315.453 209.993 317.024V314.417C205.653 313.022 202.569 309.567 201.999 305.431C202.254 305.797 202.686 306.014 203.144 306.014C203.346 306.014 203.551 305.974 203.744 305.887C204.42 305.586 204.697 304.846 204.366 304.235L202.194 300.239C201.987 299.857 201.577 299.599 201.108 299.556C200.641 299.51 200.181 299.691 199.894 300.028L196.88 303.547C196.418 304.085 196.527 304.861 197.121 305.279C197.719 305.698 198.573 305.599 199.034 305.06Z" fill="#FFF8C1"/>
<path d="M120.5 183H137.5V191H120.5V183Z" fill="#E2AE6B"/>
<path d="M112 202H146V257H112V202Z" fill="#447F00"/>
<path d="M114 199H144L146 203H112L114 199Z" fill="#447F00"/>
<rect x="121.505" y="191" width="15" height="11" fill="#447F00"/>
<path d="M119 195H139L140.5 199L117 199.5L119 195Z" fill="#447F00"/>
<path opacity="0.9" d="M115.162 247.683C114.549 247.683 113.973 247.87 113.541 248.196C113.109 248.522 112.795 249.01 112.795 249.59V252.236C112.795 253.546 113.503 254.696 114.572 255.501C115.641 256.306 117.095 256.79 118.677 256.79H139.764C141.346 256.79 142.799 256.306 143.868 255.501C144.937 254.696 145.645 253.546 145.645 252.236V249.59C145.645 249.01 145.331 248.522 144.898 248.196C144.466 247.87 143.891 247.683 143.278 247.683H115.162ZM115.162 242.389C114.549 242.389 113.973 242.576 113.541 242.902C113.109 243.228 112.795 243.716 112.795 244.296C112.795 244.875 113.109 245.363 113.541 245.688C113.973 246.014 114.549 246.202 115.162 246.202H143.278C143.891 246.202 144.466 246.014 144.898 245.688C145.331 245.363 145.644 244.875 145.645 244.296C145.645 243.716 145.331 243.228 144.898 242.902C144.466 242.577 143.891 242.39 143.278 242.389H115.162ZM115.162 237.095C114.549 237.095 113.973 237.282 113.541 237.608C113.109 237.934 112.795 238.422 112.795 239.002C112.795 239.581 113.109 240.069 113.541 240.394C113.973 240.72 114.549 240.907 115.162 240.907H143.278C143.891 240.907 144.466 240.72 144.898 240.394C145.331 240.069 145.644 239.581 145.645 239.002C145.645 238.422 145.331 237.934 144.898 237.608C144.466 237.283 143.891 237.096 143.278 237.095H115.162ZM115.162 231.802C114.549 231.802 113.973 231.989 113.541 232.314C113.109 232.64 112.795 233.127 112.795 233.707C112.795 234.287 113.109 234.775 113.541 235.1C113.973 235.426 114.549 235.613 115.162 235.613H143.278C143.891 235.613 144.466 235.426 144.898 235.1C145.331 234.775 145.645 234.287 145.645 233.707C145.644 233.127 145.331 232.64 144.898 232.314C144.466 231.989 143.891 231.802 143.278 231.802H115.162ZM123.338 191.809C123.338 193.369 122.534 194.872 120.996 196.031L114.57 200.871C113.453 201.712 112.795 202.868 112.795 204.136V228.413C112.795 228.993 113.109 229.481 113.541 229.806C113.973 230.132 114.549 230.319 115.162 230.319H143.278C143.891 230.319 144.466 230.132 144.898 229.806C145.331 229.481 145.645 228.993 145.645 228.413V204.136C145.645 202.868 144.986 201.712 143.869 200.871L137.443 196.031C135.905 194.872 135.102 193.369 135.102 191.809V190.772H123.338V191.809ZM122.19 184.155C122.062 184.155 121.926 184.194 121.812 184.28C121.699 184.366 121.581 184.523 121.581 184.738V188.709C121.581 188.924 121.699 189.08 121.812 189.166C121.926 189.252 122.061 189.291 122.19 189.291H136.249C136.378 189.291 136.514 189.252 136.628 189.166C136.742 189.08 136.858 188.923 136.858 188.709V184.738C136.858 184.523 136.742 184.366 136.628 184.28C136.514 184.194 136.378 184.155 136.249 184.155H122.19ZM121.044 190.618L120.736 190.49C119.807 190.101 119.286 189.405 119.286 188.709V184.738C119.286 184.223 119.563 183.718 120.085 183.325C120.607 182.932 121.35 182.674 122.19 182.674H136.249C137.089 182.674 137.832 182.932 138.354 183.325C138.877 183.718 139.153 184.223 139.153 184.738V188.709C139.153 189.405 138.633 190.101 137.703 190.49L137.396 190.618V191.809C137.396 193.078 138.055 194.233 139.172 195.075L145.598 199.915C147.136 201.073 147.939 202.577 147.939 204.136V228.413C147.939 229.252 147.508 230.05 146.739 230.672L146.259 231.06L146.739 231.449C147.508 232.071 147.939 232.868 147.939 233.707C147.939 234.546 147.508 235.344 146.739 235.966L146.259 236.354L146.739 236.743C147.508 237.365 147.939 238.163 147.939 239.002C147.939 239.84 147.508 240.638 146.739 241.26L146.259 241.648L146.739 242.037C147.508 242.659 147.939 243.457 147.939 244.296C147.939 245.134 147.508 245.932 146.739 246.553L146.259 246.942L146.739 247.331C147.508 247.953 147.939 248.751 147.939 249.59V252.236C147.939 253.845 147.071 255.344 145.595 256.456C144.118 257.568 142.057 258.271 139.764 258.271H118.677C116.383 258.271 114.321 257.568 112.845 256.456C111.368 255.344 110.5 253.845 110.5 252.236V249.59C110.5 248.751 110.931 247.953 111.7 247.331L112.182 246.942L111.7 246.553C110.931 245.932 110.5 245.134 110.5 244.296C110.5 243.457 110.931 242.659 111.7 242.037L112.182 241.648L111.7 241.26C110.931 240.638 110.5 239.84 110.5 239.002C110.5 238.163 110.931 237.365 111.7 236.743L112.182 236.354L111.7 235.966C110.931 235.344 110.5 234.546 110.5 233.707C110.5 232.868 110.931 232.071 111.7 231.449L112.182 231.06L111.7 230.672C110.931 230.05 110.5 229.252 110.5 228.413V204.136C110.5 202.577 111.304 201.073 112.842 199.915L119.268 195.075C120.385 194.234 121.044 193.078 121.044 191.809V190.618Z" fill="black" stroke="black"/>
<path d="M129.146 225.447C133.93 225.447 137.822 222.515 137.822 218.912C137.822 215.761 131.724 208.952 130.501 207.619C130.194 207.283 129.687 207.083 129.146 207.083C128.604 207.083 128.098 207.283 127.79 207.619C126.568 208.952 120.469 215.761 120.469 218.912C120.469 222.515 124.362 225.447 129.146 225.447ZM127.046 213.158C127.79 212.19 128.54 211.285 129.15 210.569C131.711 213.571 134.527 217.433 134.527 218.912C134.527 221.147 132.113 222.965 129.146 222.965C126.178 222.965 123.764 221.147 123.764 218.912C123.764 218.464 124.084 217.006 127.046 213.158Z" fill="black"/>
<path d="M133.866 216.147C137.183 220.353 132.565 223.473 128.475 222.941C123.497 222.294 121.424 219.382 124.327 216.147C121.839 219.706 126.4 212.265 128.889 210C130.963 212.265 131.792 212.912 133.866 216.147Z" fill="#5DFFE4"/>
<path d="M120.5 257H137.5V265H120.5V257Z" fill="#E2AE6B"/>
<path d="M112 276H146V331H112V276Z" fill="#447F00"/>
<path d="M114 273H144L146 277H112L114 273Z" fill="#447F00"/>
<rect x="121.505" y="265" width="15" height="11" fill="#447F00"/>
<path d="M119 269H139L140.5 273L117 273.5L119 269Z" fill="#447F00"/>
<path opacity="0.9" d="M115.162 321.683C114.549 321.683 113.973 321.87 113.541 322.196C113.109 322.522 112.795 323.01 112.795 323.59V326.236C112.795 327.546 113.503 328.696 114.572 329.501C115.641 330.306 117.095 330.79 118.677 330.79H139.764C141.346 330.79 142.799 330.306 143.868 329.501C144.937 328.696 145.645 327.546 145.645 326.236V323.59C145.645 323.01 145.331 322.522 144.898 322.196C144.466 321.87 143.891 321.683 143.278 321.683H115.162ZM115.162 316.389C114.549 316.389 113.973 316.576 113.541 316.902C113.109 317.228 112.795 317.716 112.795 318.296C112.795 318.875 113.109 319.363 113.541 319.688C113.973 320.014 114.549 320.202 115.162 320.202H143.278C143.891 320.202 144.466 320.014 144.898 319.688C145.331 319.363 145.644 318.875 145.645 318.296C145.645 317.716 145.331 317.228 144.898 316.902C144.466 316.577 143.891 316.39 143.278 316.389H115.162ZM115.162 311.095C114.549 311.095 113.973 311.282 113.541 311.608C113.109 311.934 112.795 312.422 112.795 313.002C112.795 313.581 113.109 314.069 113.541 314.394C113.973 314.72 114.549 314.907 115.162 314.907H143.278C143.891 314.907 144.466 314.72 144.898 314.394C145.331 314.069 145.644 313.581 145.645 313.002C145.645 312.422 145.331 311.934 144.898 311.608C144.466 311.283 143.891 311.096 143.278 311.095H115.162ZM115.162 305.802C114.549 305.802 113.973 305.989 113.541 306.314C113.109 306.64 112.795 307.127 112.795 307.707C112.795 308.287 113.109 308.775 113.541 309.1C113.973 309.426 114.549 309.613 115.162 309.613H143.278C143.891 309.613 144.466 309.426 144.898 309.1C145.331 308.775 145.645 308.287 145.645 307.707C145.644 307.127 145.331 306.64 144.898 306.314C144.466 305.989 143.891 305.802 143.278 305.802H115.162ZM123.338 265.809C123.338 267.369 122.534 268.872 120.996 270.031L114.57 274.871C113.453 275.712 112.795 276.868 112.795 278.136V302.413C112.795 302.993 113.109 303.481 113.541 303.806C113.973 304.132 114.549 304.319 115.162 304.319H143.278C143.891 304.319 144.466 304.132 144.898 303.806C145.331 303.481 145.645 302.993 145.645 302.413V278.136C145.645 276.868 144.986 275.712 143.869 274.871L137.443 270.031C135.905 268.872 135.102 267.369 135.102 265.809V264.772H123.338V265.809ZM122.19 258.155C122.062 258.155 121.926 258.194 121.812 258.28C121.699 258.366 121.581 258.523 121.581 258.738V262.709C121.581 262.924 121.699 263.08 121.812 263.166C121.926 263.252 122.061 263.291 122.19 263.291H136.249C136.378 263.291 136.514 263.252 136.628 263.166C136.742 263.08 136.858 262.923 136.858 262.709V258.738C136.858 258.523 136.742 258.366 136.628 258.28C136.514 258.194 136.378 258.155 136.249 258.155H122.19ZM121.044 264.618L120.736 264.49C119.807 264.101 119.286 263.405 119.286 262.709V258.738C119.286 258.223 119.563 257.718 120.085 257.325C120.607 256.932 121.35 256.674 122.19 256.674H136.249C137.089 256.674 137.832 256.932 138.354 257.325C138.877 257.718 139.153 258.223 139.153 258.738V262.709C139.153 263.405 138.633 264.101 137.703 264.49L137.396 264.618V265.809C137.396 267.078 138.055 268.233 139.172 269.075L145.598 273.915C147.136 275.073 147.939 276.577 147.939 278.136V302.413C147.939 303.252 147.508 304.05 146.739 304.672L146.259 305.06L146.739 305.449C147.508 306.071 147.939 306.868 147.939 307.707C147.939 308.546 147.508 309.344 146.739 309.966L146.259 310.354L146.739 310.743C147.508 311.365 147.939 312.163 147.939 313.002C147.939 313.84 147.508 314.638 146.739 315.26L146.259 315.648L146.739 316.037C147.508 316.659 147.939 317.457 147.939 318.296C147.939 319.134 147.508 319.932 146.739 320.553L146.259 320.942L146.739 321.331C147.508 321.953 147.939 322.751 147.939 323.59V326.236C147.939 327.845 147.071 329.344 145.595 330.456C144.118 331.568 142.057 332.271 139.764 332.271H118.677C116.383 332.271 114.321 331.568 112.845 330.456C111.368 329.344 110.5 327.845 110.5 326.236V323.59C110.5 322.751 110.931 321.953 111.7 321.331L112.182 320.942L111.7 320.553C110.931 319.932 110.5 319.134 110.5 318.296C110.5 317.457 110.931 316.659 111.7 316.037L112.182 315.648L111.7 315.26C110.931 314.638 110.5 313.84 110.5 313.002C110.5 312.163 110.931 311.365 111.7 310.743L112.182 310.354L111.7 309.966C110.931 309.344 110.5 308.546 110.5 307.707C110.5 306.868 110.931 306.071 111.7 305.449L112.182 305.06L111.7 304.672C110.931 304.05 110.5 303.252 110.5 302.413V278.136C110.5 276.577 111.304 275.073 112.842 273.915L119.268 269.075C120.385 268.234 121.044 267.078 121.044 265.809V264.618Z" fill="black" stroke="black"/>
<path d="M129.146 299.447C133.93 299.447 137.822 296.515 137.822 292.912C137.822 289.761 131.724 282.952 130.501 281.619C130.194 281.283 129.687 281.083 129.146 281.083C128.604 281.083 128.098 281.283 127.79 281.619C126.568 282.952 120.469 289.761 120.469 292.912C120.469 296.515 124.362 299.447 129.146 299.447ZM127.046 287.158C127.79 286.19 128.54 285.285 129.15 284.569C131.711 287.571 134.527 291.433 134.527 292.912C134.527 295.147 132.113 296.965 129.146 296.965C126.178 296.965 123.764 295.147 123.764 292.912C123.764 292.464 124.084 291.006 127.046 287.158Z" fill="black"/>
<path d="M133.866 290.147C137.183 294.353 132.565 297.473 128.475 296.941C123.497 296.294 121.424 293.382 124.327 290.147C121.839 293.706 126.4 286.265 128.889 284C130.963 286.265 131.792 286.912 133.866 290.147Z" fill="#5DFFE4"/>
<path d="M121.5 332H138.5V340H121.5V332Z" fill="#E2AE6B"/>
<path d="M113 351H147V406H113V351Z" fill="#447F00"/>
<path d="M115 348H145L147 352H113L115 348Z" fill="#447F00"/>
<rect x="122.505" y="340" width="15" height="11" fill="#447F00"/>
<path d="M120 344H140L141.5 348L118 348.5L120 344Z" fill="#447F00"/>
<path opacity="0.9" d="M116.162 396.683C115.549 396.683 114.973 396.87 114.541 397.196C114.109 397.522 113.795 398.01 113.795 398.59V401.236C113.795 402.546 114.503 403.696 115.572 404.501C116.641 405.306 118.095 405.79 119.677 405.79H140.764C142.346 405.79 143.799 405.306 144.868 404.501C145.937 403.696 146.645 402.546 146.645 401.236V398.59C146.645 398.01 146.331 397.522 145.898 397.196C145.466 396.87 144.891 396.683 144.278 396.683H116.162ZM116.162 391.389C115.549 391.389 114.973 391.576 114.541 391.902C114.109 392.228 113.795 392.716 113.795 393.296C113.795 393.875 114.109 394.363 114.541 394.688C114.973 395.014 115.549 395.202 116.162 395.202H144.278C144.891 395.202 145.466 395.014 145.898 394.688C146.331 394.363 146.644 393.875 146.645 393.296C146.645 392.716 146.331 392.228 145.898 391.902C145.466 391.577 144.891 391.39 144.278 391.389H116.162ZM116.162 386.095C115.549 386.095 114.973 386.282 114.541 386.608C114.109 386.934 113.795 387.422 113.795 388.002C113.795 388.581 114.109 389.069 114.541 389.394C114.973 389.72 115.549 389.907 116.162 389.907H144.278C144.891 389.907 145.466 389.72 145.898 389.394C146.331 389.069 146.644 388.581 146.645 388.002C146.645 387.422 146.331 386.934 145.898 386.608C145.466 386.283 144.891 386.096 144.278 386.095H116.162ZM116.162 380.802C115.549 380.802 114.973 380.989 114.541 381.314C114.109 381.64 113.795 382.127 113.795 382.707C113.795 383.287 114.109 383.775 114.541 384.1C114.973 384.426 115.549 384.613 116.162 384.613H144.278C144.891 384.613 145.466 384.426 145.898 384.1C146.331 383.775 146.645 383.287 146.645 382.707C146.644 382.127 146.331 381.64 145.898 381.314C145.466 380.989 144.891 380.802 144.278 380.802H116.162ZM124.338 340.809C124.338 342.369 123.534 343.872 121.996 345.031L115.57 349.871C114.453 350.712 113.795 351.868 113.795 353.136V377.413C113.795 377.993 114.109 378.481 114.541 378.806C114.973 379.132 115.549 379.319 116.162 379.319H144.278C144.891 379.319 145.466 379.132 145.898 378.806C146.331 378.481 146.645 377.993 146.645 377.413V353.136C146.645 351.868 145.986 350.712 144.869 349.871L138.443 345.031C136.905 343.872 136.102 342.369 136.102 340.809V339.772H124.338V340.809ZM123.19 333.155C123.062 333.155 122.926 333.194 122.812 333.28C122.699 333.366 122.581 333.523 122.581 333.738V337.709C122.581 337.924 122.699 338.08 122.812 338.166C122.926 338.252 123.061 338.291 123.19 338.291H137.249C137.378 338.291 137.514 338.252 137.628 338.166C137.742 338.08 137.858 337.923 137.858 337.709V333.738C137.858 333.523 137.742 333.366 137.628 333.28C137.514 333.194 137.378 333.155 137.249 333.155H123.19ZM122.044 339.618L121.736 339.49C120.807 339.101 120.286 338.405 120.286 337.709V333.738C120.286 333.223 120.563 332.718 121.085 332.325C121.607 331.932 122.35 331.674 123.19 331.674H137.249C138.089 331.674 138.832 331.932 139.354 332.325C139.877 332.718 140.153 333.223 140.153 333.738V337.709C140.153 338.405 139.633 339.101 138.703 339.49L138.396 339.618V340.809C138.396 342.078 139.055 343.233 140.172 344.075L146.598 348.915C148.136 350.073 148.939 351.577 148.939 353.136V377.413C148.939 378.252 148.508 379.05 147.739 379.672L147.259 380.06L147.739 380.449C148.508 381.071 148.939 381.868 148.939 382.707C148.939 383.546 148.508 384.344 147.739 384.966L147.259 385.354L147.739 385.743C148.508 386.365 148.939 387.163 148.939 388.002C148.939 388.84 148.508 389.638 147.739 390.26L147.259 390.648L147.739 391.037C148.508 391.659 148.939 392.457 148.939 393.296C148.939 394.134 148.508 394.932 147.739 395.553L147.259 395.942L147.739 396.331C148.508 396.953 148.939 397.751 148.939 398.59V401.236C148.939 402.845 148.071 404.344 146.595 405.456C145.118 406.568 143.057 407.271 140.764 407.271H119.677C117.383 407.271 115.321 406.568 113.845 405.456C112.368 404.344 111.5 402.845 111.5 401.236V398.59C111.5 397.751 111.931 396.953 112.7 396.331L113.182 395.942L112.7 395.553C111.931 394.932 111.5 394.134 111.5 393.296C111.5 392.457 111.931 391.659 112.7 391.037L113.182 390.648L112.7 390.26C111.931 389.638 111.5 388.84 111.5 388.002C111.5 387.163 111.931 386.365 112.7 385.743L113.182 385.354L112.7 384.966C111.931 384.344 111.5 383.546 111.5 382.707C111.5 381.868 111.931 381.071 112.7 380.449L113.182 380.06L112.7 379.672C111.931 379.05 111.5 378.252 111.5 377.413V353.136C111.5 351.577 112.304 350.073 113.842 348.915L120.268 344.075C121.385 343.234 122.044 342.078 122.044 340.809V339.618Z" fill="black" stroke="black"/>
<path d="M130.146 374.447C134.93 374.447 138.822 371.515 138.822 367.912C138.822 364.761 132.724 357.952 131.501 356.619C131.194 356.283 130.687 356.083 130.146 356.083C129.604 356.083 129.098 356.283 128.79 356.619C127.568 357.952 121.469 364.761 121.469 367.912C121.469 371.515 125.362 374.447 130.146 374.447ZM128.046 362.158C128.79 361.19 129.54 360.285 130.15 359.569C132.711 362.571 135.527 366.433 135.527 367.912C135.527 370.147 133.113 371.965 130.146 371.965C127.178 371.965 124.764 370.147 124.764 367.912C124.764 367.464 125.084 366.006 128.046 362.158Z" fill="black"/>
<path d="M134.866 365.147C138.183 369.353 133.565 372.473 129.475 371.941C124.497 371.294 122.424 368.382 125.327 365.147C122.839 368.706 127.4 361.265 129.889 359C131.963 361.265 132.792 361.912 134.866 365.147Z" fill="#5DFFE4"/>
<path d="M70.5591 406.69H9.78689C5.85613 406.69 2.66943 403.931 2.66943 400.528V390.101C2.66943 386.699 5.85613 383.94 9.78689 383.94H70.5589C74.4896 383.94 77.6763 386.699 77.6763 390.101V400.528C77.6766 403.931 74.4899 406.69 70.5591 406.69Z" fill="#020202"/>
<path d="M70.5591 383.94H9.78689C5.85613 383.94 2.66943 381.181 2.66943 377.778V367.352C2.66943 363.949 5.85613 361.19 9.78689 361.19H70.5589C74.4896 361.19 77.6763 363.949 77.6763 367.352V377.778C77.6766 381.181 74.4899 383.94 70.5591 383.94Z" fill="#020202"/>
<path d="M70.5591 361.19H9.78689C5.85613 361.19 2.66943 358.431 2.66943 355.029V344.602C2.66943 341.199 5.85613 338.44 9.78689 338.44H70.5589C74.4896 338.44 77.6763 341.199 77.6763 344.602V355.029C77.6766 358.432 74.4899 361.19 70.5591 361.19Z" fill="#EAE8E8"/>
<path d="M70.5591 338.441H9.78689C5.85613 338.441 2.66943 335.682 2.66943 332.279V321.852C2.66943 318.45 5.85613 315.691 9.78689 315.691H70.5589C74.4896 315.691 77.6763 318.45 77.6763 321.852V332.279C77.6766 335.682 74.4899 338.441 70.5591 338.441Z" fill="#EAE8E8"/>
<path d="M53.5865 305.028H26.7598V315.692H53.5865V305.028Z" fill="#EAE8E8"/>
<path d="M57.1457 305.027H23.2007V298.51C23.2007 296.743 24.855 295.311 26.8964 295.311H53.4502C55.4911 295.311 57.1459 296.743 57.1459 298.51V305.027H57.1457Z" fill="#FFBA7A"/>
<path d="M80.346 332.279V321.852C80.346 317.18 75.9556 313.38 70.5592 313.38H56.2563V307.338H57.1456C58.6196 307.338 59.8149 306.303 59.8149 305.027V298.51C59.8149 295.472 56.9598 293 53.4499 293H26.8961C23.3864 293 20.5311 295.472 20.5311 298.51V305.027C20.5311 306.303 21.7264 307.338 23.2004 307.338H24.0897V313.38H9.78673C4.39008 313.38 0 317.18 0 321.852V332.279C0 334.705 1.18559 336.894 3.07991 338.44C1.18585 339.986 0 342.175 0 344.602V355.028C0 357.454 1.18559 359.644 3.07991 361.19C1.18585 362.736 0 364.925 0 367.351V377.778C0 380.204 1.18559 382.394 3.07991 383.939C1.18585 385.485 0 387.675 0 390.101V400.528C0 405.199 4.39034 409 9.78673 409H70.5587C75.9554 409 80.3454 405.199 80.3454 400.528V390.101C80.3454 387.675 79.1599 385.485 77.2655 383.939C79.1596 382.394 80.3454 380.204 80.3454 377.778V367.351C80.3454 364.925 79.1599 362.736 77.2655 361.19C79.1596 359.644 80.3454 357.454 80.3454 355.028V344.602C80.3454 342.175 79.1599 339.986 77.2655 338.44C79.1601 336.895 80.346 334.705 80.346 332.279ZM25.8702 302.716V298.51C25.8702 298.02 26.3305 297.621 26.8966 297.621H53.4501C54.016 297.621 54.4766 298.02 54.4766 298.51V302.716C54.4763 302.716 25.8702 302.716 25.8702 302.716ZM29.4288 307.338H50.9175V313.38H29.4288V307.338ZM75.0074 390.101V400.528C75.0074 402.651 73.0118 404.379 70.5592 404.379H9.78699C7.33442 404.379 5.33881 402.651 5.33881 400.528V390.101C5.33881 387.978 7.33442 386.251 9.78699 386.251H70.559C73.0118 386.251 75.0074 387.978 75.0074 390.101ZM75.0074 367.352V377.778C75.0074 379.902 73.0118 381.629 70.5592 381.629H9.78699C7.33442 381.629 5.33881 379.902 5.33881 377.778V367.352C5.33881 365.228 7.33442 363.501 9.78699 363.501H70.559C73.0118 363.501 75.0074 365.228 75.0074 367.352ZM75.0074 344.602V355.029C75.0074 357.152 73.0118 358.879 70.5592 358.879H9.78699C7.33442 358.879 5.33881 357.152 5.33881 355.029V344.602C5.33881 342.479 7.33442 340.751 9.78699 340.751H70.559C73.0118 340.751 75.0074 342.478 75.0074 344.602ZM70.5592 318.001C73.0118 318.001 75.0074 319.729 75.0074 321.852V332.279C75.0074 334.402 73.0118 336.129 70.5592 336.129H9.78699C7.33442 336.129 5.33881 334.402 5.33881 332.279V321.852C5.33881 319.729 7.33442 318.001 9.78699 318.001H70.5592Z" fill="#020202"/>
<path d="M38.2567 378.729H39.8992C41.3732 378.729 42.5685 377.694 42.5685 376.418C42.5685 375.142 41.3732 374.108 39.8992 374.108H38.2567C36.7827 374.108 35.5874 375.142 35.5874 376.418C35.5874 377.694 36.7827 378.729 38.2567 378.729Z" fill="#020202"/>
<path d="M120.5 183H137.5V191H120.5V183Z" fill="#E2AE6B"/>
<path d="M112 202H146V257H112V202Z" fill="#447F00"/>
<path d="M114 199H144L146 203H112L114 199Z" fill="#447F00"/>
<rect x="121.505" y="191" width="15" height="11" fill="#447F00"/>
<path d="M119 195H139L140.5 199L117 199.5L119 195Z" fill="#447F00"/>
<path opacity="0.9" d="M115.162 247.683C114.549 247.683 113.973 247.87 113.541 248.196C113.109 248.522 112.795 249.01 112.795 249.59V252.236C112.795 253.546 113.503 254.696 114.572 255.501C115.641 256.306 117.095 256.79 118.677 256.79H139.764C141.346 256.79 142.799 256.306 143.868 255.501C144.937 254.696 145.645 253.546 145.645 252.236V249.59C145.645 249.01 145.331 248.522 144.898 248.196C144.466 247.87 143.891 247.683 143.278 247.683H115.162ZM115.162 242.389C114.549 242.389 113.973 242.576 113.541 242.902C113.109 243.228 112.795 243.716 112.795 244.296C112.795 244.875 113.109 245.363 113.541 245.688C113.973 246.014 114.549 246.202 115.162 246.202H143.278C143.891 246.202 144.466 246.014 144.898 245.688C145.331 245.363 145.644 244.875 145.645 244.296C145.645 243.716 145.331 243.228 144.898 242.902C144.466 242.577 143.891 242.39 143.278 242.389H115.162ZM115.162 237.095C114.549 237.095 113.973 237.282 113.541 237.608C113.109 237.934 112.795 238.422 112.795 239.002C112.795 239.581 113.109 240.069 113.541 240.394C113.973 240.72 114.549 240.907 115.162 240.907H143.278C143.891 240.907 144.466 240.72 144.898 240.394C145.331 240.069 145.644 239.581 145.645 239.002C145.645 238.422 145.331 237.934 144.898 237.608C144.466 237.283 143.891 237.096 143.278 237.095H115.162ZM115.162 231.802C114.549 231.802 113.973 231.989 113.541 232.314C113.109 232.64 112.795 233.127 112.795 233.707C112.795 234.287 113.109 234.775 113.541 235.1C113.973 235.426 114.549 235.613 115.162 235.613H143.278C143.891 235.613 144.466 235.426 144.898 235.1C145.331 234.775 145.645 234.287 145.645 233.707C145.644 233.127 145.331 232.64 144.898 232.314C144.466 231.989 143.891 231.802 143.278 231.802H115.162ZM123.338 191.809C123.338 193.369 122.534 194.872 120.996 196.031L114.57 200.871C113.453 201.712 112.795 202.868 112.795 204.136V228.413C112.795 228.993 113.109 229.481 113.541 229.806C113.973 230.132 114.549 230.319 115.162 230.319H143.278C143.891 230.319 144.466 230.132 144.898 229.806C145.331 229.481 145.645 228.993 145.645 228.413V204.136C145.645 202.868 144.986 201.712 143.869 200.871L137.443 196.031C135.905 194.872 135.102 193.369 135.102 191.809V190.772H123.338V191.809ZM122.19 184.155C122.062 184.155 121.926 184.194 121.812 184.28C121.699 184.366 121.581 184.523 121.581 184.738V188.709C121.581 188.924 121.699 189.08 121.812 189.166C121.926 189.252 122.061 189.291 122.19 189.291H136.249C136.378 189.291 136.514 189.252 136.628 189.166C136.742 189.08 136.858 188.923 136.858 188.709V184.738C136.858 184.523 136.742 184.366 136.628 184.28C136.514 184.194 136.378 184.155 136.249 184.155H122.19ZM121.044 190.618L120.736 190.49C119.807 190.101 119.286 189.405 119.286 188.709V184.738C119.286 184.223 119.563 183.718 120.085 183.325C120.607 182.932 121.35 182.674 122.19 182.674H136.249C137.089 182.674 137.832 182.932 138.354 183.325C138.877 183.718 139.153 184.223 139.153 184.738V188.709C139.153 189.405 138.633 190.101 137.703 190.49L137.396 190.618V191.809C137.396 193.078 138.055 194.233 139.172 195.075L145.598 199.915C147.136 201.073 147.939 202.577 147.939 204.136V228.413C147.939 229.252 147.508 230.05 146.739 230.672L146.259 231.06L146.739 231.449C147.508 232.071 147.939 232.868 147.939 233.707C147.939 234.546 147.508 235.344 146.739 235.966L146.259 236.354L146.739 236.743C147.508 237.365 147.939 238.163 147.939 239.002C147.939 239.84 147.508 240.638 146.739 241.26L146.259 241.648L146.739 242.037C147.508 242.659 147.939 243.457 147.939 244.296C147.939 245.134 147.508 245.932 146.739 246.553L146.259 246.942L146.739 247.331C147.508 247.953 147.939 248.751 147.939 249.59V252.236C147.939 253.845 147.071 255.344 145.595 256.456C144.118 257.568 142.057 258.271 139.764 258.271H118.677C116.383 258.271 114.321 257.568 112.845 256.456C111.368 255.344 110.5 253.845 110.5 252.236V249.59C110.5 248.751 110.931 247.953 111.7 247.331L112.182 246.942L111.7 246.553C110.931 245.932 110.5 245.134 110.5 244.296C110.5 243.457 110.931 242.659 111.7 242.037L112.182 241.648L111.7 241.26C110.931 240.638 110.5 239.84 110.5 239.002C110.5 238.163 110.931 237.365 111.7 236.743L112.182 236.354L111.7 235.966C110.931 235.344 110.5 234.546 110.5 233.707C110.5 232.868 110.931 232.071 111.7 231.449L112.182 231.06L111.7 230.672C110.931 230.05 110.5 229.252 110.5 228.413V204.136C110.5 202.577 111.304 201.073 112.842 199.915L119.268 195.075C120.385 194.234 121.044 193.078 121.044 191.809V190.618Z" fill="black" stroke="black"/>
<path d="M129.146 225.447C133.93 225.447 137.822 222.515 137.822 218.912C137.822 215.761 131.724 208.952 130.501 207.619C130.194 207.283 129.687 207.083 129.146 207.083C128.604 207.083 128.098 207.283 127.79 207.619C126.568 208.952 120.469 215.761 120.469 218.912C120.469 222.515 124.362 225.447 129.146 225.447ZM127.046 213.158C127.79 212.19 128.54 211.285 129.15 210.569C131.711 213.571 134.527 217.433 134.527 218.912C134.527 221.147 132.113 222.965 129.146 222.965C126.178 222.965 123.764 221.147 123.764 218.912C123.764 218.464 124.084 217.006 127.046 213.158Z" fill="black"/>
<path d="M133.866 216.147C137.183 220.353 132.565 223.473 128.475 222.941C123.497 222.294 121.424 219.382 124.327 216.147C121.839 219.706 126.4 212.265 128.889 210C130.963 212.265 131.792 212.912 133.866 216.147Z" fill="#5DFFE4"/>
<path d="M228.506 5H202.494C201.573 5 200.735 5.45309 200.239 6.1711C198.86 8.16852 197 9.88891 197 9.88891V66.1111C197 66.1111 198.86 67.8315 200.239 69.8289C200.735 70.5468 201.573 71 202.494 71H228.506C229.427 71 230.265 70.5469 230.761 69.8289C232.14 67.8313 234 66.1111 234 66.1111V9.88891C234 9.88891 232.14 8.16852 230.761 6.1711C230.265 5.45295 229.427 5 228.506 5Z" fill="#C7CFE2"/>
<path d="M216.36 69.8289C215.356 67.8315 214.003 66.1111 214.003 66.1111V9.88891C214.003 9.88891 215.356 8.16852 216.36 6.1711C216.72 5.45323 217.33 5 218 5H202.891C201.903 5 201.005 5.45295 200.473 6.1711C198.994 8.16852 197 9.88891 197 9.88891V66.1111C197 66.1111 198.994 67.8315 200.473 69.8289C201.005 70.5468 201.903 71 202.891 71H218C217.33 70.9999 216.72 70.5468 216.36 69.8289Z" fill="#AFB9D2"/>
<path d="M234.667 67H197.333C196.597 67 196 66.4354 196 65.7391V10.2609C196 9.56462 196.597 9 197.333 9H234.667C235.403 9 236 9.56462 236 10.2609V65.7391C236 66.4354 235.403 67 234.667 67Z" fill="#FFEF5C"/>
<path d="M212.615 65.7391V10.2609C212.615 9.56462 213.235 9 214 9H197.385C196.62 9 196 9.56462 196 10.2609V65.7391C196 66.4354 196.62 67 197.385 67H214C213.235 67 212.615 66.4354 212.615 65.7391Z" fill="#FFEF5C"/>
<path d="M231.383 37.7013C231.383 36.6524 231.249 35.6034 230.984 34.5853C230.81 33.9209 230.072 33.5056 229.344 33.6672C228.61 33.8235 228.158 34.4883 228.329 35.152C228.546 35.985 228.657 36.843 228.657 37.7015C228.657 41.341 226.722 44.6081 223.638 46.6292C223.96 46.0892 223.817 45.4104 223.252 45.0452C222.638 44.6486 221.788 44.7782 221.35 45.3333L218.494 48.9594C218.221 49.3059 218.165 49.7551 218.345 50.1487C218.525 50.5418 218.916 50.8232 219.379 50.8938L224.229 51.6293C224.305 51.6407 224.381 51.6461 224.456 51.6461C225.109 51.6461 225.687 51.2186 225.799 50.6152C225.923 49.9432 225.422 49.3065 224.679 49.1937L224.381 49.1484C228.653 46.7412 231.383 42.4833 231.383 37.7013Z" fill="white"/>
<path d="M213.654 48.445C208.639 47.3722 205.009 43.6249 204.385 39.0906C204.639 39.4562 205.072 39.6736 205.529 39.6736C205.731 39.6736 205.936 39.6332 206.129 39.5464C206.806 39.2457 207.083 38.5053 206.751 37.8941L204.58 33.899C204.372 33.5167 203.962 33.2588 203.493 33.2154C203.026 33.1696 202.567 33.351 202.279 33.6874L199.265 37.2062C198.803 37.7446 198.913 38.5205 199.506 38.9382C200.104 39.3578 200.958 39.2589 201.419 38.7194L201.591 38.5194C201.98 44.4596 206.567 49.4663 213.028 50.848C213.133 50.8709 213.238 50.8811 213.342 50.8811C213.959 50.8811 214.519 50.4984 214.668 49.9305C214.841 49.2668 214.387 48.6018 213.654 48.445Z" fill="white"/>
<path d="M221.798 29.4117C221.59 30.067 222.007 30.7507 222.731 30.9393L227.457 32.1708C227.581 32.2034 227.707 32.2192 227.833 32.2192C228.165 32.2192 228.491 32.1095 228.744 31.9026C229.094 31.6181 229.258 31.1907 229.177 30.7711L228.327 26.3842C228.196 25.7121 227.49 25.2623 226.749 25.3818C226.007 25.4994 225.512 26.1395 225.641 26.8112L225.695 27.0929C223.094 25.2291 219.875 24.1931 216.467 24.1931C211.845 24.1931 207.56 26.0867 204.71 29.389C204.247 29.9261 204.352 30.702 204.944 31.1221C205.194 31.2983 205.49 31.3838 205.783 31.3838C206.189 31.3838 206.59 31.221 206.859 30.9093C209.188 28.2104 212.691 26.6622 216.468 26.6622C218.94 26.6622 221.287 27.336 223.272 28.5509C222.621 28.4793 221.985 28.8229 221.798 29.4117Z" fill="white"/>
<path d="M204.711 29.3886C204.248 29.9257 204.353 30.7016 204.946 31.1218C205.196 31.2979 205.491 31.3834 205.784 31.3834C206.19 31.3834 206.591 31.2206 206.86 30.9089C208.315 29.2231 210.228 27.9864 212.38 27.2955V24.7258C209.378 25.4965 206.694 27.0918 204.711 29.3886Z" fill="#FFF8C1"/>
<path d="M201.42 38.7193L201.592 38.5193C201.968 44.2565 206.265 49.1127 212.379 50.6835V48.0761C208.039 46.6818 204.955 43.226 204.386 39.0905C204.64 39.4561 205.073 39.6735 205.53 39.6735C205.732 39.6735 205.937 39.6331 206.13 39.5463C206.807 39.2455 207.083 38.5052 206.752 37.894L204.581 33.8989C204.373 33.5166 203.963 33.2586 203.494 33.2153C203.027 33.1694 202.568 33.3508 202.28 33.6873L199.266 37.2061C198.804 37.7444 198.914 38.5204 199.507 38.9381C200.105 39.3577 200.96 39.2589 201.42 38.7193Z" fill="#FFF8C1"/>
</svg>
