<svg width="140" height="189" viewBox="0 0 140 189" fill="none" xmlns="http://www.w3.org/2000/svg">
<path d="M135.364 24.2631H95.2778V12.9468C95.2778 5.70706 89.2169 0 81.6748 0H58.3256C50.7827 0 44.7222 5.70706 44.7222 12.9468V24.2631H4.63555C2.1525 24.2631 0 26.2273 0 28.6103V45.6658C0 48.0492 2.1525 50.0193 4.63555 50.0193H9.324C9.31583 50.2105 9.33333 50.4023 9.33333 50.5953V175.295C9.33333 182.797 15.6446 188.879 23.4605 188.879H116.54C124.355 188.879 130.667 182.797 130.667 175.295V50.5953C130.667 50.4019 130.685 50.2105 130.676 50.0193H135.364C137.847 50.0193 140 48.0492 140 45.6662V28.6103C140 26.2273 137.848 24.2631 135.364 24.2631ZM58.3333 13.0648H81.6667V24.2631H58.3333V13.0648Z" fill="#597B91"/>
<path d="M130.691 60.3192H9.30859V50.5953H130.691V60.3192H130.691ZM41.7384 165.876V78.8693C41.7384 78.1565 41.4434 77.4729 40.9183 76.9689C40.3932 76.4649 39.681 76.1817 38.9384 76.1817H34.9531C34.2105 76.1817 33.4983 76.4649 32.9732 76.9689C32.4481 77.4729 32.1531 78.1565 32.1531 78.8693V165.876C32.1531 166.589 32.4481 167.272 32.9732 167.777C33.4983 168.281 34.2105 168.564 34.9531 168.564H38.9384C39.6811 168.564 40.3933 168.28 40.9184 167.776C41.4434 167.272 41.7384 166.589 41.7384 165.876ZM74.7924 165.876V78.8693C74.7924 78.1565 74.4974 77.4729 73.9723 76.9689C73.4472 76.4649 72.735 76.1817 71.9924 76.1817H68.0071C67.2645 76.1817 66.5523 76.4649 66.0272 76.9689C65.5021 77.4729 65.2071 78.1565 65.2071 78.8693V165.876C65.2071 166.589 65.5021 167.272 66.0272 167.777C66.5523 168.281 67.2645 168.564 68.0071 168.564H71.9924C72.3602 168.564 72.7243 168.494 73.064 168.359C73.4038 168.224 73.7125 168.026 73.9725 167.776C74.2325 167.527 74.4387 167.23 74.5794 166.904C74.7201 166.578 74.7925 166.229 74.7924 165.876ZM107.847 165.876V78.8693C107.847 78.1565 107.552 77.4729 107.027 76.9689C106.502 76.4649 105.789 76.1817 105.047 76.1817H101.061C100.319 76.1817 99.6067 76.4649 99.0816 76.9689C98.5565 77.4729 98.2615 78.1565 98.2615 78.8693V165.876C98.2615 166.589 98.5565 167.272 99.0816 167.777C99.6067 168.281 100.319 168.564 101.061 168.564H105.047C105.789 168.564 106.502 168.28 107.027 167.776C107.552 167.272 107.847 166.589 107.847 165.876Z" fill="#2B3B47"/>
</svg>
